<?xml version="1.0" encoding="utf-8"?>
<!-- Generator: Adobe Illustrator 24.0.2, SVG Export Plug-In . SVG Version: 6.00 Build 0)  -->
<svg version="1.1" id="_x2014_ÎÓÈ_x5F_1" xmlns="http://www.w3.org/2000/svg" xmlns:xlink="http://www.w3.org/1999/xlink"
	 x="0px" y="0px" viewBox="0 0 566 342.3" style="enable-background:new 0 0 566 342.3;" xml:space="preserve">
<style type="text/css">
	.st0{fill:#FAF6F2;}
	.st1{fill:#EA9B5E;}
	.st2{fill:#FFB882;}
	.st3{fill:#C5D1D1;}
	.st4{fill:#FFFFFF;}
</style>
<g>
	<path class="st0" d="M133,304c0,0-17.4-8.4-17.8,0c-0.4,8.4,17.8,5.9,17.8,5.9s-2,11.4,8.5,8.4c10.4-3,11-8.8,11-8.8
		s12.3,15.2,21.2,9.3c8.9-5.9,7.9-8.6,7.9-8.6s10.9,17.3,18.3,10c7.4-7.3,3-9.1,3-9.1s25.7,5.2,27.7,0c2-5.2-14.3-6.6-14.3-6.6
		s18.8-13.8-2.5-18.3c-21.3-4.4-14.8,13.8-14.8,13.8s13.8-31.6-14.8-30.7c-28.7,1-11.1,30.7-11.1,30.7s3.3-27.7-20.5-23.2
		s5.9,22.7,5.9,22.7S115.5,284.2,133,304z"/>
</g>
<g>
	<path class="st0" d="M84.5,105.7c0,0-2.7,5.6-12.8,2.9c0,0-3.2,5.9-12.8,0c0,0-23.8,7.8-24.2-2.9c0,0-18.9-5.7-11.1-15.3
		c7.9-9.6,12.9,2.3,12.9,2.3s-9.6-15.5,2.3-17.8c11.9-2.3,8.7,14.2,8.7,14.2s-5-23.3,13.2-16.2c18.3,7.1,0.9,18.6,0.9,18.6
		s4.1-19.7,22.8-11.5s0,14.2,0,14.2c1.5-1.1,3.8-2.4,6.7-3.4c1.8-0.6,13.7-4.7,20.2,1.6c2.6,2.5,4.8,7.1,3.2,9.8
		c-1.8,3.2-8.9,3.9-17.4,0.2C97.3,102.3,107.8,109.1,84.5,105.7z"/>
</g>
<g>
	<path class="st1" d="M256,141.2c0,1.5-0.4,2.8-1.2,3.6c-0.8,0.9-2,1.5-3.4,1.8c-2.8,0.7-5.5,1.1-8.2,1.3c-0.2,2.3-0.4,4.6-0.6,6.9
		c-0.2,2.3-0.4,4.6-0.5,6.8c-0.1,1.1-0.2,2.5-0.4,4.4c-0.1,1.9-0.4,3.7-0.8,5.5c-0.4,1.8-1.1,3.3-2,4.7c-0.9,1.3-2,2-3.5,2
		c-1.4,0-2.5-0.6-3.3-1.9c-0.8-1.2-1.4-2.7-1.8-4.4c-0.4-1.7-0.7-3.3-0.8-5c-0.1-1.7-0.2-3-0.2-4c0-2.4,0.1-4.8,0.2-7.2
		c0.1-2.3,0.3-4.7,0.4-7.1c-1.5,0.1-3.1,0.2-4.6,0.2c-1.5,0-3.1,0-4.6,0c-0.7,0-1.6,0-2.7,0c-1.1,0-2.1-0.1-3.2-0.2
		c-1.1-0.1-2.1-0.3-3-0.7c-0.9-0.3-1.6-0.8-2-1.5c-0.3-0.4-0.5-1.1-0.7-2.2c-0.1-1-0.3-2.2-0.4-3.4c-0.1-1.2-0.1-2.4-0.1-3.5
		c0-1.1,0-2,0-2.5c0-1.4,0-2.7,0-4c0-1.3,0.1-2.6,0.2-4c0.1-1.3,0.1-2.9,0.2-4.7c0.1-1.8,0.4-3.5,0.9-5.2c0.5-1.7,1.2-3.1,2.2-4.3
		c1-1.2,2.4-1.8,4.2-1.8c1.1,0,2,0.5,2.7,1.6c0.7,1.1,1.2,2.3,1.6,3.7c0.4,1.4,0.6,2.9,0.8,4.3c0.1,1.5,0.2,2.6,0.2,3.3
		c0,1.8-0.1,3.6-0.2,5.3c-0.1,1.8-0.4,3.5-0.7,5.3c1.7-0.1,3.4-0.2,5.1-0.3c1.7-0.1,3.4-0.2,5.1-0.3c0.1-0.6,0.2-1.8,0.3-3.6
		c0.1-1.8,0.3-3.7,0.6-5.8c0.2-2,0.5-4,0.7-5.7c0.2-1.8,0.5-2.9,0.7-3.5c0.5-1.1,1.2-2.1,2.2-2.8c1-0.7,2.2-1.1,3.5-1.1
		c1.5,0,2.6,0.5,3.3,1.4c0.7,1,1.1,2.1,1.3,3.4c0.3,1.7,0.5,3.4,0.5,5.2c0.1,1.8,0.1,3.5,0.1,5.2c0,2.6-0.1,5.1-0.3,7.7
		c1.3,0.1,2.6,0.3,3.8,0.4c1.2,0.2,2.5,0.4,3.8,0.7c1.4,0.3,2.5,1,3.3,2C255.6,138.5,256,139.8,256,141.2z"/>
	<path class="st1" d="M310.9,146.2c0,4-0.6,8.1-1.8,12.1c-1.2,4.1-3,7.7-5.3,11c-2.3,3.3-5.3,6-8.8,8c-3.5,2-7.5,3.1-12.1,3.1
		c-3.9,0-7.3-1-10.4-3c-3.1-2-5.7-4.6-7.9-7.7c-2.2-3.1-3.8-6.5-5-10.2c-1.2-3.7-1.7-7.3-1.7-10.7c0-2.4,0.3-5,1-7.7
		c0.7-2.7,1.6-5.3,2.8-7.9c1.2-2.6,2.7-5.1,4.4-7.5c1.7-2.4,3.6-4.5,5.7-6.3c2.1-1.8,4.4-3.2,6.9-4.3c2.5-1.1,5-1.6,7.7-1.6
		c4.6,0,8.4,1,11.6,2.9c3.1,2,5.7,4.5,7.6,7.6c1.9,3.1,3.3,6.6,4.2,10.5C310.5,138.3,310.9,142.2,310.9,146.2z M298,145.7
		c0-1.5-0.2-3.2-0.6-5.3c-0.4-2-1.1-3.9-1.9-5.7c-0.9-1.8-2-3.3-3.3-4.5c-1.4-1.2-3-1.9-4.9-1.9c-2.3,0-4.4,0.7-6.2,2.2
		c-1.8,1.5-3.3,3.2-4.6,5.4c-1.2,2.1-2.2,4.4-2.9,6.9c-0.7,2.4-1,4.6-1,6.6c0,1.5,0.2,3.3,0.6,5.3c0.4,2,1.1,3.8,2,5.6
		c0.9,1.8,2,3.2,3.4,4.4c1.4,1.2,3,1.8,4.9,1.8c2.3,0,4.4-0.7,6.2-2.2c1.8-1.5,3.3-3.2,4.5-5.3c1.2-2.1,2.1-4.4,2.8-6.8
		C297.7,149.8,298,147.6,298,145.7z"/>
	<path class="st1" d="M365.2,141.2c0,1.5-0.4,2.8-1.2,3.6c-0.8,0.9-2,1.5-3.4,1.8c-2.8,0.7-5.5,1.1-8.2,1.3
		c-0.2,2.3-0.4,4.6-0.6,6.9c-0.2,2.3-0.4,4.6-0.5,6.8c-0.1,1.1-0.2,2.5-0.4,4.4c-0.1,1.9-0.4,3.7-0.8,5.5c-0.4,1.8-1.1,3.3-2,4.7
		c-0.9,1.3-2,2-3.5,2c-1.4,0-2.5-0.6-3.3-1.9s-1.4-2.7-1.8-4.4c-0.4-1.7-0.7-3.3-0.8-5c-0.1-1.7-0.2-3-0.2-4c0-2.4,0.1-4.8,0.2-7.2
		c0.1-2.3,0.3-4.7,0.4-7.1c-1.5,0.1-3.1,0.2-4.6,0.2c-1.5,0-3.1,0-4.6,0c-0.7,0-1.6,0-2.7,0c-1.1,0-2.1-0.1-3.2-0.2
		c-1.1-0.1-2.1-0.3-3-0.7c-0.9-0.3-1.6-0.8-2-1.5c-0.3-0.4-0.5-1.1-0.7-2.2c-0.1-1-0.3-2.2-0.4-3.4c-0.1-1.2-0.1-2.4-0.1-3.5
		c0-1.1,0-2,0-2.5c0-1.4,0-2.7,0-4c0-1.3,0.1-2.6,0.2-4c0.1-1.3,0.1-2.9,0.2-4.7c0.1-1.8,0.4-3.5,0.9-5.2c0.5-1.7,1.2-3.1,2.2-4.3
		c1-1.2,2.4-1.8,4.2-1.8c1.1,0,2,0.5,2.7,1.6c0.7,1.1,1.2,2.3,1.6,3.7c0.4,1.4,0.6,2.9,0.8,4.3c0.1,1.5,0.2,2.6,0.2,3.3
		c0,1.8-0.1,3.6-0.2,5.3c-0.1,1.8-0.4,3.5-0.7,5.3c1.7-0.1,3.4-0.2,5.1-0.3c1.7-0.1,3.4-0.2,5.1-0.3c0.1-0.6,0.2-1.8,0.3-3.6
		c0.1-1.8,0.3-3.7,0.6-5.8c0.2-2,0.5-4,0.7-5.7c0.2-1.8,0.5-2.9,0.7-3.5c0.5-1.1,1.2-2.1,2.2-2.8c1-0.7,2.2-1.1,3.5-1.1
		c1.5,0,2.6,0.5,3.3,1.4c0.7,1,1.1,2.1,1.3,3.4c0.3,1.7,0.5,3.4,0.5,5.2c0.1,1.8,0.1,3.5,0.1,5.2c0,2.6-0.1,5.1-0.3,7.7
		c1.3,0.1,2.6,0.3,3.8,0.4c1.2,0.2,2.5,0.4,3.8,0.7c1.4,0.3,2.5,1,3.3,2C364.8,138.5,365.2,139.8,365.2,141.2z"/>
</g>
<g>
	<path class="st2" d="M254,139.2c0,1.5-0.4,2.8-1.2,3.6c-0.8,0.9-2,1.5-3.4,1.8c-2.8,0.7-5.5,1.1-8.2,1.3c-0.2,2.3-0.4,4.6-0.6,6.9
		c-0.2,2.3-0.4,4.6-0.5,6.8c-0.1,1.1-0.2,2.5-0.4,4.4c-0.1,1.9-0.4,3.7-0.8,5.5c-0.4,1.8-1.1,3.3-2,4.7c-0.9,1.3-2,2-3.5,2
		c-1.4,0-2.5-0.6-3.3-1.9c-0.8-1.2-1.4-2.7-1.8-4.4c-0.4-1.7-0.7-3.3-0.8-5c-0.1-1.7-0.2-3-0.2-4c0-2.4,0.1-4.8,0.2-7.2
		c0.1-2.3,0.3-4.7,0.4-7.1c-1.5,0.1-3.1,0.2-4.6,0.2c-1.5,0-3.1,0-4.6,0c-0.7,0-1.6,0-2.7,0c-1.1,0-2.1-0.1-3.2-0.2
		c-1.1-0.1-2.1-0.3-3-0.7c-0.9-0.3-1.6-0.8-2-1.5c-0.3-0.4-0.5-1.1-0.7-2.2c-0.1-1-0.3-2.2-0.4-3.4c-0.1-1.2-0.1-2.4-0.1-3.5
		c0-1.1,0-2,0-2.5c0-1.4,0-2.7,0-4c0-1.3,0.1-2.6,0.2-4c0.1-1.3,0.1-2.9,0.2-4.7c0.1-1.8,0.4-3.5,0.9-5.2c0.5-1.7,1.2-3.1,2.2-4.3
		c1-1.2,2.4-1.8,4.2-1.8c1.1,0,2,0.5,2.7,1.6c0.7,1.1,1.2,2.3,1.6,3.7c0.4,1.4,0.6,2.9,0.8,4.3c0.1,1.5,0.2,2.6,0.2,3.3
		c0,1.8-0.1,3.6-0.2,5.3c-0.1,1.8-0.4,3.5-0.7,5.3c1.7-0.1,3.4-0.2,5.1-0.3c1.7-0.1,3.4-0.2,5.1-0.3c0.1-0.6,0.2-1.8,0.3-3.6
		c0.1-1.8,0.3-3.7,0.6-5.8c0.2-2,0.5-4,0.7-5.7c0.2-1.8,0.5-2.9,0.7-3.5c0.5-1.1,1.2-2.1,2.2-2.8c1-0.7,2.2-1.1,3.5-1.1
		c1.5,0,2.6,0.5,3.3,1.4c0.7,1,1.1,2.1,1.3,3.4c0.3,1.7,0.5,3.4,0.5,5.2c0.1,1.8,0.1,3.5,0.1,5.2c0,2.6-0.1,5.1-0.3,7.7
		c1.3,0.1,2.6,0.3,3.8,0.4c1.2,0.2,2.5,0.4,3.8,0.7c1.4,0.3,2.5,1,3.3,2C253.6,136.5,254,137.8,254,139.2z"/>
	<path class="st2" d="M308.9,144.2c0,4-0.6,8.1-1.8,12.1c-1.2,4.1-3,7.7-5.3,11c-2.3,3.3-5.3,6-8.8,8c-3.5,2-7.5,3.1-12.1,3.1
		c-3.9,0-7.3-1-10.4-3c-3.1-2-5.7-4.6-7.9-7.7c-2.2-3.1-3.8-6.5-5-10.2c-1.2-3.7-1.7-7.3-1.7-10.7c0-2.4,0.3-5,1-7.7
		c0.7-2.7,1.6-5.3,2.8-7.9c1.2-2.6,2.7-5.1,4.4-7.5c1.7-2.4,3.6-4.5,5.7-6.3c2.1-1.8,4.4-3.2,6.9-4.3c2.5-1.1,5-1.6,7.7-1.6
		c4.6,0,8.4,1,11.6,2.9c3.1,2,5.7,4.5,7.6,7.6c1.9,3.1,3.3,6.6,4.2,10.5C308.5,136.3,308.9,140.2,308.9,144.2z M296,143.7
		c0-1.5-0.2-3.2-0.6-5.3c-0.4-2-1.1-3.9-1.9-5.7c-0.9-1.8-2-3.3-3.3-4.5c-1.4-1.2-3-1.9-4.9-1.9c-2.3,0-4.4,0.7-6.2,2.2
		c-1.8,1.5-3.3,3.2-4.6,5.4c-1.2,2.1-2.2,4.4-2.9,6.9c-0.7,2.4-1,4.6-1,6.6c0,1.5,0.2,3.3,0.6,5.3c0.4,2,1.1,3.8,2,5.6
		c0.9,1.8,2,3.2,3.4,4.4c1.4,1.2,3,1.8,4.9,1.8c2.3,0,4.4-0.7,6.2-2.2c1.8-1.5,3.3-3.2,4.5-5.3c1.2-2.1,2.1-4.4,2.8-6.8
		C295.7,147.8,296,145.6,296,143.7z"/>
	<path class="st2" d="M363.2,139.2c0,1.5-0.4,2.8-1.2,3.6c-0.8,0.9-2,1.5-3.4,1.8c-2.8,0.7-5.5,1.1-8.2,1.3
		c-0.2,2.3-0.4,4.6-0.6,6.9c-0.2,2.3-0.4,4.6-0.5,6.8c-0.1,1.1-0.2,2.5-0.4,4.4c-0.1,1.9-0.4,3.7-0.8,5.5c-0.4,1.8-1.1,3.3-2,4.7
		c-0.9,1.3-2,2-3.5,2c-1.4,0-2.5-0.6-3.3-1.9s-1.4-2.7-1.8-4.4c-0.4-1.7-0.7-3.3-0.8-5c-0.1-1.7-0.2-3-0.2-4c0-2.4,0.1-4.8,0.2-7.2
		c0.1-2.3,0.3-4.7,0.4-7.1c-1.5,0.1-3.1,0.2-4.6,0.2c-1.5,0-3.1,0-4.6,0c-0.7,0-1.6,0-2.7,0c-1.1,0-2.1-0.1-3.2-0.2
		c-1.1-0.1-2.1-0.3-3-0.7c-0.9-0.3-1.6-0.8-2-1.5c-0.3-0.4-0.5-1.1-0.7-2.2c-0.1-1-0.3-2.2-0.4-3.4c-0.1-1.2-0.1-2.4-0.1-3.5
		c0-1.1,0-2,0-2.5c0-1.4,0-2.7,0-4c0-1.3,0.1-2.6,0.2-4c0.1-1.3,0.1-2.9,0.2-4.7c0.1-1.8,0.4-3.5,0.9-5.2c0.5-1.7,1.2-3.1,2.2-4.3
		c1-1.2,2.4-1.8,4.2-1.8c1.1,0,2,0.5,2.7,1.6c0.7,1.1,1.2,2.3,1.6,3.7c0.4,1.4,0.6,2.9,0.8,4.3c0.1,1.5,0.2,2.6,0.2,3.3
		c0,1.8-0.1,3.6-0.2,5.3c-0.1,1.8-0.4,3.5-0.7,5.3c1.7-0.1,3.4-0.2,5.1-0.3c1.7-0.1,3.4-0.2,5.1-0.3c0.1-0.6,0.2-1.8,0.3-3.6
		c0.1-1.8,0.3-3.7,0.6-5.8c0.2-2,0.5-4,0.7-5.7c0.2-1.8,0.5-2.9,0.7-3.5c0.5-1.1,1.2-2.1,2.2-2.8c1-0.7,2.2-1.1,3.5-1.1
		c1.5,0,2.6,0.5,3.3,1.4c0.7,1,1.1,2.1,1.3,3.4c0.3,1.7,0.5,3.4,0.5,5.2c0.1,1.8,0.1,3.5,0.1,5.2c0,2.6-0.1,5.1-0.3,7.7
		c1.3,0.1,2.6,0.3,3.8,0.4c1.2,0.2,2.5,0.4,3.8,0.7c1.4,0.3,2.5,1,3.3,2C362.8,136.5,363.2,137.8,363.2,139.2z"/>
</g>
<g>
	<g>
		<path class="st0" d="M322.7,268.9c-0.5,0-1-0.2-1.2-0.7c-0.5-0.7-0.3-1.6,0.4-2.1c0.9-0.6,1.9-1.3,2.8-2c0.7-0.5,1.6-0.4,2.1,0.3
			c0.5,0.7,0.4,1.6-0.3,2.1c-1,0.7-1.9,1.5-2.9,2.1C323.2,268.8,323,268.9,322.7,268.9z"/>
	</g>
	<g>
		<path class="st0" d="M297.4,275.9c-0.1,0-0.1,0-0.2,0c-2.5-0.3-4.9-0.9-7.1-1.7c-0.8-0.3-1.1-1.2-0.8-2c0.3-0.8,1.2-1.1,2-0.8
			c1.9,0.8,4.1,1.3,6.3,1.5c0.8,0.1,1.4,0.8,1.3,1.7C298.8,275.3,298.1,275.9,297.4,275.9z M307.2,275.4c-0.7,0-1.3-0.5-1.5-1.2
			c-0.2-0.8,0.4-1.6,1.2-1.8c2.1-0.4,4.3-1,6.4-1.9c0.8-0.3,1.6,0.1,1.9,0.9c0.3,0.8-0.1,1.6-0.9,1.9c-2.3,0.9-4.6,1.6-6.9,2
			C307.4,275.4,307.3,275.4,307.2,275.4z M243.5,268.9c-0.8,0-1.5-0.7-1.5-1.5c0-0.8,0.7-1.5,1.5-1.5c2.2,0,4.6-0.1,6.9-0.2
			c0.8-0.1,1.5,0.6,1.6,1.4c0.1,0.8-0.6,1.5-1.4,1.6C248.2,268.8,245.9,268.9,243.5,268.9C243.6,268.9,243.5,268.9,243.5,268.9z
			 M233.6,268.6c0,0-0.1,0-0.1,0c-2.4-0.2-4.7-0.4-7-0.8c-0.8-0.1-1.4-0.9-1.3-1.7c0.1-0.8,0.9-1.4,1.7-1.3c2.2,0.3,4.5,0.6,6.8,0.7
			c0.8,0.1,1.4,0.8,1.4,1.6C235.1,268,234.4,268.6,233.6,268.6z M282.8,268.4c-0.5,0-0.9-0.2-1.2-0.6c-0.8-1.1-1.6-2.3-2.3-3.6
			c-0.2,0-0.3,0.1-0.4,0.1l-1.6,0.4c-0.8,0.2-1.6-0.3-1.8-1.1c-0.2-0.8,0.3-1.6,1.1-1.8l1.5-0.3c0,0,0,0,0-0.1
			c-0.3-0.8,0.1-1.6,0.9-1.9c0.8-0.3,1.6,0.1,1.9,0.9c0,0.1,0.1,0.3,0.2,0.4c0.7-0.2,1.5-0.4,2.3-0.6c0.8-0.2,1.6,0.3,1.8,1.1
			c0.2,0.8-0.3,1.6-1.1,1.8c-0.6,0.2-1.2,0.3-1.8,0.5c0.5,0.9,1,1.8,1.6,2.5c0.5,0.7,0.4,1.6-0.3,2.1
			C283.4,268.3,283.1,268.4,282.8,268.4z M260.4,267.7c-0.7,0-1.4-0.6-1.5-1.3c-0.1-0.8,0.5-1.6,1.3-1.7c2.2-0.3,4.5-0.6,6.8-1
			c0.8-0.1,1.6,0.4,1.7,1.2c0.1,0.8-0.4,1.6-1.2,1.7c-2.3,0.4-4.7,0.8-6.9,1C260.5,267.7,260.4,267.7,260.4,267.7z M217,265.9
			c-0.1,0-0.2,0-0.4,0c-2.3-0.6-4.6-1.3-6.8-2c-0.8-0.3-1.2-1.1-0.9-1.9c0.3-0.8,1.1-1.2,1.9-0.9c2.1,0.7,4.3,1.4,6.5,1.9
			c0.8,0.2,1.3,1,1.1,1.8C218.3,265.5,217.7,265.9,217,265.9z M201.2,260.1c-0.2,0-0.5-0.1-0.7-0.2c-2.1-1.1-4.2-2.2-6.2-3.5
			c-0.7-0.4-0.9-1.4-0.5-2.1c0.4-0.7,1.4-0.9,2.1-0.5c1.9,1.2,3.9,2.3,5.9,3.3c0.7,0.4,1,1.3,0.7,2
			C202.3,259.8,201.8,260.1,201.2,260.1z M293.1,259.9c-0.6,0-1.1-0.3-1.4-0.9c-0.3-0.8,0.1-1.6,0.8-2c2.3-1,4.3-2,5.9-3
			c0.7-0.5,1.6-0.3,2.1,0.4c0.5,0.7,0.3,1.6-0.4,2.1c-1.7,1.2-3.9,2.3-6.4,3.3C293.5,259.9,293.3,259.9,293.1,259.9z M277.8,252.6
			C277.8,252.6,277.8,252.6,277.8,252.6c-0.9,0-1.5-0.7-1.5-1.5c0.1-2.7,0.6-5.2,1.5-7.3c0.3-0.8,1.2-1.1,2-0.8
			c0.8,0.3,1.1,1.2,0.8,2c-0.8,1.8-1.2,3.9-1.3,6.2C279.3,251.9,278.7,252.6,277.8,252.6z M187.2,250.8c-0.4,0-0.7-0.1-1-0.4
			c-1.8-1.5-3.5-3.2-5.1-4.9c-0.6-0.6-0.5-1.6,0.1-2.1c0.6-0.6,1.6-0.5,2.1,0.1c1.5,1.7,3.2,3.2,4.9,4.7c0.6,0.5,0.7,1.5,0.1,2.1
			C188.1,250.6,187.6,250.8,187.2,250.8z M304.5,248.9c-0.8,0-1.5-0.6-1.5-1.5c-0.1-2.2-1.5-4.3-2.4-5.3c-0.5-0.6-0.5-1.6,0.2-2.1
			c0.6-0.5,1.6-0.5,2.1,0.2c1.4,1.6,3.1,4.2,3.1,7.2C306.1,248.1,305.4,248.8,304.5,248.9C304.6,248.9,304.6,248.9,304.5,248.9z
			 M286.3,239.2c-0.6,0-1.2-0.4-1.4-1c-0.3-0.8,0.1-1.6,0.9-1.9c2.3-0.8,5-1.2,7.5-1c0.8,0.1,1.4,0.8,1.4,1.6
			c-0.1,0.8-0.8,1.4-1.6,1.4c-2.1-0.2-4.3,0.1-6.2,0.8C286.6,239.2,286.4,239.2,286.3,239.2z M176,238.2c-0.5,0-0.9-0.2-1.2-0.6
			c-1.3-1.9-2.6-3.9-3.8-5.9c-0.4-0.7-0.2-1.6,0.5-2.1c0.7-0.4,1.6-0.2,2.1,0.5c1.2,2,2.4,3.9,3.7,5.7c0.5,0.7,0.3,1.6-0.4,2.1
			C176.6,238.1,176.3,238.2,176,238.2z M167.7,223.6c-0.6,0-1.1-0.3-1.4-0.9c-1-2.2-1.8-4.4-2.6-6.6c-0.3-0.8,0.2-1.6,0.9-1.9
			c0.8-0.3,1.6,0.2,1.9,0.9c0.7,2.1,1.5,4.2,2.5,6.3c0.3,0.8,0,1.6-0.8,2C168.1,223.5,167.9,223.6,167.7,223.6z M162.8,207.5
			c-0.7,0-1.4-0.5-1.5-1.3c-0.4-2.4-0.6-4.8-0.6-7.1c0-0.8,0.7-1.5,1.5-1.5c0,0,0,0,0,0c0.8,0,1.5,0.7,1.5,1.5
			c0,2.2,0.2,4.4,0.6,6.7c0.1,0.8-0.4,1.6-1.3,1.7C163,207.5,162.9,207.5,162.8,207.5z M340.2,196.9
			C340.2,196.9,340.2,196.9,340.2,196.9c-0.9,0-1.5-0.8-1.5-1.6c0-0.6,0-1.2,0-1.8c0-1.7-0.1-3.3-0.4-4.8c-0.1-0.8,0.4-1.6,1.2-1.7
			c0.8-0.1,1.6,0.4,1.7,1.2c0.3,1.7,0.5,3.5,0.5,5.3c0,0.6,0,1.3-0.1,1.9C341.7,196.3,341,196.9,340.2,196.9z M163.5,190.7
			c-0.1,0-0.3,0-0.4-0.1c-0.8-0.2-1.3-1-1.1-1.8c0.6-2.4,1.5-4.6,2.6-6.8c0.4-0.7,1.3-1,2-0.6c0.7,0.4,1,1.3,0.6,2
			c-1,1.9-1.8,4-2.4,6.2C164.7,190.3,164.1,190.7,163.5,190.7z M336.4,180.8c-0.5,0-1-0.3-1.3-0.7c-1.1-1.8-2.4-3.6-4-5.2
			c-0.6-0.6-0.6-1.5,0-2.1c0.6-0.6,1.5-0.6,2.1,0c1.7,1.8,3.2,3.7,4.4,5.8c0.4,0.7,0.2,1.6-0.5,2.1
			C336.9,180.7,336.7,180.8,336.4,180.8z M171.8,176.3c-0.4,0-0.8-0.2-1.1-0.5c-0.6-0.6-0.6-1.5,0-2.1c1.7-1.6,3.6-3.1,5.7-4.5
			c0.7-0.5,1.6-0.3,2.1,0.4c0.5,0.7,0.3,1.6-0.4,2.1c-1.9,1.3-3.7,2.6-5.2,4.1C172.6,176.2,172.2,176.3,171.8,176.3z M324.5,169.1
			c-0.3,0-0.6-0.1-0.8-0.2c-1.8-1.1-3.8-2.2-5.9-3.2c-0.7-0.4-1.1-1.3-0.7-2c0.4-0.7,1.2-1.1,2-0.7c2.2,1.1,4.3,2.2,6.2,3.4
			c0.7,0.4,0.9,1.4,0.5,2.1C325.5,168.8,325,169.1,324.5,169.1z M186.1,167.5c-0.6,0-1.2-0.4-1.4-0.9c-0.3-0.8,0.1-1.6,0.8-2
			c2-0.8,4.2-1.6,6.7-2.3c0.8-0.2,1.6,0.2,1.9,1c0.2,0.8-0.2,1.6-1,1.9c-2.4,0.7-4.5,1.5-6.4,2.3
			C186.5,167.5,186.3,167.5,186.1,167.5z M202.2,162.7c-0.7,0-1.3-0.5-1.5-1.2c-0.2-0.8,0.3-1.6,1.1-1.8c2-0.5,4.1-0.9,6.8-1.5
			c0.8-0.2,1.6,0.3,1.8,1.2c0.2,0.8-0.3,1.6-1.2,1.8c-2.6,0.6-4.8,1-6.7,1.5C202.4,162.7,202.3,162.7,202.2,162.7z M309.2,162.1
			c-0.2,0-0.3,0-0.5-0.1c-2.1-0.7-4.3-1.3-6.6-1.9c-0.8-0.2-1.3-1-1.1-1.8c0.2-0.8,1-1.3,1.8-1.1c2.3,0.6,4.6,1.3,6.8,2
			c0.8,0.3,1.2,1.1,1,1.9C310.4,161.7,309.8,162.1,309.2,162.1z M218.7,159.2c-0.7,0-1.3-0.5-1.5-1.2c-0.1-0.8,0.4-1.6,1.2-1.7
			c2.2-0.4,4.6-0.8,6.9-1.1c0.8-0.1,1.6,0.4,1.7,1.3c0.1,0.8-0.4,1.6-1.3,1.7c-2.3,0.3-4.6,0.7-6.8,1.1
			C218.9,159.2,218.8,159.2,218.7,159.2z M292.8,158.1c-0.1,0-0.2,0-0.3,0c-2.2-0.4-4.5-0.7-6.8-1c-0.8-0.1-1.4-0.9-1.3-1.7
			c0.1-0.8,0.9-1.4,1.7-1.3c2.4,0.3,4.7,0.6,6.9,1c0.8,0.1,1.4,0.9,1.2,1.7C294.2,157.6,293.5,158.1,292.8,158.1z M235.4,156.9
			c-0.8,0-1.4-0.6-1.5-1.3c-0.1-0.8,0.5-1.6,1.3-1.6c2.3-0.2,4.6-0.4,7-0.6c0.8-0.1,1.5,0.6,1.6,1.4c0.1,0.8-0.6,1.5-1.4,1.6
			c-2.3,0.2-4.6,0.4-6.9,0.6C235.5,156.9,235.5,156.9,235.4,156.9z M276.1,156.1c0,0-0.1,0-0.1,0c-2.2-0.2-4.6-0.3-6.9-0.4
			c-0.8,0-1.5-0.7-1.4-1.6c0-0.8,0.7-1.5,1.6-1.4c2.4,0.1,4.7,0.2,7,0.4c0.8,0.1,1.4,0.8,1.4,1.6
			C277.5,155.5,276.8,156.1,276.1,156.1z M252.2,155.7c-0.8,0-1.5-0.6-1.5-1.4c0-0.8,0.6-1.5,1.4-1.6c2.3-0.1,4.7-0.1,7-0.1
			c0,0,0,0,0,0c0.8,0,1.5,0.7,1.5,1.5c0,0.8-0.7,1.5-1.5,1.5C256.9,155.6,254.6,155.7,252.2,155.7
			C252.3,155.7,252.3,155.7,252.2,155.7z"/>
	</g>
	<g>
		<path class="st0" d="M337.3,210.1c-0.2,0-0.3,0-0.5-0.1c-0.8-0.3-1.2-1.1-0.9-1.9c0.4-1.1,0.8-2.2,1.1-3.2c0.2-0.8,1.1-1.2,1.9-1
			c0.8,0.2,1.2,1.1,1,1.9c-0.3,1.1-0.7,2.3-1.1,3.4C338.5,209.7,337.9,210.1,337.3,210.1z"/>
	</g>
</g>
<g>
	<path class="st0" d="M356.2,250l-0.3,0c-0.8,0-1.5-0.7-1.5-1.5c0-0.8,0.7-1.5,1.5-1.5c0,0,0,0,0,0l0.3,0c1.9,0,4-0.3,6.3-0.8
		c0.8-0.2,1.6,0.3,1.8,1.1c0.2,0.8-0.3,1.6-1.1,1.8C360.7,249.7,358.3,250,356.2,250z M346.7,246.7c-0.4,0-0.7-0.1-1-0.4
		c-3.2-2.9-4.1-6.5-4.2-6.6c-0.2-0.8,0.3-1.6,1.1-1.8c0.8-0.2,1.6,0.3,1.8,1.1l0,0c0,0,0.7,2.8,3.2,5.1c0.6,0.6,0.7,1.5,0.1,2.1
		C347.5,246.5,347.1,246.7,346.7,246.7z M372.3,245.8c-0.6,0-1.1-0.3-1.4-0.9c-0.3-0.8,0-1.6,0.8-2c1.9-0.9,3.9-2,5.9-3.3
		c0.7-0.5,1.6-0.3,2.1,0.4c0.5,0.7,0.3,1.6-0.4,2.1c-2.1,1.4-4.3,2.6-6.3,3.5C372.7,245.8,372.5,245.8,372.3,245.8z M386.3,236.3
		c-0.4,0-0.8-0.2-1.1-0.5c-0.6-0.6-0.5-1.6,0.1-2.1c1.7-1.5,3.3-3.1,4.9-4.8c0.6-0.6,1.5-0.7,2.1-0.1c0.6,0.6,0.7,1.5,0.1,2.1
		c-1.6,1.8-3.3,3.5-5.1,5C387,236.2,386.6,236.3,386.3,236.3z M397.5,223.6c-0.3,0-0.6-0.1-0.9-0.3c-0.7-0.5-0.8-1.4-0.3-2.1
		c1.3-1.9,2.6-3.8,3.8-5.7c0.4-0.7,1.3-0.9,2.1-0.5c0.7,0.4,0.9,1.3,0.5,2.1c-1.2,2-2.5,4-3.9,5.9
		C398.5,223.4,398,223.6,397.5,223.6z M406.1,208.9c-0.2,0-0.4,0-0.6-0.1c-0.8-0.3-1.1-1.2-0.8-2c0.9-2.1,1.8-4.2,2.5-6.4
		c0.3-0.8,1.1-1.2,1.9-0.9c0.8,0.3,1.2,1.1,0.9,1.9c-0.8,2.2-1.7,4.4-2.6,6.6C407.2,208.6,406.6,208.9,406.1,208.9z M411.3,192.8
		c-0.1,0-0.2,0-0.3,0c-0.8-0.2-1.3-1-1.2-1.8c0.5-2.3,0.8-4.5,1-6.8c0.1-0.8,0.8-1.4,1.6-1.4c0.8,0.1,1.4,0.8,1.4,1.6
		c-0.2,2.3-0.6,4.7-1.1,7.1C412.6,192.3,412,192.8,411.3,192.8z M412.5,175.9c-0.8,0-1.4-0.6-1.5-1.4c-0.1-1.6-0.3-3.3-0.5-4.9
		c-0.1-0.6-0.2-1.3-0.3-1.9c-0.1-0.8,0.4-1.6,1.2-1.7c0.8-0.1,1.6,0.4,1.7,1.2c0.1,0.7,0.2,1.3,0.3,2c0.2,1.7,0.4,3.4,0.5,5.1
		C414.1,175.1,413.4,175.8,412.5,175.9C412.6,175.9,412.5,175.9,412.5,175.9z M409.4,159.2c-0.6,0-1.2-0.4-1.4-1.1
		c-0.7-2.2-1.5-4.3-2.3-6.5c-0.3-0.8,0-1.6,0.8-2c0.8-0.3,1.6,0,2,0.8c0.9,2.2,1.7,4.5,2.4,6.7c0.2,0.8-0.2,1.6-1,1.9
		C409.7,159.2,409.5,159.2,409.4,159.2z M402.6,143.6c-0.5,0-1-0.3-1.3-0.8c-1.1-2-2.4-3.9-3.7-5.8c-0.5-0.7-0.3-1.6,0.4-2.1
		c0.7-0.5,1.6-0.3,2.1,0.4c1.3,1.9,2.6,4,3.8,6c0.4,0.7,0.2,1.6-0.6,2C403.1,143.6,402.8,143.6,402.6,143.6z M392.7,129.9
		c-0.4,0-0.8-0.2-1.1-0.5c-1.5-1.7-3.2-3.3-4.8-4.9c-0.6-0.6-0.7-1.5-0.1-2.1c0.6-0.6,1.5-0.7,2.1-0.1c1.7,1.6,3.4,3.3,5,5.1
		c0.6,0.6,0.5,1.6-0.1,2.1C393.4,129.7,393,129.9,392.7,129.9z M379.8,118.8c-0.3,0-0.6-0.1-0.8-0.2c-2-1.3-3.9-2.4-5.9-3.3
		c-0.8-0.4-1.1-1.2-0.7-2c0.4-0.8,1.2-1.1,2-0.7c2.1,1,4.2,2.2,6.3,3.5c0.7,0.5,0.9,1.4,0.4,2.1
		C380.8,118.5,380.3,118.8,379.8,118.8z M364.3,112.2c-0.1,0-0.2,0-0.4,0c-2.1-0.5-4.4-1.1-6.8-1.6c-0.8-0.2-1.3-1-1.2-1.8
		c0.2-0.8,1-1.3,1.8-1.2c2.4,0.5,4.7,1,6.9,1.6c0.8,0.2,1.3,1,1.1,1.8C365.5,111.7,364.9,112.2,364.3,112.2z M347.6,108.8
		c-0.1,0-0.2,0-0.2,0c-3-0.5-5.4-0.8-6.9-1c-0.8-0.1-1.4-0.9-1.3-1.7c0.1-0.8,0.9-1.4,1.7-1.3c1.5,0.2,4,0.5,7,1
		c0.8,0.1,1.4,0.9,1.2,1.7C349,108.2,348.3,108.8,347.6,108.8z M330.7,106.7c0,0-0.1,0-0.1,0c-2.7-0.2-4.9-0.4-7-0.7
		c-0.8-0.1-1.4-0.9-1.3-1.7c0.1-0.8,0.9-1.4,1.7-1.3c2,0.3,4.2,0.5,6.9,0.7c0.8,0.1,1.4,0.8,1.4,1.6
		C332.1,106.2,331.5,106.7,330.7,106.7z M314.2,103.2c-0.2,0-0.5-0.1-0.7-0.2c-0.7-0.3-1.4-0.7-2-1.1c-1.4-0.8-2.8-1.8-4.1-2.8
		c-0.7-0.5-0.8-1.4-0.3-2.1c0.5-0.7,1.4-0.8,2.1-0.3c1.2,0.9,2.5,1.8,3.8,2.6c0.6,0.4,1.2,0.7,1.8,1c0.7,0.4,1,1.3,0.7,2
		C315.3,102.9,314.8,103.2,314.2,103.2z M301.5,92.2c-0.5,0-1-0.3-1.3-0.8c-1.1-2-1.7-4.1-1.7-6.1c0-0.3,0-0.5,0-0.8
		c0-0.3,0.1-0.5,0.1-0.8c0.1-0.8,0.9-1.4,1.7-1.2c0.8,0.1,1.4,0.9,1.2,1.7c0,0.2-0.1,0.4-0.1,0.6c0,0.2,0,0.4,0,0.6
		c0,1.5,0.4,3,1.3,4.6c0.4,0.7,0.2,1.6-0.6,2C302,92.1,301.8,92.2,301.5,92.2z M406.7,82.8c-0.1,0-0.3,0-0.4-0.1l-1.8-0.5
		c-0.8-0.2-1.3-1.1-1-1.8c0.2-0.8,1.1-1.3,1.8-1l1.8,0.5c0.8,0.2,1.3,1.1,1,1.9C407.9,82.4,407.3,82.8,406.7,82.8z M395.2,79.7
		c-0.1,0-0.2,0-0.4,0c-2.1-0.5-4.4-1.1-6.8-1.7c-0.8-0.2-1.3-1-1.1-1.8c0.2-0.8,1-1.3,1.8-1.1c2.4,0.6,4.7,1.2,6.8,1.7
		c0.8,0.2,1.3,1,1.1,1.8C396.5,79.3,395.9,79.7,395.2,79.7z M305.6,77.4c-0.4,0-0.9-0.2-1.2-0.6c-0.5-0.6-0.4-1.6,0.2-2.1
		c1.5-1.2,2.9-2.1,3.9-2.7c0.7-0.4,1.5-0.9,2.3-1.2c0.7-0.4,1.6,0,2,0.7c0.4,0.8,0,1.6-0.7,2c-0.7,0.3-1.4,0.7-2,1.1
		c-0.9,0.6-2.2,1.4-3.6,2.5C306.2,77.3,305.9,77.4,305.6,77.4z M378.6,75.8c-0.1,0-0.2,0-0.3,0c-2.3-0.5-4.6-1-6.8-1.4
		c-0.8-0.2-1.3-0.9-1.2-1.8c0.2-0.8,0.9-1.3,1.8-1.2c2.3,0.4,4.6,0.9,6.9,1.4c0.8,0.2,1.3,1,1.2,1.8
		C379.9,75.4,379.3,75.8,378.6,75.8z M361.9,72.7c-0.1,0-0.2,0-0.2,0c-2.3-0.4-4.7-0.7-6.9-1c-0.8-0.1-1.4-0.9-1.3-1.7
		c0.1-0.8,0.9-1.4,1.7-1.3c2.2,0.3,4.6,0.6,7,1c0.8,0.1,1.4,0.9,1.2,1.7C363.3,72.2,362.6,72.7,361.9,72.7z M321.1,70.9
		c-0.7,0-1.4-0.5-1.5-1.3c-0.1-0.8,0.4-1.6,1.2-1.7c2.2-0.4,4.6-0.6,7.1-0.7c0.8,0,1.5,0.6,1.6,1.4c0,0.8-0.6,1.5-1.4,1.6
		c-2.4,0.1-4.7,0.4-6.8,0.7C321.2,70.9,321.2,70.9,321.1,70.9z M345,70.6c0,0-0.1,0-0.1,0c-2.4-0.2-4.7-0.3-6.9-0.4
		c-0.8,0-1.5-0.7-1.4-1.6c0-0.8,0.7-1.4,1.6-1.4c2.2,0.1,4.6,0.2,7.1,0.4c0.8,0.1,1.4,0.8,1.4,1.6C346.5,70,345.8,70.6,345,70.6z"/>
</g>
<g>
	<path class="st1" d="M170.4,206.3c-0.2,0-0.2-0.1-0.2-0.3l0.1-1.5c0-0.1,0-0.2,0.1-0.2c0,0,0.1,0,0.2,0l4-0.2c0.1,0,0.2,0,0.2,0.1
		c0,0,0,0.1,0,0.2l0.1,1.4c0,0.1,0,0.2-0.1,0.2c0,0-0.1,0-0.2,0l-1.4,0l2,8.7l2.1-10.2c0-0.1,0.1-0.2,0.2-0.2l1.3-0.1
		c0.1,0,0.2,0.1,0.2,0.2l2.3,10.3l1.7-8.7l-1.3,0c-0.1,0-0.1,0-0.1,0c0,0,0-0.1-0.1-0.2l0-1.4c0-0.2,0.1-0.2,0.3-0.3l3.9,0.1
		c0.1,0,0.2,0.1,0.2,0.3l-0.1,1.4c0,0.1,0,0.2-0.1,0.2c0,0-0.1,0.1-0.2,0.1l-0.8,0l-2.7,11.3c0,0.1-0.1,0.2-0.2,0.2l-1.4,0.1
		c-0.1,0-0.2-0.1-0.2-0.2l-2.1-9.3l-2,9.2c0,0.1-0.1,0.2-0.2,0.2l-1.5,0.1c-0.1,0-0.2-0.1-0.2-0.2l-2.9-11.2L170.4,206.3z"/>
	<path class="st1" d="M194.4,211.4c0-1.3-0.5-1.9-1.4-1.9c-0.5,0-1.1,0.1-1.8,0.4c-0.2,0.1-0.4,0.2-0.6,0.3l0,5.7l1.1,0.1
		c0.1,0,0.1,0.1,0.1,0.2l-0.2,1.1c0,0.1-0.1,0.2-0.2,0.2l-3.7,0.1c-0.1,0-0.1-0.1-0.1-0.2l0.2-1.5c0-0.1,0-0.1,0.1-0.1
		c0,0,0.1,0,0.1,0l0.7,0.1v-7.2l0.2-3.2l-1.2,0.1c-0.1,0-0.2-0.1-0.2-0.2v-1.3c0-0.1,0.1-0.2,0.2-0.2l2.9-0.1c0.1,0,0.2,0.1,0.2,0.2
		l-0.2,4.8c1-0.7,2.1-1,3.1-1c1.4,0,2.2,0.8,2.5,2.3c0.1,0.5,0.1,1.2,0.1,2.1c0,0.9-0.1,2.2-0.2,3.9l1-0.1c0.1,0,0.2,0.1,0.2,0.2
		v1.3c0,0.1-0.1,0.2-0.2,0.2l-3.7,0.1c-0.1,0-0.1-0.1-0.1-0.2l0.2-1.2c0-0.1,0-0.1,0.1-0.1c0,0,0.1,0,0.1,0l0.7,0c0-0.3,0-0.7,0-1.2
		v-1.3c0-0.4,0-0.8,0-1.2V211.4z"/>
	<path class="st1" d="M199.9,212.7c0-1,0.1-1.8,0.2-2.5c0.2-0.7,0.4-1.2,0.7-1.6c0.6-0.7,1.6-1.1,2.9-1.1c1,0,1.6,0.1,2.1,0.3
		c0.4,0.2,0.8,0.4,1,0.7c0.3,0.2,0.5,0.6,0.6,0.9c0.4,0.8,0.5,1.8,0.5,3c0,1.2-0.1,2.1-0.2,2.7c-0.2,0.6-0.4,1.2-0.7,1.5
		c-0.6,0.7-1.6,1.1-3,1.1c-1.4,0-2.5-0.3-3.1-1C200.2,215.9,199.9,214.6,199.9,212.7z M205.8,215.4c0.2-0.2,0.3-0.6,0.4-1
		c0.1-0.4,0.1-0.9,0.1-1.5c0-0.6,0-1.1-0.1-1.5c-0.1-0.4-0.2-0.7-0.3-0.9c-0.1-0.2-0.2-0.4-0.4-0.6c-0.2-0.1-0.3-0.2-0.5-0.3
		c-0.3-0.1-0.6-0.2-1.1-0.2c-0.5,0-0.8,0-1.1,0.1c-0.3,0.1-0.5,0.2-0.7,0.4c-0.3,0.4-0.5,1.3-0.5,2.7c0,1.9,0.5,3,1.5,3.2
		c0.3,0.1,0.7,0.1,1,0.1c0.4,0,0.7,0,0.9-0.1C205.4,215.8,205.6,215.6,205.8,215.4z"/>
	<path class="st1" d="M210.7,212.7c0-1,0.1-1.8,0.2-2.5c0.2-0.7,0.4-1.2,0.7-1.6c0.6-0.7,1.6-1.1,2.9-1.1c1,0,1.6,0.1,2.1,0.3
		c0.4,0.2,0.8,0.4,1,0.7c0.3,0.2,0.5,0.6,0.6,0.9c0.4,0.8,0.5,1.8,0.5,3c0,1.2-0.1,2.1-0.2,2.7c-0.2,0.6-0.4,1.2-0.7,1.5
		c-0.6,0.7-1.6,1.1-3,1.1c-1.4,0-2.5-0.3-3.1-1C211.1,215.9,210.7,214.6,210.7,212.7z M216.6,215.4c0.2-0.2,0.3-0.6,0.4-1
		c0.1-0.4,0.1-0.9,0.1-1.5c0-0.6,0-1.1-0.1-1.5c-0.1-0.4-0.2-0.7-0.3-0.9c-0.1-0.2-0.2-0.4-0.4-0.6c-0.2-0.1-0.3-0.2-0.5-0.3
		c-0.3-0.1-0.6-0.2-1.1-0.2c-0.5,0-0.8,0-1.1,0.1c-0.3,0.1-0.5,0.2-0.7,0.4c-0.3,0.4-0.5,1.3-0.5,2.7c0,1.9,0.5,3,1.5,3.2
		c0.3,0.1,0.7,0.1,1,0.1c0.4,0,0.7,0,0.9-0.1C216.2,215.8,216.4,215.6,216.6,215.4z"/>
	<path class="st1" d="M221.5,221.5c-0.1,0-0.2-0.1-0.2-0.2l0.1-1.4c0-0.1,0-0.1,0.1-0.1c0,0,0.1,0,0.1,0l0.6,0.1v-10.2l-1.4,0.1
		c-0.1,0-0.2-0.1-0.2-0.2l0-1.8c0-0.1,0.1-0.2,0.2-0.2l2.4,0.1c0.1,0,0.2,0.1,0.2,0.2l0.1,0.6c1-0.6,1.9-0.8,2.7-0.8
		c0.8,0,1.4,0.1,1.9,0.3c0.5,0.2,0.9,0.5,1.1,0.9c0.5,0.8,0.8,2,0.8,3.8c0,2.5-0.7,4-2,4.6c-0.4,0.2-1,0.3-1.8,0.3
		c-0.7,0-1.5-0.1-2.3-0.4l0.1,2.8l1.6-0.1c0.1,0,0.2,0.1,0.2,0.2l-0.1,1.3c0,0.1-0.1,0.2-0.2,0.2L221.5,221.5z M223.8,215.5
		c0.7,0.2,1.3,0.3,1.9,0.3c0.5,0,0.9,0,1.2-0.1c0.3-0.1,0.5-0.2,0.7-0.5c0.3-0.4,0.5-1.3,0.5-2.5c0-1.2-0.1-2-0.4-2.5
		c-0.3-0.5-0.8-0.7-1.7-0.7c-0.6,0-1.2,0.1-2,0.4L223.8,215.5z"/>
	<path class="st1" d="M238.9,210.1c-1.6-0.5-2.7-0.8-3.3-0.8c-0.7,0-1.2,0.2-1.4,0.5c-0.1,0.1-0.1,0.3-0.1,0.5c0,0.2,0,0.4,0.1,0.5
		c0,0.1,0.1,0.3,0.3,0.4c0.2,0.2,0.7,0.4,1.4,0.5c0.7,0.1,1.3,0.2,1.8,0.4c0.5,0.1,0.9,0.3,1.3,0.5c0.3,0.2,0.5,0.5,0.7,0.8
		c0.1,0.3,0.2,0.7,0.2,1.2c0,0.5-0.1,0.9-0.2,1.3c-0.1,0.4-0.4,0.7-0.6,1c-0.5,0.5-1.3,0.8-2.2,0.8c-0.7,0-1.4-0.1-2.3-0.2l0.1,0.7
		c0,0.1-0.1,0.1-0.2,0.2l-1.5,0.1c-0.2,0-0.3-0.1-0.4-0.3l-0.2-2.6c0-0.1,0.1-0.2,0.2-0.2l1.4-0.2c0.1,0,0.2,0.1,0.2,0.2l0.1,0.6
		c0.8,0.1,1.5,0.2,2.1,0.2c0.5,0,1-0.1,1.2-0.3c0.3-0.2,0.4-0.5,0.4-0.9c0-0.4-0.1-0.6-0.4-0.8c-0.2-0.1-0.7-0.3-1.5-0.4
		c-0.7-0.1-1.3-0.2-1.8-0.4c-0.5-0.1-0.9-0.3-1.2-0.5c-0.6-0.4-0.9-1.2-0.9-2.2c0-0.9,0.3-1.6,0.8-2.1c0.6-0.6,1.4-0.8,2.4-0.8
		c0.6,0,1.3,0.2,2.1,0.6l-0.2-0.7c0-0.1,0.1-0.2,0.2-0.2l1.7-0.1c0.1,0,0.1,0.1,0.1,0.2L239,210C239,210.1,239,210.1,238.9,210.1z"
		/>
	<path class="st1" d="M244.1,215.9c0.1,0.2,0.1,0.3,0.2,0.5c0,0.2,0,0.3,0,0.5c0,0.2-0.1,0.3-0.2,0.4c-0.1,0.1-0.2,0.2-0.4,0.3
		c-0.3,0.2-0.7,0.3-1,0.3c-0.3,0-0.5-0.1-0.7-0.2c-0.1-0.1-0.2-0.2-0.3-0.4c-0.1-0.3-0.2-0.6-0.2-0.9c0-0.3,0.1-0.5,0.2-0.6
		c0.1-0.1,0.3-0.2,0.5-0.3c0.3-0.1,0.6-0.2,1-0.2c0.3,0,0.5,0.1,0.7,0.2C243.9,215.6,244,215.7,244.1,215.9z"/>
	<path class="st1" d="M249,215.9c0.1,0.2,0.1,0.3,0.2,0.5c0,0.2,0,0.3,0,0.5c0,0.2-0.1,0.3-0.2,0.4c-0.1,0.1-0.2,0.2-0.4,0.3
		c-0.3,0.2-0.7,0.3-1,0.3c-0.3,0-0.5-0.1-0.7-0.2c-0.1-0.1-0.2-0.2-0.3-0.4c-0.1-0.3-0.2-0.6-0.2-0.9c0-0.3,0.1-0.5,0.2-0.6
		c0.1-0.1,0.3-0.2,0.5-0.3c0.3-0.1,0.6-0.2,1-0.2c0.3,0,0.5,0.1,0.7,0.2C248.8,215.6,248.9,215.7,249,215.9z"/>
	<path class="st1" d="M253.9,215.9c0.1,0.2,0.1,0.3,0.2,0.5c0,0.2,0,0.3,0,0.5c0,0.2-0.1,0.3-0.2,0.4c-0.1,0.1-0.2,0.2-0.4,0.3
		c-0.3,0.2-0.7,0.3-1,0.3c-0.3,0-0.5-0.1-0.7-0.2c-0.1-0.1-0.2-0.2-0.3-0.4c-0.1-0.3-0.2-0.6-0.2-0.9c0-0.3,0.1-0.5,0.2-0.6
		c0.1-0.1,0.3-0.2,0.5-0.3c0.3-0.1,0.6-0.2,1-0.2c0.3,0,0.5,0.1,0.7,0.2C253.7,215.6,253.8,215.7,253.9,215.9z"/>
	<path class="st1" d="M261.7,215.7c0.1,0,0.1,0.1,0.1,0.2l-0.1,1.4c0,0.1-0.1,0.2-0.2,0.2l-5,0.1c-0.1,0-0.2-0.1-0.2-0.2l0-1.5
		c0-0.1,0-0.1,0.1-0.2l1.4,0.1V206l-1.4,0.1c-0.1,0-0.1,0-0.2-0.1c0,0-0.1-0.1-0.1-0.2l0.1-1.2c0-0.2,0.1-0.2,0.2-0.3
		c0.2,0,0.3-0.1,0.6-0.1c0.2,0,0.5-0.1,0.8-0.1c0.3,0,0.6-0.1,0.9-0.1c0.3,0,0.6,0,0.9-0.1c0.7,0,1.3,0,2,0c0.6,0,1.3,0.1,1.9,0.2
		c0.6,0.2,1.1,0.4,1.6,0.7c0.8,0.7,1.2,1.7,1.2,3.2c0,2.1-1,3.3-2.9,3.7c-0.6,0.1-1.2,0.2-1.9,0.2c-0.7,0-1.4,0-2-0.1v3.8
		L261.7,215.7z M259.8,210.4c0.6,0.1,1.1,0.1,1.7,0.1s1,0,1.4-0.1c0.4-0.1,0.7-0.2,1-0.4c0.6-0.4,0.8-1,0.8-1.9
		c0-1.6-0.9-2.4-2.6-2.4c-0.7,0-1.4,0-2.2,0.1V210.4z"/>
	<path class="st1" d="M273.9,207.6c1.7,0,2.6,1.1,2.6,3.2c0,0.5,0,1.2,0,2l-0.1,1.7c0,0.3,0,0.7,0,1l0,0.8l0.5,0
		c0.2,0,0.4,0,0.7-0.1c0.1,0,0.2,0.1,0.2,0.2l-0.2,1.4c0,0.1-0.1,0.2-0.2,0.2l-2.5,0.2c-0.1,0-0.1-0.1-0.1-0.2l0.1-1
		c-1,0.7-2,1.1-3.2,1.1c-0.9,0-1.6-0.3-2.2-0.8c-0.6-0.5-0.9-1.3-0.9-2.2c0-1.2,0.4-2,1.2-2.5c0.7-0.4,1.9-0.6,3.6-0.6
		c0.3,0,0.7,0,1.1,0c0-0.2,0-0.3,0-0.4V211c0-1.1-0.5-1.7-1.5-1.7c-0.5,0-1.2,0.2-1.9,0.5l0,0.3c0,0.1,0,0.2,0,0.3
		c0,0.1-0.1,0.2-0.2,0.2l-1.5,0c-0.1,0-0.2-0.1-0.2-0.2l-0.1-2.5c0-0.1,0.1-0.2,0.2-0.2l1.5-0.2c0.1,0,0.2,0.1,0.2,0.2v0.7
		C272,207.8,273,207.6,273.9,207.6z M272.3,216.3c0.7,0,1.4-0.2,2.2-0.6c0-0.4,0-0.8,0-1.3c0-0.5,0-0.9,0-1.4
		c-1.5,0-2.6,0.1-3.2,0.4c-0.5,0.2-0.8,0.6-0.8,1.2C270.5,215.7,271.1,216.3,272.3,216.3z"/>
	<path class="st1" d="M288,207.6c0.2,0,0.2,0.1,0.3,0.3l-0.1,1.4c0,0.1-0.1,0.2-0.2,0.2l-1.6-0.3c0.6,0.7,0.9,1.3,0.9,1.8
		c0,0.5-0.1,1-0.2,1.4c-0.1,0.4-0.4,0.8-0.7,1.1c-0.6,0.6-1.7,0.9-3,0.9c-0.5,0-1-0.1-1.5-0.2c-0.1,0.3-0.2,0.6-0.2,0.8
		c0,0.2,0,0.3,0,0.4c0,0.1,0.1,0.2,0.2,0.2c0.2,0.1,0.4,0.1,0.7,0.1c0.3,0,0.6,0,0.9,0c0.7,0,1.3-0.1,1.8-0.1c0.4,0,0.8,0.1,1.2,0.2
		c0.4,0.1,0.6,0.3,0.9,0.6c0.4,0.5,0.6,1.1,0.6,1.9c0,1-0.4,1.7-1.1,2.3c-0.8,0.7-2,1-3.5,1c-1.3,0-2.2-0.2-2.8-0.5
		c-0.7-0.4-1-0.9-1-1.7c0-0.7,0.3-1.6,1-2.4c-0.5-0.3-0.7-0.7-0.7-1.3c0-0.6,0.3-1.3,1-2.1c-0.9-0.5-1.4-1.5-1.4-2.8
		c0-1.2,0.4-2.1,1.2-2.7c0.7-0.6,1.6-0.8,2.8-0.8c0.6,0,1.2,0,1.7,0C286.4,207.6,287.4,207.6,288,207.6z M285.4,211.7
		c0.1-0.2,0.1-0.5,0.1-0.7s0-0.5-0.1-0.7c-0.1-0.2-0.2-0.4-0.4-0.6c-0.3-0.3-0.8-0.5-1.5-0.5c-1,0-1.7,0.4-2,1.1
		c-0.1,0.3-0.2,0.6-0.2,0.9c0,1.2,0.7,1.8,2.2,1.8C284.6,212.8,285.2,212.5,285.4,211.7z M284.7,217.5l-2.4,0.1c-0.2,0-0.4,0-0.6,0
		c-0.2,0.5-0.3,0.9-0.3,1.4c0,0.5,0.2,0.8,0.5,0.9c0.4,0.2,0.8,0.3,1.4,0.3c0.6,0,1.1,0,1.4-0.1c0.3-0.1,0.6-0.2,0.8-0.3
		c0.5-0.3,0.7-0.6,0.7-1c0-0.4-0.1-0.6-0.2-0.8C285.8,217.6,285.3,217.5,284.7,217.5z"/>
	<path class="st1" d="M296.7,217.5c-0.7,0.2-1.7,0.3-2.8,0.3c-1.2,0-2-0.4-2.5-1.1c-0.6-0.7-0.8-1.9-0.8-3.6c0-1.7,0.2-3,0.7-3.8
		c0.5-0.9,1.4-1.5,2.6-1.7c0.4-0.1,0.9-0.1,1.4-0.1c1.1,0,1.9,0.3,2.3,0.8c0.5,0.5,0.7,1.3,0.7,2.4c0,0.7-0.1,1.3-0.4,1.6
		c-0.1,0.1-0.2,0.3-0.3,0.4c-0.1,0.2-0.4,0.3-0.8,0.4c-0.4,0.1-0.8,0.2-1.3,0.3c-0.7,0.1-1.8,0.1-3.1,0.1c0.1,1,0.3,1.6,0.7,2
		c0.3,0.3,0.8,0.4,1.6,0.4c0.7,0,1.4-0.1,2.1-0.2l0-0.5c0-0.1,0-0.1,0-0.1c0,0,0.1,0,0.1-0.1l1.3-0.3c0.1,0,0.2,0.1,0.2,0.2
		c0,0.1,0,0.3,0.1,0.6c0,0.3,0,0.5,0.1,0.7s0,0.4,0,0.6l0,0.5c0,0.1,0,0.3,0,0.4c0,0.2-0.1,0.3-0.4,0.3l-1.4,0.2
		c-0.1,0-0.2-0.1-0.2-0.2L296.7,217.5z M296.1,211.3c0-0.2,0-0.4,0-0.6c0-0.2,0-0.5-0.1-0.6c0-0.2-0.1-0.3-0.2-0.5
		c-0.2-0.3-0.6-0.4-1.1-0.4c-1,0-1.6,0.2-2,0.7c-0.3,0.5-0.5,1.3-0.5,2.4c2,0,3.2-0.2,3.6-0.5C296,211.7,296.1,211.5,296.1,211.3z"
		/>
	<path class="st1" d="M318.5,206c0,0.1-0.1,0.2-0.2,0.2l-1.1,0l0,11c0,0.2-0.1,0.2-0.2,0.3l-2.1,0.1c-0.1,0-0.1-0.1-0.2-0.2
		l-5.1-11.3l0.2,9.5l1.4-0.1c0.1,0,0.1,0.1,0.1,0.2l0.1,1.7c0,0.1-0.1,0.2-0.2,0.2l-4.2,0c-0.1,0-0.1-0.1-0.2-0.2l-0.2-1.5
		c0-0.1,0.1-0.2,0.1-0.2l1.4,0v-9.4l-1.6,0.1c-0.1,0-0.1,0-0.1,0c0,0,0-0.1,0-0.1l0.1-1.5c0-0.1,0.1-0.2,0.2-0.2l3.8-0.2
		c0.2,0,0.3,0.1,0.3,0.2l4.9,11.1l-0.2-9.4l-1.3,0c-0.1,0-0.1,0-0.1,0c0,0,0-0.1,0-0.1l0.1-1.4c0-0.1,0.1-0.2,0.2-0.2l3.9,0
		c0.1,0,0.1,0,0.1,0c0,0,0,0.1,0,0.2L318.5,206z"/>
	<path class="st1" d="M320.6,212.7c0-1,0.1-1.8,0.2-2.5c0.2-0.7,0.4-1.2,0.7-1.6c0.6-0.7,1.6-1.1,2.9-1.1c1,0,1.6,0.1,2.1,0.3
		c0.4,0.2,0.8,0.4,1,0.7c0.3,0.2,0.5,0.6,0.6,0.9c0.4,0.8,0.5,1.8,0.5,3c0,1.2-0.1,2.1-0.2,2.7c-0.2,0.6-0.4,1.2-0.7,1.5
		c-0.6,0.7-1.6,1.1-3,1.1c-1.4,0-2.5-0.3-3.1-1C321,215.9,320.6,214.6,320.6,212.7z M326.5,215.4c0.2-0.2,0.3-0.6,0.4-1
		c0.1-0.4,0.1-0.9,0.1-1.5c0-0.6,0-1.1-0.1-1.5c-0.1-0.4-0.2-0.7-0.3-0.9c-0.1-0.2-0.2-0.4-0.4-0.6c-0.2-0.1-0.3-0.2-0.5-0.3
		c-0.3-0.1-0.6-0.2-1.1-0.2c-0.5,0-0.8,0-1.1,0.1c-0.3,0.1-0.5,0.2-0.7,0.4c-0.3,0.4-0.5,1.3-0.5,2.7c0,1.9,0.5,3,1.5,3.2
		c0.3,0.1,0.7,0.1,1,0.1c0.4,0,0.7,0,0.9-0.1C326.1,215.8,326.4,215.6,326.5,215.4z"/>
	<path class="st1" d="M335.6,217.5c-0.3,0-0.7,0-1.2,0s-1-0.1-1.3-0.2c-0.3-0.1-0.6-0.3-0.8-0.5c-0.4-0.5-0.7-1.3-0.7-2.3
		c0-0.7,0-1.3,0-2c0-0.6,0-1.2,0.1-1.7c0-0.5,0-1,0-1.5l-1.2-0.1c-0.1,0-0.2-0.1-0.2-0.2l0-1c0-0.1,0.1-0.2,0.2-0.2l1.2,0
		c0-0.3,0-0.6,0-0.9l0.1-1.3c0-0.3,0-0.5,0.1-0.5c0,0,0.1-0.1,0.2-0.1l1.6-0.2c0.1,0,0.2,0.1,0.2,0.2c0,0.2,0,0.6-0.1,1.3l-0.1,1.5
		l3.4-0.1c0.1,0,0.2,0.1,0.2,0.2v1.4c0,0.1-0.1,0.2-0.2,0.2l-3.5-0.1c-0.1,1.4-0.1,2.5-0.1,3.5c0,1,0,1.7,0.1,2
		c0,0.3,0.1,0.5,0.2,0.7c0.2,0.3,0.6,0.4,1.3,0.4c0.2,0,0.4,0,0.5,0c0-0.2,0-0.4,0-0.5s0.1-0.2,0.2-0.2l1.5-0.2
		c0.1,0,0.2,0.1,0.2,0.2l0,2.2c0,0.1,0,0.2-0.1,0.2l-1.3,0.2c-0.1,0-0.2-0.1-0.2-0.2L335.6,217.5z"/>
	<path class="st1" d="M344.9,206.2c-0.1,0-0.1-0.1-0.1-0.2l0.1-1.6c0-0.1,0.1-0.2,0.2-0.2l6.4,0.1l0-0.5c0-0.1,0.1-0.2,0.2-0.2
		l1.4-0.1c0.1,0,0.2,0.1,0.2,0.2l0.5,3.7c0,0.1-0.1,0.1-0.2,0.2l-1.6,0.1c-0.2,0-0.4-0.1-0.4-0.3l0-1.2L348,206l-0.1,4.1l4.5,0
		c0.1,0,0.2,0.1,0.2,0.2l-0.1,1.4c0,0.1-0.1,0.2-0.2,0.2l-4.4-0.1l-0.1,3.9l2.2-0.1c0.1,0,0.2,0.1,0.2,0.2l0.1,1.5
		c0,0.1,0,0.1,0,0.2c0,0-0.1,0-0.1,0l-5.2,0.1c-0.1,0-0.1,0-0.2,0c0,0-0.1-0.1-0.1-0.1l-0.1-1.6c0-0.1,0.1-0.2,0.2-0.2l1.1,0.1
		l0.1-9.6L344.9,206.2z"/>
	<path class="st1" d="M355.7,212.7c0-1,0.1-1.8,0.2-2.5c0.2-0.7,0.4-1.2,0.7-1.6c0.6-0.7,1.6-1.1,2.9-1.1c1,0,1.6,0.1,2.1,0.3
		c0.4,0.2,0.8,0.4,1,0.7c0.3,0.2,0.5,0.6,0.6,0.9c0.4,0.8,0.5,1.8,0.5,3c0,1.2-0.1,2.1-0.2,2.7c-0.2,0.6-0.4,1.2-0.7,1.5
		c-0.6,0.7-1.6,1.1-3,1.1c-1.4,0-2.5-0.3-3.1-1C356.1,215.9,355.7,214.6,355.7,212.7z M361.6,215.4c0.2-0.2,0.3-0.6,0.4-1
		c0.1-0.4,0.1-0.9,0.1-1.5c0-0.6,0-1.1-0.1-1.5c-0.1-0.4-0.2-0.7-0.3-0.9c-0.1-0.2-0.2-0.4-0.4-0.6c-0.2-0.1-0.3-0.2-0.5-0.3
		c-0.3-0.1-0.6-0.2-1.1-0.2c-0.5,0-0.8,0-1.1,0.1c-0.3,0.1-0.5,0.2-0.7,0.4c-0.3,0.4-0.5,1.3-0.5,2.7c0,1.9,0.5,3,1.5,3.2
		c0.3,0.1,0.7,0.1,1,0.1s0.7,0,0.9-0.1C361.2,215.8,361.4,215.6,361.6,215.4z"/>
	<path class="st1" d="M374.1,208c0.1,0,0.1,0.1,0.1,0.2l0.1,7.3l1.2,0c0.1,0,0.2,0.1,0.2,0.2l-0.2,1.6c0,0.1-0.1,0.2-0.2,0.2h-2.1
		c-0.2,0-0.3-0.1-0.4-0.3l-0.2-0.9c-1,0.8-2,1.2-3.3,1.2c-1.7,0-2.6-1.1-2.6-3.3c0-0.8,0-1.6,0.1-2.5l0.2-2l-1.1,0
		c-0.1,0-0.2-0.1-0.2-0.2l0.2-1.5c0-0.1,0-0.1,0.1-0.1c0,0,0.1,0,0.1,0l2.8,0.1c0.1,0,0.1,0.1,0.1,0.2c0,0.3-0.1,0.6-0.1,0.9
		c-0.2,2.6-0.4,4.2-0.4,4.8s0.1,1.1,0.3,1.3c0.2,0.3,0.6,0.4,1.3,0.4c0.6,0,1.4-0.3,2.3-0.9v-5l-1.1-0.1c-0.1,0-0.1-0.1-0.1-0.1
		l0.2-1.4c0-0.1,0.1-0.2,0.2-0.2L374.1,208z"/>
	<path class="st1" d="M383.2,209.7c-0.7,0-1.6,0.3-2.5,0.9l0.1,5.2l0.9-0.1c0.1,0,0.1,0,0.1,0.1l-0.2,1.3c0,0.1-0.1,0.2-0.2,0.2
		h-3.6c-0.1,0-0.1-0.1-0.1-0.2l0.2-1.3c0-0.1,0.1-0.2,0.2-0.2h0.7v-5.7l-1.3,0c-0.1,0-0.2-0.1-0.2-0.2l0.2-1.5
		c0-0.1,0.1-0.2,0.2-0.2l2.4-0.4c0.1,0,0.2,0.1,0.2,0.2v1.5c1.2-1.2,2.4-1.8,3.5-1.8c1.3,0,2.1,0.6,2.4,1.9c0.1,0.4,0.1,0.8,0.1,1.2
		c0,0.4,0,0.7,0,0.9c0,0.2,0,0.5,0,0.8l0,0.9c0,0.3,0,0.6,0,1l0,0.9c0,0.3,0,0.6,0,0.8l1,0c0.1,0,0.2,0.1,0.2,0.2v1.3
		c0,0.1,0,0.1,0,0.1c0,0-0.1,0-0.2,0l-2.5,0.2c-0.1,0-0.2-0.1-0.2-0.2c0-0.6,0-1.2,0-1.8l0-1.5c0-0.4,0-0.8,0-1.2v-1.6
		c0-0.7-0.1-1.2-0.2-1.4c-0.1-0.2-0.3-0.3-0.4-0.4C383.6,209.7,383.4,209.7,383.2,209.7z"/>
	<path class="st1" d="M394.4,205.3c-0.1,0-0.2-0.1-0.2-0.2l0.1-1.4c0-0.1,0.1-0.2,0.2-0.2l3,0.2c0.1,0,0.2,0.1,0.2,0.2v12.2l0.9-0.1
		c0.1,0,0.2,0.1,0.2,0.2l-0.2,1.3c0,0.1-0.1,0.2-0.2,0.2l-2.2,0.3c-0.1,0-0.2-0.1-0.2-0.2l0.1-0.9c-1,0.4-1.8,0.6-2.6,0.6
		c-0.8,0-1.4-0.1-1.9-0.3c-0.5-0.2-0.8-0.5-1.1-0.9c-0.5-0.8-0.8-2-0.8-3.8c0-2.6,0.7-4.1,2-4.7c0.4-0.2,1.1-0.3,1.8-0.3
		c0.8,0,1.6,0.2,2.4,0.5l-0.1-2.7L394.4,205.3z M396,209.8c-0.8-0.2-1.5-0.3-2-0.3c-0.5,0-0.9,0-1.2,0.1c-0.3,0.1-0.5,0.2-0.7,0.5
		c-0.3,0.4-0.5,1.3-0.5,2.5c0,1.2,0.1,2.1,0.4,2.5c0.3,0.5,0.8,0.7,1.7,0.7c0.7,0,1.4-0.1,2.2-0.3L396,209.8z"/>
	<path class="st1" d="M402.9,209.2c0.1,0.2,0.1,0.3,0.2,0.5c0,0.2,0,0.3,0,0.5c0,0.2-0.1,0.3-0.2,0.4c-0.1,0.1-0.2,0.2-0.4,0.3
		c-0.3,0.2-0.7,0.3-1,0.3c-0.3,0-0.5-0.1-0.7-0.2c-0.1-0.1-0.2-0.2-0.3-0.4c-0.1-0.3-0.2-0.6-0.2-0.9c0-0.3,0.1-0.5,0.2-0.6
		c0.1-0.1,0.3-0.2,0.5-0.3c0.3-0.1,0.6-0.2,1-0.2c0.3,0,0.5,0.1,0.7,0.2C402.8,208.9,402.9,209.1,402.9,209.2z M402.9,215.9
		c0.1,0.2,0.1,0.3,0.2,0.5c0,0.2,0,0.3,0,0.5c0,0.2-0.1,0.3-0.2,0.4c-0.1,0.1-0.2,0.2-0.4,0.3c-0.3,0.2-0.7,0.3-1,0.3
		c-0.3,0-0.5-0.1-0.7-0.2c-0.1-0.1-0.2-0.2-0.3-0.4c-0.1-0.3-0.2-0.6-0.2-0.9c0-0.3,0.1-0.5,0.2-0.6c0.1-0.1,0.3-0.2,0.5-0.3
		c0.3-0.1,0.6-0.2,1-0.2c0.3,0,0.5,0.1,0.7,0.2C402.8,215.6,402.9,215.7,402.9,215.9z"/>
	<path class="st1" d="M407.7,215.7c0.1,0.7,0.3,1.2,0.5,1.5c0.2,0.3,0.4,0.4,0.6,0.4c0.2,0,0.4,0,0.6,0c0.1,0,0.2,0.1,0.2,0.2
		l-0.1,1.3c0,0.1-0.1,0.2-0.2,0.2c-0.3,0-0.5,0-0.7,0c-1.1,0-1.8-0.7-2.3-2c-0.4-1.2-0.6-3.1-0.6-5.7c0-2.7,0.2-4.7,0.7-6
		c0.5-1.4,1.4-2.1,2.6-2.1c0.4,0,0.6,0,0.7,0c0,0,0,0.1,0,0.1l0.1,1.4c0,0.1,0,0.2-0.1,0.2c-0.1,0-0.2,0-0.3,0c-0.4,0-0.7,0.1-1,0.4
		c-0.2,0.2-0.4,0.6-0.6,1.1c-0.2,0.8-0.3,2.4-0.3,4.7C407.5,213.5,407.5,215,407.7,215.7z"/>
</g>
<g>
	<path class="st2" d="M169.4,205.3c-0.2,0-0.2-0.1-0.2-0.3l0.1-1.5c0-0.1,0-0.2,0.1-0.2c0,0,0.1,0,0.2,0l4-0.2c0.1,0,0.2,0,0.2,0.1
		c0,0,0,0.1,0,0.2l0.1,1.4c0,0.1,0,0.2-0.1,0.2c0,0-0.1,0-0.2,0l-1.4,0l2,8.7l2.1-10.2c0-0.1,0.1-0.2,0.2-0.2l1.3-0.1
		c0.1,0,0.2,0.1,0.2,0.2l2.3,10.3l1.7-8.7l-1.3,0c-0.1,0-0.1,0-0.1,0c0,0,0-0.1-0.1-0.2l0-1.4c0-0.2,0.1-0.2,0.3-0.3l3.9,0.1
		c0.1,0,0.2,0.1,0.2,0.3l-0.1,1.4c0,0.1,0,0.2-0.1,0.2c0,0-0.1,0.1-0.2,0.1l-0.8,0l-2.7,11.3c0,0.1-0.1,0.2-0.2,0.2l-1.4,0.1
		c-0.1,0-0.2-0.1-0.2-0.2l-2.1-9.3l-2,9.2c0,0.1-0.1,0.2-0.2,0.2l-1.5,0.1c-0.1,0-0.2-0.1-0.2-0.2l-2.9-11.2L169.4,205.3z"/>
	<path class="st2" d="M193.4,210.4c0-1.3-0.5-1.9-1.4-1.9c-0.5,0-1.1,0.1-1.8,0.4c-0.2,0.1-0.4,0.2-0.6,0.3l0,5.7l1.1,0.1
		c0.1,0,0.1,0.1,0.1,0.2l-0.2,1.1c0,0.1-0.1,0.2-0.2,0.2l-3.7,0.1c-0.1,0-0.1-0.1-0.1-0.2l0.2-1.5c0-0.1,0-0.1,0.1-0.1
		c0,0,0.1,0,0.1,0l0.7,0.1v-7.2l0.2-3.2l-1.2,0.1c-0.1,0-0.2-0.1-0.2-0.2v-1.3c0-0.1,0.1-0.2,0.2-0.2l2.9-0.1c0.1,0,0.2,0.1,0.2,0.2
		l-0.2,4.8c1-0.7,2.1-1,3.1-1c1.4,0,2.2,0.8,2.5,2.3c0.1,0.5,0.1,1.2,0.1,2.1c0,0.9-0.1,2.2-0.2,3.9l1-0.1c0.1,0,0.2,0.1,0.2,0.2
		v1.3c0,0.1-0.1,0.2-0.2,0.2l-3.7,0.1c-0.1,0-0.1-0.1-0.1-0.2l0.2-1.2c0-0.1,0-0.1,0.1-0.1c0,0,0.1,0,0.1,0l0.7,0c0-0.3,0-0.7,0-1.2
		v-1.3c0-0.4,0-0.8,0-1.2V210.4z"/>
	<path class="st2" d="M198.9,211.7c0-1,0.1-1.8,0.2-2.5c0.2-0.7,0.4-1.2,0.7-1.6c0.6-0.7,1.6-1.1,2.9-1.1c1,0,1.6,0.1,2.1,0.3
		c0.4,0.2,0.8,0.4,1,0.7c0.3,0.2,0.5,0.6,0.6,0.9c0.4,0.8,0.5,1.8,0.5,3c0,1.2-0.1,2.1-0.2,2.7c-0.2,0.6-0.4,1.2-0.7,1.5
		c-0.6,0.7-1.6,1.1-3,1.1c-1.4,0-2.5-0.3-3.1-1C199.2,214.9,198.9,213.6,198.9,211.7z M204.8,214.4c0.2-0.2,0.3-0.6,0.4-1
		c0.1-0.4,0.1-0.9,0.1-1.5c0-0.6,0-1.1-0.1-1.5c-0.1-0.4-0.2-0.7-0.3-0.9c-0.1-0.2-0.2-0.4-0.4-0.6c-0.2-0.1-0.3-0.2-0.5-0.3
		c-0.3-0.1-0.6-0.2-1.1-0.2c-0.5,0-0.8,0-1.1,0.1c-0.3,0.1-0.5,0.2-0.7,0.4c-0.3,0.4-0.5,1.3-0.5,2.7c0,1.9,0.5,3,1.5,3.2
		c0.3,0.1,0.7,0.1,1,0.1c0.4,0,0.7,0,0.9-0.1C204.4,214.8,204.6,214.6,204.8,214.4z"/>
	<path class="st2" d="M209.7,211.7c0-1,0.1-1.8,0.2-2.5c0.2-0.7,0.4-1.2,0.7-1.6c0.6-0.7,1.6-1.1,2.9-1.1c1,0,1.6,0.1,2.1,0.3
		c0.4,0.2,0.8,0.4,1,0.7c0.3,0.2,0.5,0.6,0.6,0.9c0.4,0.8,0.5,1.8,0.5,3c0,1.2-0.1,2.1-0.2,2.7c-0.2,0.6-0.4,1.2-0.7,1.5
		c-0.6,0.7-1.6,1.1-3,1.1c-1.4,0-2.5-0.3-3.1-1C210.1,214.9,209.7,213.6,209.7,211.7z M215.6,214.4c0.2-0.2,0.3-0.6,0.4-1
		c0.1-0.4,0.1-0.9,0.1-1.5c0-0.6,0-1.1-0.1-1.5c-0.1-0.4-0.2-0.7-0.3-0.9c-0.1-0.2-0.2-0.4-0.4-0.6c-0.2-0.1-0.3-0.2-0.5-0.3
		c-0.3-0.1-0.6-0.2-1.1-0.2c-0.5,0-0.8,0-1.1,0.1c-0.3,0.1-0.5,0.2-0.7,0.4c-0.3,0.4-0.5,1.3-0.5,2.7c0,1.9,0.5,3,1.5,3.2
		c0.3,0.1,0.7,0.1,1,0.1c0.4,0,0.7,0,0.9-0.1C215.2,214.8,215.4,214.6,215.6,214.4z"/>
	<path class="st2" d="M220.5,220.5c-0.1,0-0.2-0.1-0.2-0.2l0.1-1.4c0-0.1,0-0.1,0.1-0.1c0,0,0.1,0,0.1,0l0.6,0.1v-10.2l-1.4,0.1
		c-0.1,0-0.2-0.1-0.2-0.2l0-1.8c0-0.1,0.1-0.2,0.2-0.2l2.4,0.1c0.1,0,0.2,0.1,0.2,0.2l0.1,0.6c1-0.6,1.9-0.8,2.7-0.8
		c0.8,0,1.4,0.1,1.9,0.3c0.5,0.2,0.9,0.5,1.1,0.9c0.5,0.8,0.8,2,0.8,3.8c0,2.5-0.7,4-2,4.6c-0.4,0.2-1,0.3-1.8,0.3
		c-0.7,0-1.5-0.1-2.3-0.4l0.1,2.8l1.6-0.1c0.1,0,0.2,0.1,0.2,0.2l-0.1,1.3c0,0.1-0.1,0.2-0.2,0.2L220.5,220.5z M222.8,214.5
		c0.7,0.2,1.3,0.3,1.9,0.3c0.5,0,0.9,0,1.2-0.1c0.3-0.1,0.5-0.2,0.7-0.5c0.3-0.4,0.5-1.3,0.5-2.5c0-1.2-0.1-2-0.4-2.5
		c-0.3-0.5-0.8-0.7-1.7-0.7c-0.6,0-1.2,0.1-2,0.4L222.8,214.5z"/>
	<path class="st2" d="M237.9,209.1c-1.6-0.5-2.7-0.8-3.3-0.8c-0.7,0-1.2,0.2-1.4,0.5c-0.1,0.1-0.1,0.3-0.1,0.5c0,0.2,0,0.4,0.1,0.5
		c0,0.1,0.1,0.3,0.3,0.4c0.2,0.2,0.7,0.4,1.4,0.5c0.7,0.1,1.3,0.2,1.8,0.4c0.5,0.1,0.9,0.3,1.3,0.5c0.3,0.2,0.5,0.5,0.7,0.8
		c0.1,0.3,0.2,0.7,0.2,1.2c0,0.5-0.1,0.9-0.2,1.3c-0.1,0.4-0.4,0.7-0.6,1c-0.5,0.5-1.3,0.8-2.2,0.8c-0.7,0-1.4-0.1-2.3-0.2l0.1,0.7
		c0,0.1-0.1,0.1-0.2,0.2l-1.5,0.1c-0.2,0-0.3-0.1-0.4-0.3l-0.2-2.6c0-0.1,0.1-0.2,0.2-0.2l1.4-0.2c0.1,0,0.2,0.1,0.2,0.2l0.1,0.6
		c0.8,0.1,1.5,0.2,2.1,0.2c0.5,0,1-0.1,1.2-0.3c0.3-0.2,0.4-0.5,0.4-0.9c0-0.4-0.1-0.6-0.4-0.8c-0.2-0.1-0.7-0.3-1.5-0.4
		c-0.7-0.1-1.3-0.2-1.8-0.4c-0.5-0.1-0.9-0.3-1.2-0.5c-0.6-0.4-0.9-1.2-0.9-2.2c0-0.9,0.3-1.6,0.8-2.1c0.6-0.6,1.4-0.8,2.4-0.8
		c0.6,0,1.3,0.2,2.1,0.6l-0.2-0.7c0-0.1,0.1-0.2,0.2-0.2l1.7-0.1c0.1,0,0.1,0.1,0.1,0.2L238,209C238,209.1,238,209.1,237.9,209.1z"
		/>
	<path class="st2" d="M243.1,214.9c0.1,0.2,0.1,0.3,0.2,0.5c0,0.2,0,0.3,0,0.5c0,0.2-0.1,0.3-0.2,0.4c-0.1,0.1-0.2,0.2-0.4,0.3
		c-0.3,0.2-0.7,0.3-1,0.3c-0.3,0-0.5-0.1-0.7-0.2c-0.1-0.1-0.2-0.2-0.3-0.4c-0.1-0.3-0.2-0.6-0.2-0.9c0-0.3,0.1-0.5,0.2-0.6
		c0.1-0.1,0.3-0.2,0.5-0.3c0.3-0.1,0.6-0.2,1-0.2c0.3,0,0.5,0.1,0.7,0.2C242.9,214.6,243,214.7,243.1,214.9z"/>
	<path class="st2" d="M248,214.9c0.1,0.2,0.1,0.3,0.2,0.5c0,0.2,0,0.3,0,0.5c0,0.2-0.1,0.3-0.2,0.4c-0.1,0.1-0.2,0.2-0.4,0.3
		c-0.3,0.2-0.7,0.3-1,0.3c-0.3,0-0.5-0.1-0.7-0.2c-0.1-0.1-0.2-0.2-0.3-0.4c-0.1-0.3-0.2-0.6-0.2-0.9c0-0.3,0.1-0.5,0.2-0.6
		c0.1-0.1,0.3-0.2,0.5-0.3c0.3-0.1,0.6-0.2,1-0.2c0.3,0,0.5,0.1,0.7,0.2C247.8,214.6,247.9,214.7,248,214.9z"/>
	<path class="st2" d="M252.9,214.9c0.1,0.2,0.1,0.3,0.2,0.5c0,0.2,0,0.3,0,0.5c0,0.2-0.1,0.3-0.2,0.4c-0.1,0.1-0.2,0.2-0.4,0.3
		c-0.3,0.2-0.7,0.3-1,0.3c-0.3,0-0.5-0.1-0.7-0.2c-0.1-0.1-0.2-0.2-0.3-0.4c-0.1-0.3-0.2-0.6-0.2-0.9c0-0.3,0.1-0.5,0.2-0.6
		c0.1-0.1,0.3-0.2,0.5-0.3c0.3-0.1,0.6-0.2,1-0.2c0.3,0,0.5,0.1,0.7,0.2C252.7,214.6,252.8,214.7,252.9,214.9z"/>
	<path class="st2" d="M260.7,214.7c0.1,0,0.1,0.1,0.1,0.2l-0.1,1.4c0,0.1-0.1,0.2-0.2,0.2l-5,0.1c-0.1,0-0.2-0.1-0.2-0.2l0-1.5
		c0-0.1,0-0.1,0.1-0.2l1.4,0.1V205l-1.4,0.1c-0.1,0-0.1,0-0.2-0.1c0,0-0.1-0.1-0.1-0.2l0.1-1.2c0-0.2,0.1-0.2,0.2-0.3
		c0.2,0,0.3-0.1,0.6-0.1c0.2,0,0.5-0.1,0.8-0.1c0.3,0,0.6-0.1,0.9-0.1c0.3,0,0.6,0,0.9-0.1c0.7,0,1.3,0,2,0c0.6,0,1.3,0.1,1.9,0.2
		c0.6,0.2,1.1,0.4,1.6,0.7c0.8,0.7,1.2,1.7,1.2,3.2c0,2.1-1,3.3-2.9,3.7c-0.6,0.1-1.2,0.2-1.9,0.2c-0.7,0-1.4,0-2-0.1v3.8
		L260.7,214.7z M258.8,209.4c0.6,0.1,1.1,0.1,1.7,0.1s1,0,1.4-0.1c0.4-0.1,0.7-0.2,1-0.4c0.6-0.4,0.8-1,0.8-1.9
		c0-1.6-0.9-2.4-2.6-2.4c-0.7,0-1.4,0-2.2,0.1V209.4z"/>
	<path class="st2" d="M272.9,206.6c1.7,0,2.6,1.1,2.6,3.2c0,0.5,0,1.2,0,2l-0.1,1.7c0,0.3,0,0.7,0,1l0,0.8l0.5,0
		c0.2,0,0.4,0,0.7-0.1c0.1,0,0.2,0.1,0.2,0.2l-0.2,1.4c0,0.1-0.1,0.2-0.2,0.2l-2.5,0.2c-0.1,0-0.1-0.1-0.1-0.2l0.1-1
		c-1,0.7-2,1.1-3.2,1.1c-0.9,0-1.6-0.3-2.2-0.8c-0.6-0.5-0.9-1.3-0.9-2.2c0-1.2,0.4-2,1.2-2.5c0.7-0.4,1.9-0.6,3.6-0.6
		c0.3,0,0.7,0,1.1,0c0-0.2,0-0.3,0-0.4V210c0-1.1-0.5-1.7-1.5-1.7c-0.5,0-1.2,0.2-1.9,0.5l0,0.3c0,0.1,0,0.2,0,0.3
		c0,0.1-0.1,0.2-0.2,0.2l-1.5,0c-0.1,0-0.2-0.1-0.2-0.2l-0.1-2.5c0-0.1,0.1-0.2,0.2-0.2l1.5-0.2c0.1,0,0.2,0.1,0.2,0.2v0.7
		C271,206.8,272,206.6,272.9,206.6z M271.3,215.3c0.7,0,1.4-0.2,2.2-0.6c0-0.4,0-0.8,0-1.3c0-0.5,0-0.9,0-1.4
		c-1.5,0-2.6,0.1-3.2,0.4c-0.5,0.2-0.8,0.6-0.8,1.2C269.5,214.7,270.1,215.3,271.3,215.3z"/>
	<path class="st2" d="M287,206.6c0.2,0,0.2,0.1,0.3,0.3l-0.1,1.4c0,0.1-0.1,0.2-0.2,0.2l-1.6-0.3c0.6,0.7,0.9,1.3,0.9,1.8
		c0,0.5-0.1,1-0.2,1.4c-0.1,0.4-0.4,0.8-0.7,1.1c-0.6,0.6-1.7,0.9-3,0.9c-0.5,0-1-0.1-1.5-0.2c-0.1,0.3-0.2,0.6-0.2,0.8
		c0,0.2,0,0.3,0,0.4c0,0.1,0.1,0.2,0.2,0.2c0.2,0.1,0.4,0.1,0.7,0.1c0.3,0,0.6,0,0.9,0c0.7,0,1.3-0.1,1.8-0.1c0.4,0,0.8,0.1,1.2,0.2
		c0.4,0.1,0.6,0.3,0.9,0.6c0.4,0.5,0.6,1.1,0.6,1.9c0,1-0.4,1.7-1.1,2.3c-0.8,0.7-2,1-3.5,1c-1.3,0-2.2-0.2-2.8-0.5
		c-0.7-0.4-1-0.9-1-1.7c0-0.7,0.3-1.6,1-2.4c-0.5-0.3-0.7-0.7-0.7-1.3c0-0.6,0.3-1.3,1-2.1c-0.9-0.5-1.4-1.5-1.4-2.8
		c0-1.2,0.4-2.1,1.2-2.7c0.7-0.6,1.6-0.8,2.8-0.8c0.6,0,1.2,0,1.7,0C285.4,206.6,286.4,206.6,287,206.6z M284.4,210.7
		c0.1-0.2,0.1-0.5,0.1-0.7s0-0.5-0.1-0.7c-0.1-0.2-0.2-0.4-0.4-0.6c-0.3-0.3-0.8-0.5-1.5-0.5c-1,0-1.7,0.4-2,1.1
		c-0.1,0.3-0.2,0.6-0.2,0.9c0,1.2,0.7,1.8,2.2,1.8C283.6,211.8,284.2,211.5,284.4,210.7z M283.7,216.5l-2.4,0.1c-0.2,0-0.4,0-0.6,0
		c-0.2,0.5-0.3,0.9-0.3,1.4c0,0.5,0.2,0.8,0.5,0.9c0.4,0.2,0.8,0.3,1.4,0.3c0.6,0,1.1,0,1.4-0.1c0.3-0.1,0.6-0.2,0.8-0.3
		c0.5-0.3,0.7-0.6,0.7-1c0-0.4-0.1-0.6-0.2-0.8C284.8,216.6,284.3,216.5,283.7,216.5z"/>
	<path class="st2" d="M295.7,216.5c-0.7,0.2-1.7,0.3-2.8,0.3c-1.2,0-2-0.4-2.5-1.1c-0.6-0.7-0.8-1.9-0.8-3.6c0-1.7,0.2-3,0.7-3.8
		c0.5-0.9,1.4-1.5,2.6-1.7c0.4-0.1,0.9-0.1,1.4-0.1c1.1,0,1.9,0.3,2.3,0.8c0.5,0.5,0.7,1.3,0.7,2.4c0,0.7-0.1,1.3-0.4,1.6
		c-0.1,0.1-0.2,0.3-0.3,0.4c-0.1,0.2-0.4,0.3-0.8,0.4c-0.4,0.1-0.8,0.2-1.3,0.3c-0.7,0.1-1.8,0.1-3.1,0.1c0.1,1,0.3,1.6,0.7,2
		c0.3,0.3,0.8,0.4,1.6,0.4c0.7,0,1.4-0.1,2.1-0.2l0-0.5c0-0.1,0-0.1,0-0.1c0,0,0.1,0,0.1-0.1l1.3-0.3c0.1,0,0.2,0.1,0.2,0.2
		c0,0.1,0,0.3,0.1,0.6c0,0.3,0,0.5,0.1,0.7s0,0.4,0,0.6l0,0.5c0,0.1,0,0.3,0,0.4c0,0.2-0.1,0.3-0.4,0.3l-1.4,0.2
		c-0.1,0-0.2-0.1-0.2-0.2L295.7,216.5z M295.1,210.3c0-0.2,0-0.4,0-0.6c0-0.2,0-0.5-0.1-0.6c0-0.2-0.1-0.3-0.2-0.5
		c-0.2-0.3-0.6-0.4-1.1-0.4c-1,0-1.6,0.2-2,0.7c-0.3,0.5-0.5,1.3-0.5,2.4c2,0,3.2-0.2,3.6-0.5C295,210.7,295.1,210.5,295.1,210.3z"
		/>
	<path class="st2" d="M317.5,205c0,0.1-0.1,0.2-0.2,0.2l-1.1,0l0,11c0,0.2-0.1,0.2-0.2,0.3l-2.1,0.1c-0.1,0-0.1-0.1-0.2-0.2
		l-5.1-11.3l0.2,9.5l1.4-0.1c0.1,0,0.1,0.1,0.1,0.2l0.1,1.7c0,0.1-0.1,0.2-0.2,0.2l-4.2,0c-0.1,0-0.1-0.1-0.2-0.2l-0.2-1.5
		c0-0.1,0.1-0.2,0.1-0.2l1.4,0v-9.4l-1.6,0.1c-0.1,0-0.1,0-0.1,0c0,0,0-0.1,0-0.1l0.1-1.5c0-0.1,0.1-0.2,0.2-0.2l3.8-0.2
		c0.2,0,0.3,0.1,0.3,0.2l4.9,11.1l-0.2-9.4l-1.3,0c-0.1,0-0.1,0-0.1,0c0,0,0-0.1,0-0.1l0.1-1.4c0-0.1,0.1-0.2,0.2-0.2l3.9,0
		c0.1,0,0.1,0,0.1,0c0,0,0,0.1,0,0.2L317.5,205z"/>
	<path class="st2" d="M319.6,211.7c0-1,0.1-1.8,0.2-2.5c0.2-0.7,0.4-1.2,0.7-1.6c0.6-0.7,1.6-1.1,2.9-1.1c1,0,1.6,0.1,2.1,0.3
		c0.4,0.2,0.8,0.4,1,0.7c0.3,0.2,0.5,0.6,0.6,0.9c0.4,0.8,0.5,1.8,0.5,3c0,1.2-0.1,2.1-0.2,2.7c-0.2,0.6-0.4,1.2-0.7,1.5
		c-0.6,0.7-1.6,1.1-3,1.1c-1.4,0-2.5-0.3-3.1-1C320,214.9,319.6,213.6,319.6,211.7z M325.5,214.4c0.2-0.2,0.3-0.6,0.4-1
		c0.1-0.4,0.1-0.9,0.1-1.5c0-0.6,0-1.1-0.1-1.5c-0.1-0.4-0.2-0.7-0.3-0.9c-0.1-0.2-0.2-0.4-0.4-0.6c-0.2-0.1-0.3-0.2-0.5-0.3
		c-0.3-0.1-0.6-0.2-1.1-0.2c-0.5,0-0.8,0-1.1,0.1c-0.3,0.1-0.5,0.2-0.7,0.4c-0.3,0.4-0.5,1.3-0.5,2.7c0,1.9,0.5,3,1.5,3.2
		c0.3,0.1,0.7,0.1,1,0.1c0.4,0,0.7,0,0.9-0.1C325.1,214.8,325.4,214.6,325.5,214.4z"/>
	<path class="st2" d="M334.6,216.5c-0.3,0-0.7,0-1.2,0s-1-0.1-1.3-0.2c-0.3-0.1-0.6-0.3-0.8-0.5c-0.4-0.5-0.7-1.3-0.7-2.3
		c0-0.7,0-1.3,0-2c0-0.6,0-1.2,0.1-1.7c0-0.5,0-1,0-1.5l-1.2-0.1c-0.1,0-0.2-0.1-0.2-0.2l0-1c0-0.1,0.1-0.2,0.2-0.2l1.2,0
		c0-0.3,0-0.6,0-0.9l0.1-1.3c0-0.3,0-0.5,0.1-0.5c0,0,0.1-0.1,0.2-0.1l1.6-0.2c0.1,0,0.2,0.1,0.2,0.2c0,0.2,0,0.6-0.1,1.3l-0.1,1.5
		l3.4-0.1c0.1,0,0.2,0.1,0.2,0.2v1.4c0,0.1-0.1,0.2-0.2,0.2l-3.5-0.1c-0.1,1.4-0.1,2.5-0.1,3.5c0,1,0,1.7,0.1,2
		c0,0.3,0.1,0.5,0.2,0.7c0.2,0.3,0.6,0.4,1.3,0.4c0.2,0,0.4,0,0.5,0c0-0.2,0-0.4,0-0.5s0.1-0.2,0.2-0.2l1.5-0.2
		c0.1,0,0.2,0.1,0.2,0.2l0,2.2c0,0.1,0,0.2-0.1,0.2l-1.3,0.2c-0.1,0-0.2-0.1-0.2-0.2L334.6,216.5z"/>
	<path class="st2" d="M343.9,205.2c-0.1,0-0.1-0.1-0.1-0.2l0.1-1.6c0-0.1,0.1-0.2,0.2-0.2l6.4,0.1l0-0.5c0-0.1,0.1-0.2,0.2-0.2
		l1.4-0.1c0.1,0,0.2,0.1,0.2,0.2l0.5,3.7c0,0.1-0.1,0.1-0.2,0.2l-1.6,0.1c-0.2,0-0.4-0.1-0.4-0.3l0-1.2L347,205l-0.1,4.1l4.5,0
		c0.1,0,0.2,0.1,0.2,0.2l-0.1,1.4c0,0.1-0.1,0.2-0.2,0.2l-4.4-0.1l-0.1,3.9l2.2-0.1c0.1,0,0.2,0.1,0.2,0.2l0.1,1.5
		c0,0.1,0,0.1,0,0.2c0,0-0.1,0-0.1,0l-5.2,0.1c-0.1,0-0.1,0-0.2,0c0,0-0.1-0.1-0.1-0.1l-0.1-1.6c0-0.1,0.1-0.2,0.2-0.2l1.1,0.1
		l0.1-9.6L343.9,205.2z"/>
	<path class="st2" d="M354.7,211.7c0-1,0.1-1.8,0.2-2.5c0.2-0.7,0.4-1.2,0.7-1.6c0.6-0.7,1.6-1.1,2.9-1.1c1,0,1.6,0.1,2.1,0.3
		c0.4,0.2,0.8,0.4,1,0.7c0.3,0.2,0.5,0.6,0.6,0.9c0.4,0.8,0.5,1.8,0.5,3c0,1.2-0.1,2.1-0.2,2.7c-0.2,0.6-0.4,1.2-0.7,1.5
		c-0.6,0.7-1.6,1.1-3,1.1c-1.4,0-2.5-0.3-3.1-1C355.1,214.9,354.7,213.6,354.7,211.7z M360.6,214.4c0.2-0.2,0.3-0.6,0.4-1
		c0.1-0.4,0.1-0.9,0.1-1.5c0-0.6,0-1.1-0.1-1.5c-0.1-0.4-0.2-0.7-0.3-0.9c-0.1-0.2-0.2-0.4-0.4-0.6c-0.2-0.1-0.3-0.2-0.5-0.3
		c-0.3-0.1-0.6-0.2-1.1-0.2c-0.5,0-0.8,0-1.1,0.1c-0.3,0.1-0.5,0.2-0.7,0.4c-0.3,0.4-0.5,1.3-0.5,2.7c0,1.9,0.5,3,1.5,3.2
		c0.3,0.1,0.7,0.1,1,0.1s0.7,0,0.9-0.1C360.2,214.8,360.4,214.6,360.6,214.4z"/>
	<path class="st2" d="M373.1,207c0.1,0,0.1,0.1,0.1,0.2l0.1,7.3l1.2,0c0.1,0,0.2,0.1,0.2,0.2l-0.2,1.6c0,0.1-0.1,0.2-0.2,0.2h-2.1
		c-0.2,0-0.3-0.1-0.4-0.3l-0.2-0.9c-1,0.8-2,1.2-3.3,1.2c-1.7,0-2.6-1.1-2.6-3.3c0-0.8,0-1.6,0.1-2.5l0.2-2l-1.1,0
		c-0.1,0-0.2-0.1-0.2-0.2l0.2-1.5c0-0.1,0-0.1,0.1-0.1c0,0,0.1,0,0.1,0l2.8,0.1c0.1,0,0.1,0.1,0.1,0.2c0,0.3-0.1,0.6-0.1,0.9
		c-0.2,2.6-0.4,4.2-0.4,4.8s0.1,1.1,0.3,1.3c0.2,0.3,0.6,0.4,1.3,0.4c0.6,0,1.4-0.3,2.3-0.9v-5l-1.1-0.1c-0.1,0-0.1-0.1-0.1-0.1
		l0.2-1.4c0-0.1,0.1-0.2,0.2-0.2L373.1,207z"/>
	<path class="st2" d="M382.2,208.7c-0.7,0-1.6,0.3-2.5,0.9l0.1,5.2l0.9-0.1c0.1,0,0.1,0,0.1,0.1l-0.2,1.3c0,0.1-0.1,0.2-0.2,0.2
		h-3.6c-0.1,0-0.1-0.1-0.1-0.2l0.2-1.3c0-0.1,0.1-0.2,0.2-0.2h0.7v-5.7l-1.3,0c-0.1,0-0.2-0.1-0.2-0.2l0.2-1.5
		c0-0.1,0.1-0.2,0.2-0.2l2.4-0.4c0.1,0,0.2,0.1,0.2,0.2v1.5c1.2-1.2,2.4-1.8,3.5-1.8c1.3,0,2.1,0.6,2.4,1.9c0.1,0.4,0.1,0.8,0.1,1.2
		c0,0.4,0,0.7,0,0.9c0,0.2,0,0.5,0,0.8l0,0.9c0,0.3,0,0.6,0,1l0,0.9c0,0.3,0,0.6,0,0.8l1,0c0.1,0,0.2,0.1,0.2,0.2v1.3
		c0,0.1,0,0.1,0,0.1c0,0-0.1,0-0.2,0l-2.5,0.2c-0.1,0-0.2-0.1-0.2-0.2c0-0.6,0-1.2,0-1.8l0-1.5c0-0.4,0-0.8,0-1.2v-1.6
		c0-0.7-0.1-1.2-0.2-1.4c-0.1-0.2-0.3-0.3-0.4-0.4C382.6,208.7,382.4,208.7,382.2,208.7z"/>
	<path class="st2" d="M393.4,204.3c-0.1,0-0.2-0.1-0.2-0.2l0.1-1.4c0-0.1,0.1-0.2,0.2-0.2l3,0.2c0.1,0,0.2,0.1,0.2,0.2v12.2l0.9-0.1
		c0.1,0,0.2,0.1,0.2,0.2l-0.2,1.3c0,0.1-0.1,0.2-0.2,0.2l-2.2,0.3c-0.1,0-0.2-0.1-0.2-0.2l0.1-0.9c-1,0.4-1.8,0.6-2.6,0.6
		c-0.8,0-1.4-0.1-1.9-0.3c-0.5-0.2-0.8-0.5-1.1-0.9c-0.5-0.8-0.8-2-0.8-3.8c0-2.6,0.7-4.1,2-4.7c0.4-0.2,1.1-0.3,1.8-0.3
		c0.8,0,1.6,0.2,2.4,0.5l-0.1-2.7L393.4,204.3z M395,208.8c-0.8-0.2-1.5-0.3-2-0.3c-0.5,0-0.9,0-1.2,0.1c-0.3,0.1-0.5,0.2-0.7,0.5
		c-0.3,0.4-0.5,1.3-0.5,2.5c0,1.2,0.1,2.1,0.4,2.5c0.3,0.5,0.8,0.7,1.7,0.7c0.7,0,1.4-0.1,2.2-0.3L395,208.8z"/>
	<path class="st2" d="M401.9,208.2c0.1,0.2,0.1,0.3,0.2,0.5c0,0.2,0,0.3,0,0.5c0,0.2-0.1,0.3-0.2,0.4c-0.1,0.1-0.2,0.2-0.4,0.3
		c-0.3,0.2-0.7,0.3-1,0.3c-0.3,0-0.5-0.1-0.7-0.2c-0.1-0.1-0.2-0.2-0.3-0.4c-0.1-0.3-0.2-0.6-0.2-0.9c0-0.3,0.1-0.5,0.2-0.6
		c0.1-0.1,0.3-0.2,0.5-0.3c0.3-0.1,0.6-0.2,1-0.2c0.3,0,0.5,0.1,0.7,0.2C401.8,207.9,401.9,208.1,401.9,208.2z M401.9,214.9
		c0.1,0.2,0.1,0.3,0.2,0.5c0,0.2,0,0.3,0,0.5c0,0.2-0.1,0.3-0.2,0.4c-0.1,0.1-0.2,0.2-0.4,0.3c-0.3,0.2-0.7,0.3-1,0.3
		c-0.3,0-0.5-0.1-0.7-0.2c-0.1-0.1-0.2-0.2-0.3-0.4c-0.1-0.3-0.2-0.6-0.2-0.9c0-0.3,0.1-0.5,0.2-0.6c0.1-0.1,0.3-0.2,0.5-0.3
		c0.3-0.1,0.6-0.2,1-0.2c0.3,0,0.5,0.1,0.7,0.2C401.8,214.6,401.9,214.7,401.9,214.9z"/>
	<path class="st2" d="M406.7,214.7c0.1,0.7,0.3,1.2,0.5,1.5c0.2,0.3,0.4,0.4,0.6,0.4c0.2,0,0.4,0,0.6,0c0.1,0,0.2,0.1,0.2,0.2
		l-0.1,1.3c0,0.1-0.1,0.2-0.2,0.2c-0.3,0-0.5,0-0.7,0c-1.1,0-1.8-0.7-2.3-2c-0.4-1.2-0.6-3.1-0.6-5.7c0-2.7,0.2-4.7,0.7-6
		c0.5-1.4,1.4-2.1,2.6-2.1c0.4,0,0.6,0,0.7,0c0,0,0,0.1,0,0.1l0.1,1.4c0,0.1,0,0.2-0.1,0.2c-0.1,0-0.2,0-0.3,0c-0.4,0-0.7,0.1-1,0.4
		c-0.2,0.2-0.4,0.6-0.6,1.1c-0.2,0.8-0.3,2.4-0.3,4.7C406.5,212.5,406.5,214,406.7,214.7z"/>
</g>
<g>
	<polygon class="st3" points="448.8,90.4 408.7,91.4 412.6,76.5 	"/>
</g>
<g>
	<polygon class="st0" points="412.6,76.5 412.6,99.4 458.6,88 	"/>
</g>
<g>
	<polygon class="st3" points="458.6,88 415.3,71.5 415.3,77.2 	"/>
</g>
<g>
	<polygon class="st0" points="415.3,71.5 408.7,64 458.6,88 	"/>
</g>
<g>
	<path class="st0" d="M492.7,146c0,0-3.3,11.3-12,7.3c-8.7-4,6-12.7,6-12.7s-18-0.7-14.7-12.7c3.3-12,14.7-10,20.7-6.7
		c0,0-10-28,16-26s7.3,29.4,7.3,29.4s-1.3-41.8,21.3-33.3c22.7,8.6,8,30.8,8,30.8S524.4,88.6,566.2,84l-0.2,83.3c0,0-18,18-26-5.3
		C540,162,506,184.7,492.7,146z"/>
</g>
<g>
	<path class="st4" d="M132,303c0,0-17.4-8.4-17.8,0c-0.4,8.4,17.8,5.9,17.8,5.9s-2,11.4,8.5,8.4c10.4-3,11-8.8,11-8.8
		s12.3,15.2,21.2,9.3c8.9-5.9,7.9-8.6,7.9-8.6s10.9,17.3,18.3,10c7.4-7.3,3-9.1,3-9.1s25.7,5.2,27.7,0c2-5.2-14.3-6.6-14.3-6.6
		s18.8-13.8-2.5-18.3c-21.3-4.4-14.8,13.8-14.8,13.8s13.8-31.6-14.8-30.7c-28.7,1-11.1,30.7-11.1,30.7s3.3-27.7-20.5-23.2
		s5.9,22.7,5.9,22.7S114.5,283.2,132,303z"/>
</g>
<g>
	<path class="st4" d="M83.5,104.7c0,0-2.7,5.6-12.8,2.9c0,0-3.2,5.9-12.8,0c0,0-23.8,7.8-24.2-2.9c0,0-18.9-5.7-11.1-15.3
		c7.9-9.6,12.9,2.3,12.9,2.3s-9.6-15.5,2.3-17.8c11.9-2.3,8.7,14.2,8.7,14.2s-5-23.3,13.2-16.2c18.3,7.1,0.9,18.6,0.9,18.6
		s4.1-19.7,22.8-11.5s0,14.2,0,14.2c1.5-1.1,3.8-2.4,6.7-3.4c1.8-0.6,13.7-4.7,20.2,1.6c2.6,2.5,4.8,7.1,3.2,9.8
		c-1.8,3.2-8.9,3.9-17.4,0.2C96.3,101.3,106.8,108.1,83.5,104.7z"/>
</g>
<g>
	<g>
		<path class="st4" d="M321.7,267.9c-0.5,0-1-0.2-1.2-0.7c-0.5-0.7-0.3-1.6,0.4-2.1c0.9-0.6,1.9-1.3,2.8-2c0.7-0.5,1.6-0.4,2.1,0.3
			c0.5,0.7,0.4,1.6-0.3,2.1c-1,0.7-1.9,1.5-2.9,2.1C322.2,267.8,322,267.9,321.7,267.9z"/>
	</g>
	<g>
		<path class="st4" d="M296.4,274.9c-0.1,0-0.1,0-0.2,0c-2.5-0.3-4.9-0.9-7.1-1.7c-0.8-0.3-1.1-1.2-0.8-2c0.3-0.8,1.2-1.1,2-0.8
			c1.9,0.8,4.1,1.3,6.3,1.5c0.8,0.1,1.4,0.8,1.3,1.7C297.8,274.3,297.1,274.9,296.4,274.9z M306.2,274.4c-0.7,0-1.3-0.5-1.5-1.2
			c-0.2-0.8,0.4-1.6,1.2-1.8c2.1-0.4,4.3-1,6.4-1.9c0.8-0.3,1.6,0.1,1.9,0.9c0.3,0.8-0.1,1.6-0.9,1.9c-2.3,0.9-4.6,1.6-6.9,2
			C306.4,274.4,306.3,274.4,306.2,274.4z M242.5,267.9c-0.8,0-1.5-0.7-1.5-1.5c0-0.8,0.7-1.5,1.5-1.5c2.2,0,4.6-0.1,6.9-0.2
			c0.8-0.1,1.5,0.6,1.6,1.4c0.1,0.8-0.6,1.5-1.4,1.6C247.2,267.8,244.9,267.9,242.5,267.9C242.6,267.9,242.5,267.9,242.5,267.9z
			 M232.6,267.6c0,0-0.1,0-0.1,0c-2.4-0.2-4.7-0.4-7-0.8c-0.8-0.1-1.4-0.9-1.3-1.7c0.1-0.8,0.9-1.4,1.7-1.3c2.2,0.3,4.5,0.6,6.8,0.7
			c0.8,0.1,1.4,0.8,1.4,1.6C234.1,267,233.4,267.6,232.6,267.6z M281.8,267.4c-0.5,0-0.9-0.2-1.2-0.6c-0.8-1.1-1.6-2.3-2.3-3.6
			c-0.2,0-0.3,0.1-0.4,0.1l-1.6,0.4c-0.8,0.2-1.6-0.3-1.8-1.1c-0.2-0.8,0.3-1.6,1.1-1.8l1.5-0.3c0,0,0,0,0-0.1
			c-0.3-0.8,0.1-1.6,0.9-1.9c0.8-0.3,1.6,0.1,1.9,0.9c0,0.1,0.1,0.3,0.2,0.4c0.7-0.2,1.5-0.4,2.3-0.6c0.8-0.2,1.6,0.3,1.8,1.1
			c0.2,0.8-0.3,1.6-1.1,1.8c-0.6,0.2-1.2,0.3-1.8,0.5c0.5,0.9,1,1.8,1.6,2.5c0.5,0.7,0.4,1.6-0.3,2.1
			C282.4,267.3,282.1,267.4,281.8,267.4z M259.4,266.7c-0.7,0-1.4-0.6-1.5-1.3c-0.1-0.8,0.5-1.6,1.3-1.7c2.2-0.3,4.5-0.6,6.8-1
			c0.8-0.1,1.6,0.4,1.7,1.2c0.1,0.8-0.4,1.6-1.2,1.7c-2.3,0.4-4.7,0.8-6.9,1C259.5,266.7,259.4,266.7,259.4,266.7z M216,264.9
			c-0.1,0-0.2,0-0.4,0c-2.3-0.6-4.6-1.3-6.8-2c-0.8-0.3-1.2-1.1-0.9-1.9c0.3-0.8,1.1-1.2,1.9-0.9c2.1,0.7,4.3,1.4,6.5,1.9
			c0.8,0.2,1.3,1,1.1,1.8C217.3,264.5,216.7,264.9,216,264.9z M200.2,259.1c-0.2,0-0.5-0.1-0.7-0.2c-2.1-1.1-4.2-2.2-6.2-3.5
			c-0.7-0.4-0.9-1.4-0.5-2.1c0.4-0.7,1.4-0.9,2.1-0.5c1.9,1.2,3.9,2.3,5.9,3.3c0.7,0.4,1,1.3,0.7,2
			C201.3,258.8,200.8,259.1,200.2,259.1z M292.1,258.9c-0.6,0-1.1-0.3-1.4-0.9c-0.3-0.8,0.1-1.6,0.8-2c2.3-1,4.3-2,5.9-3
			c0.7-0.5,1.6-0.3,2.1,0.4c0.5,0.7,0.3,1.6-0.4,2.1c-1.7,1.2-3.9,2.3-6.4,3.3C292.5,258.9,292.3,258.9,292.1,258.9z M276.8,251.6
			C276.8,251.6,276.8,251.6,276.8,251.6c-0.9,0-1.5-0.7-1.5-1.5c0.1-2.7,0.6-5.2,1.5-7.3c0.3-0.8,1.2-1.1,2-0.8
			c0.8,0.3,1.1,1.2,0.8,2c-0.8,1.8-1.2,3.9-1.3,6.2C278.3,250.9,277.7,251.6,276.8,251.6z M186.2,249.8c-0.4,0-0.7-0.1-1-0.4
			c-1.8-1.5-3.5-3.2-5.1-4.9c-0.6-0.6-0.5-1.6,0.1-2.1c0.6-0.6,1.6-0.5,2.1,0.1c1.5,1.7,3.2,3.2,4.9,4.7c0.6,0.5,0.7,1.5,0.1,2.1
			C187.1,249.6,186.6,249.8,186.2,249.8z M303.5,247.9c-0.8,0-1.5-0.6-1.5-1.5c-0.1-2.2-1.5-4.3-2.4-5.3c-0.5-0.6-0.5-1.6,0.2-2.1
			c0.6-0.5,1.6-0.5,2.1,0.2c1.4,1.6,3.1,4.2,3.1,7.2C305.1,247.1,304.4,247.8,303.5,247.9C303.6,247.9,303.6,247.9,303.5,247.9z
			 M285.3,238.2c-0.6,0-1.2-0.4-1.4-1c-0.3-0.8,0.1-1.6,0.9-1.9c2.3-0.8,5-1.2,7.5-1c0.8,0.1,1.4,0.8,1.4,1.6
			c-0.1,0.8-0.8,1.4-1.6,1.4c-2.1-0.2-4.3,0.1-6.2,0.8C285.6,238.2,285.4,238.2,285.3,238.2z M175,237.2c-0.5,0-0.9-0.2-1.2-0.6
			c-1.3-1.9-2.6-3.9-3.8-5.9c-0.4-0.7-0.2-1.6,0.5-2.1c0.7-0.4,1.6-0.2,2.1,0.5c1.2,2,2.4,3.9,3.7,5.7c0.5,0.7,0.3,1.6-0.4,2.1
			C175.6,237.1,175.3,237.2,175,237.2z M166.7,222.6c-0.6,0-1.1-0.3-1.4-0.9c-1-2.2-1.8-4.4-2.6-6.6c-0.3-0.8,0.2-1.6,0.9-1.9
			c0.8-0.3,1.6,0.2,1.9,0.9c0.7,2.1,1.5,4.2,2.5,6.3c0.3,0.8,0,1.6-0.8,2C167.1,222.5,166.9,222.6,166.7,222.6z M161.8,206.5
			c-0.7,0-1.4-0.5-1.5-1.3c-0.4-2.4-0.6-4.8-0.6-7.1c0-0.8,0.7-1.5,1.5-1.5c0,0,0,0,0,0c0.8,0,1.5,0.7,1.5,1.5
			c0,2.2,0.2,4.4,0.6,6.7c0.1,0.8-0.4,1.6-1.3,1.7C162,206.5,161.9,206.5,161.8,206.5z M339.2,195.9
			C339.2,195.9,339.2,195.9,339.2,195.9c-0.9,0-1.5-0.8-1.5-1.6c0-0.6,0-1.2,0-1.8c0-1.7-0.1-3.3-0.4-4.8c-0.1-0.8,0.4-1.6,1.2-1.7
			c0.8-0.1,1.6,0.4,1.7,1.2c0.3,1.7,0.5,3.5,0.5,5.3c0,0.6,0,1.3-0.1,1.9C340.7,195.3,340,195.9,339.2,195.9z M162.5,189.7
			c-0.1,0-0.3,0-0.4-0.1c-0.8-0.2-1.3-1-1.1-1.8c0.6-2.4,1.5-4.6,2.6-6.8c0.4-0.7,1.3-1,2-0.6c0.7,0.4,1,1.3,0.6,2
			c-1,1.9-1.8,4-2.4,6.2C163.7,189.3,163.1,189.7,162.5,189.7z M335.4,179.8c-0.5,0-1-0.3-1.3-0.7c-1.1-1.8-2.4-3.6-4-5.2
			c-0.6-0.6-0.6-1.5,0-2.1c0.6-0.6,1.5-0.6,2.1,0c1.7,1.8,3.2,3.7,4.4,5.8c0.4,0.7,0.2,1.6-0.5,2.1
			C335.9,179.7,335.7,179.8,335.4,179.8z M170.8,175.3c-0.4,0-0.8-0.2-1.1-0.5c-0.6-0.6-0.6-1.5,0-2.1c1.7-1.6,3.6-3.1,5.7-4.5
			c0.7-0.5,1.6-0.3,2.1,0.4c0.5,0.7,0.3,1.6-0.4,2.1c-1.9,1.3-3.7,2.6-5.2,4.1C171.6,175.2,171.2,175.3,170.8,175.3z M323.5,168.1
			c-0.3,0-0.6-0.1-0.8-0.2c-1.8-1.1-3.8-2.2-5.9-3.2c-0.7-0.4-1.1-1.3-0.7-2c0.4-0.7,1.2-1.1,2-0.7c2.2,1.1,4.3,2.2,6.2,3.4
			c0.7,0.4,0.9,1.4,0.5,2.1C324.5,167.8,324,168.1,323.5,168.1z M185.1,166.5c-0.6,0-1.2-0.4-1.4-0.9c-0.3-0.8,0.1-1.6,0.8-2
			c2-0.8,4.2-1.6,6.7-2.3c0.8-0.2,1.6,0.2,1.9,1c0.2,0.8-0.2,1.6-1,1.9c-2.4,0.7-4.5,1.5-6.4,2.3
			C185.5,166.5,185.3,166.5,185.1,166.5z M201.2,161.7c-0.7,0-1.3-0.5-1.5-1.2c-0.2-0.8,0.3-1.6,1.1-1.8c2-0.5,4.1-0.9,6.8-1.5
			c0.8-0.2,1.6,0.3,1.8,1.2c0.2,0.8-0.3,1.6-1.2,1.8c-2.6,0.6-4.8,1-6.7,1.5C201.4,161.7,201.3,161.7,201.2,161.7z M308.2,161.1
			c-0.2,0-0.3,0-0.5-0.1c-2.1-0.7-4.3-1.3-6.6-1.9c-0.8-0.2-1.3-1-1.1-1.8c0.2-0.8,1-1.3,1.8-1.1c2.3,0.6,4.6,1.3,6.8,2
			c0.8,0.3,1.2,1.1,1,1.9C309.4,160.7,308.8,161.1,308.2,161.1z M217.7,158.2c-0.7,0-1.3-0.5-1.5-1.2c-0.1-0.8,0.4-1.6,1.2-1.7
			c2.2-0.4,4.6-0.8,6.9-1.1c0.8-0.1,1.6,0.4,1.7,1.3c0.1,0.8-0.4,1.6-1.3,1.7c-2.3,0.3-4.6,0.7-6.8,1.1
			C217.9,158.2,217.8,158.2,217.7,158.2z M291.8,157.1c-0.1,0-0.2,0-0.3,0c-2.2-0.4-4.5-0.7-6.8-1c-0.8-0.1-1.4-0.9-1.3-1.7
			c0.1-0.8,0.9-1.4,1.7-1.3c2.4,0.3,4.7,0.6,6.9,1c0.8,0.1,1.4,0.9,1.2,1.7C293.2,156.6,292.5,157.1,291.8,157.1z M234.4,155.9
			c-0.8,0-1.4-0.6-1.5-1.3c-0.1-0.8,0.5-1.6,1.3-1.6c2.3-0.2,4.6-0.4,7-0.6c0.8-0.1,1.5,0.6,1.6,1.4c0.1,0.8-0.6,1.5-1.4,1.6
			c-2.3,0.2-4.6,0.4-6.9,0.6C234.5,155.9,234.5,155.9,234.4,155.9z M275.1,155.1c0,0-0.1,0-0.1,0c-2.2-0.2-4.6-0.3-6.9-0.4
			c-0.8,0-1.5-0.7-1.4-1.6c0-0.8,0.7-1.5,1.6-1.4c2.4,0.1,4.7,0.2,7,0.4c0.8,0.1,1.4,0.8,1.4,1.6
			C276.5,154.5,275.8,155.1,275.1,155.1z M251.2,154.7c-0.8,0-1.5-0.6-1.5-1.4c0-0.8,0.6-1.5,1.4-1.6c2.3-0.1,4.7-0.1,7-0.1
			c0,0,0,0,0,0c0.8,0,1.5,0.7,1.5,1.5c0,0.8-0.7,1.5-1.5,1.5C255.9,154.6,253.6,154.7,251.2,154.7
			C251.3,154.7,251.3,154.7,251.2,154.7z"/>
	</g>
	<g>
		<path class="st4" d="M336.3,209.1c-0.2,0-0.3,0-0.5-0.1c-0.8-0.3-1.2-1.1-0.9-1.9c0.4-1.1,0.8-2.2,1.1-3.2c0.2-0.8,1.1-1.2,1.9-1
			c0.8,0.2,1.2,1.1,1,1.9c-0.3,1.1-0.7,2.3-1.1,3.4C337.5,208.7,336.9,209.1,336.3,209.1z"/>
	</g>
</g>
<g>
	<path class="st4" d="M355.2,249l-0.3,0c-0.8,0-1.5-0.7-1.5-1.5c0-0.8,0.7-1.5,1.5-1.5c0,0,0,0,0,0l0.3,0c1.9,0,4-0.3,6.3-0.8
		c0.8-0.2,1.6,0.3,1.8,1.1c0.2,0.8-0.3,1.6-1.1,1.8C359.7,248.7,357.3,249,355.2,249z M345.7,245.7c-0.4,0-0.7-0.1-1-0.4
		c-3.2-2.9-4.1-6.5-4.2-6.6c-0.2-0.8,0.3-1.6,1.1-1.8c0.8-0.2,1.6,0.3,1.8,1.1l0,0c0,0,0.7,2.8,3.2,5.1c0.6,0.6,0.7,1.5,0.1,2.1
		C346.5,245.5,346.1,245.7,345.7,245.7z M371.3,244.8c-0.6,0-1.1-0.3-1.4-0.9c-0.3-0.8,0-1.6,0.8-2c1.9-0.9,3.9-2,5.9-3.3
		c0.7-0.5,1.6-0.3,2.1,0.4c0.5,0.7,0.3,1.6-0.4,2.1c-2.1,1.4-4.3,2.6-6.3,3.5C371.7,244.8,371.5,244.8,371.3,244.8z M385.3,235.3
		c-0.4,0-0.8-0.2-1.1-0.5c-0.6-0.6-0.5-1.6,0.1-2.1c1.7-1.5,3.3-3.1,4.9-4.8c0.6-0.6,1.5-0.7,2.1-0.1c0.6,0.6,0.7,1.5,0.1,2.1
		c-1.6,1.8-3.3,3.5-5.1,5C386,235.2,385.6,235.3,385.3,235.3z M396.5,222.6c-0.3,0-0.6-0.1-0.9-0.3c-0.7-0.5-0.8-1.4-0.3-2.1
		c1.3-1.9,2.6-3.8,3.8-5.7c0.4-0.7,1.3-0.9,2.1-0.5c0.7,0.4,0.9,1.3,0.5,2.1c-1.2,2-2.5,4-3.9,5.9
		C397.5,222.4,397,222.6,396.5,222.6z M405.1,207.9c-0.2,0-0.4,0-0.6-0.1c-0.8-0.3-1.1-1.2-0.8-2c0.9-2.1,1.8-4.2,2.5-6.4
		c0.3-0.8,1.1-1.2,1.9-0.9c0.8,0.3,1.2,1.1,0.9,1.9c-0.8,2.2-1.7,4.4-2.6,6.6C406.2,207.6,405.6,207.9,405.1,207.9z M410.3,191.8
		c-0.1,0-0.2,0-0.3,0c-0.8-0.2-1.3-1-1.2-1.8c0.5-2.3,0.8-4.5,1-6.8c0.1-0.8,0.8-1.4,1.6-1.4c0.8,0.1,1.4,0.8,1.4,1.6
		c-0.2,2.3-0.6,4.7-1.1,7.1C411.6,191.3,411,191.8,410.3,191.8z M411.5,174.9c-0.8,0-1.4-0.6-1.5-1.4c-0.1-1.6-0.3-3.3-0.5-4.9
		c-0.1-0.6-0.2-1.3-0.3-1.9c-0.1-0.8,0.4-1.6,1.2-1.7c0.8-0.1,1.6,0.4,1.7,1.2c0.1,0.7,0.2,1.3,0.3,2c0.2,1.7,0.4,3.4,0.5,5.1
		C413.1,174.1,412.4,174.8,411.5,174.9C411.6,174.9,411.5,174.9,411.5,174.9z M408.4,158.2c-0.6,0-1.2-0.4-1.4-1.1
		c-0.7-2.2-1.5-4.3-2.3-6.5c-0.3-0.8,0-1.6,0.8-2c0.8-0.3,1.6,0,2,0.8c0.9,2.2,1.7,4.5,2.4,6.7c0.2,0.8-0.2,1.6-1,1.9
		C408.7,158.2,408.5,158.2,408.4,158.2z M401.6,142.6c-0.5,0-1-0.3-1.3-0.8c-1.1-2-2.4-3.9-3.7-5.8c-0.5-0.7-0.3-1.6,0.4-2.1
		c0.7-0.5,1.6-0.3,2.1,0.4c1.3,1.9,2.6,4,3.8,6c0.4,0.7,0.2,1.6-0.6,2C402.1,142.6,401.8,142.6,401.6,142.6z M391.7,128.9
		c-0.4,0-0.8-0.2-1.1-0.5c-1.5-1.7-3.2-3.3-4.8-4.9c-0.6-0.6-0.7-1.5-0.1-2.1c0.6-0.6,1.5-0.7,2.1-0.1c1.7,1.6,3.4,3.3,5,5.1
		c0.6,0.6,0.5,1.6-0.1,2.1C392.4,128.7,392,128.9,391.7,128.9z M378.8,117.8c-0.3,0-0.6-0.1-0.8-0.2c-2-1.3-3.9-2.4-5.9-3.3
		c-0.8-0.4-1.1-1.2-0.7-2c0.4-0.8,1.2-1.1,2-0.7c2.1,1,4.2,2.2,6.3,3.5c0.7,0.5,0.9,1.4,0.4,2.1
		C379.8,117.5,379.3,117.8,378.8,117.8z M363.3,111.2c-0.1,0-0.2,0-0.4,0c-2.1-0.5-4.4-1.1-6.8-1.6c-0.8-0.2-1.3-1-1.2-1.8
		c0.2-0.8,1-1.3,1.8-1.2c2.4,0.5,4.7,1,6.9,1.6c0.8,0.2,1.3,1,1.1,1.8C364.5,110.7,363.9,111.2,363.3,111.2z M346.6,107.8
		c-0.1,0-0.2,0-0.2,0c-3-0.5-5.4-0.8-6.9-1c-0.8-0.1-1.4-0.9-1.3-1.7c0.1-0.8,0.9-1.4,1.7-1.3c1.5,0.2,4,0.5,7,1
		c0.8,0.1,1.4,0.9,1.2,1.7C348,107.2,347.3,107.8,346.6,107.8z M329.7,105.7c0,0-0.1,0-0.1,0c-2.7-0.2-4.9-0.4-7-0.7
		c-0.8-0.1-1.4-0.9-1.3-1.7c0.1-0.8,0.9-1.4,1.7-1.3c2,0.3,4.2,0.5,6.9,0.7c0.8,0.1,1.4,0.8,1.4,1.6
		C331.1,105.2,330.5,105.7,329.7,105.7z M313.2,102.2c-0.2,0-0.5-0.1-0.7-0.2c-0.7-0.3-1.4-0.7-2-1.1c-1.4-0.8-2.8-1.8-4.1-2.8
		c-0.7-0.5-0.8-1.4-0.3-2.1c0.5-0.7,1.4-0.8,2.1-0.3c1.2,0.9,2.5,1.8,3.8,2.6c0.6,0.4,1.2,0.7,1.8,1c0.7,0.4,1,1.3,0.7,2
		C314.3,101.9,313.8,102.2,313.2,102.2z M300.5,91.2c-0.5,0-1-0.3-1.3-0.8c-1.1-2-1.7-4.1-1.7-6.1c0-0.3,0-0.5,0-0.8
		c0-0.3,0.1-0.5,0.1-0.8c0.1-0.8,0.9-1.4,1.7-1.2c0.8,0.1,1.4,0.9,1.2,1.7c0,0.2-0.1,0.4-0.1,0.6c0,0.2,0,0.4,0,0.6
		c0,1.5,0.4,3,1.3,4.6c0.4,0.7,0.2,1.6-0.6,2C301,91.1,300.8,91.2,300.5,91.2z M405.7,81.8c-0.1,0-0.3,0-0.4-0.1l-1.8-0.5
		c-0.8-0.2-1.3-1.1-1-1.8c0.2-0.8,1.1-1.3,1.8-1l1.8,0.5c0.8,0.2,1.3,1.1,1,1.9C406.9,81.4,406.3,81.8,405.7,81.8z M394.2,78.7
		c-0.1,0-0.2,0-0.4,0c-2.1-0.5-4.4-1.1-6.8-1.7c-0.8-0.2-1.3-1-1.1-1.8c0.2-0.8,1-1.3,1.8-1.1c2.4,0.6,4.7,1.2,6.8,1.7
		c0.8,0.2,1.3,1,1.1,1.8C395.5,78.3,394.9,78.7,394.2,78.7z M304.6,76.4c-0.4,0-0.9-0.2-1.2-0.6c-0.5-0.6-0.4-1.6,0.2-2.1
		c1.5-1.2,2.9-2.1,3.9-2.7c0.7-0.4,1.5-0.9,2.3-1.2c0.7-0.4,1.6,0,2,0.7c0.4,0.8,0,1.6-0.7,2c-0.7,0.3-1.4,0.7-2,1.1
		c-0.9,0.6-2.2,1.4-3.6,2.5C305.2,76.3,304.9,76.4,304.6,76.4z M377.6,74.8c-0.1,0-0.2,0-0.3,0c-2.3-0.5-4.6-1-6.8-1.4
		c-0.8-0.2-1.3-0.9-1.2-1.8c0.2-0.8,0.9-1.3,1.8-1.2c2.3,0.4,4.6,0.9,6.9,1.4c0.8,0.2,1.3,1,1.2,1.8
		C378.9,74.4,378.3,74.8,377.6,74.8z M360.9,71.7c-0.1,0-0.2,0-0.2,0c-2.3-0.4-4.7-0.7-6.9-1c-0.8-0.1-1.4-0.9-1.3-1.7
		c0.1-0.8,0.9-1.4,1.7-1.3c2.2,0.3,4.6,0.6,7,1c0.8,0.1,1.4,0.9,1.2,1.7C362.3,71.2,361.6,71.7,360.9,71.7z M320.1,69.9
		c-0.7,0-1.4-0.5-1.5-1.3c-0.1-0.8,0.4-1.6,1.2-1.7c2.2-0.4,4.6-0.6,7.1-0.7c0.8,0,1.5,0.6,1.6,1.4c0,0.8-0.6,1.5-1.4,1.6
		c-2.4,0.1-4.7,0.4-6.8,0.7C320.2,69.9,320.2,69.9,320.1,69.9z M344,69.6c0,0-0.1,0-0.1,0c-2.4-0.2-4.7-0.3-6.9-0.4
		c-0.8,0-1.5-0.7-1.4-1.6c0-0.8,0.7-1.4,1.6-1.4c2.2,0.1,4.6,0.2,7.1,0.4c0.8,0.1,1.4,0.8,1.4,1.6C345.5,69,344.8,69.6,344,69.6z"/>
</g>
<g>
	<polygon class="st4" points="411.6,75.5 411.6,98.4 457.6,87 	"/>
</g>
<g>
	<polygon class="st4" points="414.3,70.5 407.7,63 457.6,87 	"/>
</g>
<g>
	<path class="st4" d="M491.7,145c0,0-3.3,11.3-12,7.3c-8.7-4,6-12.7,6-12.7s-18-0.7-14.7-12.7c3.3-12,14.7-10,20.7-6.7
		c0,0-10-28,16-26s7.3,29.4,7.3,29.4s-1.3-41.8,21.3-33.3c22.7,8.6,8,30.8,8,30.8S523.4,87.6,565.2,83l-0.2,83.3c0,0-18,18-26-5.3
		C539,161,505,183.7,491.7,145z"/>
</g>
</svg>
