<svg xmlns="http://www.w3.org/2000/svg" xmlns:xlink="http://www.w3.org/1999/xlink" width="250" height="160" viewBox="0 0 250 160"><defs><linearGradient id="linear-gradient" x1="124.94" y1="116.33" x2="124.94" y2="2.26" gradientUnits="userSpaceOnUse"><stop offset="0" stop-color="#fac116"/><stop offset="1" stop-color="#f26e69"/></linearGradient><linearGradient id="linear-gradient-2" x1="76.13" y1="123.54" x2="78.13" y2="165.04" gradientTransform="translate(48.06)" gradientUnits="userSpaceOnUse"><stop offset="0" stop-color="#fac116"/><stop offset="0.39" stop-color="#82a365"/><stop offset="1" stop-color="#0284b9"/></linearGradient><linearGradient id="linear-gradient-3" x1="0.06" y1="104.73" x2="163.86" y2="104.73" gradientUnits="userSpaceOnUse"><stop offset="0" stop-color="#53681e"/><stop offset="1" stop-color="#55671e"/></linearGradient><linearGradient id="linear-gradient-4" x1="0" y1="104.18" x2="154.36" y2="104.18" xlink:href="#linear-gradient-3"/><linearGradient id="linear-gradient-5" x1="103.17" y1="113.76" x2="116" y2="113.76" gradientUnits="userSpaceOnUse"><stop offset="0" stop-color="#53681e"/><stop offset="1" stop-color="#2d380a"/></linearGradient><linearGradient id="linear-gradient-6" x1="0" y1="99.95" x2="32.87" y2="99.95" xlink:href="#linear-gradient-5"/><linearGradient id="linear-gradient-7" x1="45.39" y1="106.25" x2="77.57" y2="106.25" xlink:href="#linear-gradient-5"/><linearGradient id="linear-gradient-8" x1="212.27" y1="113.83" x2="249.88" y2="113.83" xlink:href="#linear-gradient-3"/><linearGradient id="linear-gradient-9" x1="226.46" y1="114.12" x2="237.96" y2="114.12" xlink:href="#linear-gradient-5"/></defs><title>1533 [Converted]</title><g style="isolation:isolate"><g id="Layer_1" data-name="Layer 1"><rect width="249.88" height="160" fill="url(#linear-gradient)"/><g style="mix-blend-mode:screen"><path d="M249.78,90.77v2.3c-13.88.13-30.24.2-47.76.2-50.33,0-91.13-.6-91.13-1.35s40.8-1.34,91.13-1.34C219.54,90.58,235.9,90.65,249.78,90.77Z" fill="#111010"/><path d="M154.26,86.63c0,.57-40.8,1-91.12,1-24.47,0-46.67-.1-63-.28V85.89c16.37-.18,38.57-.29,63-.29C113.46,85.6,154.26,86.06,154.26,86.63Z" fill="#111010"/><path d="M249.78,80.24v2c-8.7,0-18,0-27.57,0-50.32,0-91.12-.46-91.12-1s40.8-1,91.12-1C231.82,80.2,241.08,80.21,249.78,80.24Z" fill="#111010"/><path d="M249.78,105.75v1l-32.06,0c-58.53,0-106-.23-106-.51s47.45-.52,106-.52Z" fill="#111010"/><path d="M234.28,76.62c0,.29-54.29.52-121.26.52C61.69,77.14,17.81,77,.1,76.81v-.38c17.71-.19,61.59-.32,112.92-.32C180,76.11,234.28,76.34,234.28,76.62Z" fill="#111010"/><path d="M220.07,94c0,.29-54.29.52-121.27.52-40.69,0-76.71-.08-98.7-.21v-.61c22-.13,58-.21,98.7-.21C165.78,93.5,220.07,93.73,220.07,94Z" fill="#111010"/><path d="M220.07,101.15c0,.18-54.29.32-121.27.32-40.69,0-76.71,0-98.7-.13V101c22-.08,58-.13,98.7-.13C165.78,100.83,220.07,101,220.07,101.15Z" fill="#111010"/></g><g style="mix-blend-mode:screen"><path d="M249.78,58.64V55.83c-13.88-.16-30.24-.24-47.76-.24-50.33,0-91.13.73-91.13,1.64s40.8,1.65,91.13,1.65C219.54,58.88,235.9,58.79,249.78,58.64Z" fill="#111010"/><path d="M154.26,63.72c0-.7-40.8-1.26-91.12-1.26-24.47,0-46.67.13-63,.35v1.81c16.37.22,38.57.36,63,.36C113.46,65,154.26,64.41,154.26,63.72Z" fill="#111010"/><path d="M249.78,71.54V69.13c-8.7,0-18,0-27.57,0-50.32,0-91.12.56-91.12,1.26s40.8,1.25,91.12,1.25C231.82,71.59,241.08,71.57,249.78,71.54Z" fill="#111010"/><path d="M249.78,40.3V39.09l-32.06,0c-58.53,0-106,.28-106,.62s47.45.63,106,.63Z" fill="#111010"/><path d="M220.07,54.67c0-.35-54.29-.63-121.27-.63-40.69,0-76.71.1-98.7.26V55c22,.16,58,.26,98.7.26C165.78,55.3,220.07,55,220.07,54.67Z" fill="#111010"/><path d="M220.07,45.94c0-.22-54.29-.4-121.27-.4-40.69,0-76.71.06-98.7.16v.47c22,.1,58,.16,98.7.16C165.78,46.33,220.07,46.15,220.07,45.94Z" fill="#111010"/></g><polygon points="249.84 24.78 249.84 38.62 18.9 33.38 249.84 24.78" fill="#111010" style="mix-blend-mode:screen"/><polygon points="0.04 6.08 221.53 6.08 82.4 14.37 167.41 22.66 0.07 17.86 0.04 6.08" fill="#111010" style="mix-blend-mode:screen"/><ellipse cx="186.09" cy="110.94" rx="39.32" ry="39.34" fill="#f9ba1d"/><rect y="118.35" width="249.88" height="41.65" fill="#c78120"/><path d="M0,136.84c10.87-2.13,29.33.92,29.42-3,.16-6.92,34.42-.88,31.24-5.44s55.1-5.63,72-5.45,40.88-4.64,40.88-4.64H0Z" fill="#e09834"/><path d="M143.08,118.35H0v13c8.33-.07,22.07-.63,22.24-3.46.25-4.08,28-.93,27.23-4.94s58.73-2.24,85.22-2.71C144.82,120.1,145.77,119.28,143.08,118.35Z" fill="#fcba5d"/><path d="M249.88,118.35H173.5l0,.12s-8.22,4.06-33.13,5.54-84.74,2-73.81,6S33,131.51,36,137c2.31,4.23-23.84.14-36,4.22V160H249.88Z" fill="url(#linear-gradient-2)"/><path d="M0,140.82v7.71c5.65-1.64,16.1-1.4,27.32-1.29,14.83.14,21.82-5,18-8.47s7.16-3.84,19.33-4.18,10.66-4.83,7.66-5.83,27.15-2.33,60-3.67c27.09-1.1,37.54-5.25,40.37-6.67-2.64,1-11.83,4-32.29,5.19-24.91,1.48-85.72,2.27-74.8,6.27s-33.23,1.17-30.23,6.66C37.63,140.77,12.14,136.75,0,140.82Z" fill="#f5e1a3"/><path d="M249.88,160V120.24c-11.5-.29-76-1.83-73,0,3.33,2-14.66,3-10.17,3.89s-24,2-20.65,3.66-41.65.34-39.32,2.67-29.32-.17-28.65,2.67-5.33,4.5-12,4.5-12.5.51-10.83,1.5-7,.33-5.5,2-3.67,9-14.49,8.5-15.33.71-13.52,2S2.19,149.38,0,155v5Z" fill="#f1f2f2" style="mix-blend-mode:multiply"/><path d="M249.88,124c-12.16-.54-49.54-2-46,.17,4.25,2.6-28.73-.15-25,3.1s-32.73,2-29,4.12-38.73.64-35.24,2.51-32.73,1.1-30,2.73-31,4.17-26,5.91-2.25,10.4-17,10.81-21.49.42-20,2.17c1.07,1.25-14.33.33-21.74,2.08V160H249.88Z" fill="#f1f2f2" style="mix-blend-mode:multiply"/><path d="M249.88,160V125.92c-7.15-.33-34-1.44-35.73.08-2,1.75-16.74,6.73-23.74,5.37s-4.25,5.1-27.49,4.37-46.48,2.34-31.23,6.3-50.76-2.24-45.37,5.24c4.85,6.73-23-.71-36.85,12.72Z" fill="#f1f2f2" style="mix-blend-mode:multiply"/><path d="M163.86,118.42c-8.46,1.75-36.22,1.6-36.22,1.6-20.89,2.85-30.41-1.6-60,.9-18.54,1.56-48,.19-67.55-1.06v-32c11-.51,28.05,2.8,36.7,8.36a42.9,42.9,0,0,0,28.91,6.67c9.87-1.34,24.33,4.33,33.14,7.33s11.13,2.32,11.13,2.32,11.09.35,20.26,0S163.86,118.42,163.86,118.42Z" fill="url(#linear-gradient-3)"/><path d="M153.94,116.79c-.92-.41-1.06-.8-1.4-.48s-.45.19-1,.27-.47-.25-.7,0-.7.14-1,.24-.35.11-1.06,0-.65-.06-.92.08a.87.87,0,0,1-.88,0c-.31-.2,0-.12-.66-.12s-.67.27-.89.24h0c.07.05.35.16-.58,0-1.19-.19-.18-.19-1.19-.19a2.2,2.2,0,0,0-1.37.27,2.25,2.25,0,0,1-1.41,0,1.22,1.22,0,0,0-1.1-.15c-.31.17.09.79-.53.58s-.57.46-1.19.42-1.15.21-1.54,0-.84-.62-1.32-.33.09.75-1.15.75h-1.9c-.34,0-1.58.12-1.71.37s-.62.25-.85.17-1.14.26-1.71.05a1.42,1.42,0,0,0-1.1.07s.09.16-.4,0a8,8,0,0,0-1.55-.2s.76.34-.3.27-1.19.6-1.59.48.1.33-1.36.25a14.91,14.91,0,0,0-2.34,0h-1.63l-1.41-.22a1.53,1.53,0,0,0-.83,0c-.45.12-1.06.18-1.24.22a6.37,6.37,0,0,1-1.06-.18,2.76,2.76,0,0,1-1.67.18c-.62-.26-.84,0-1.48.08a8.13,8.13,0,0,1-1.48,0c-.61,0-1.8,0-2.06,0a5.44,5.44,0,0,1-1.55-.17c-.09-.12-.53,0-.83-.08s-1.42,0-1.42,0-.43-.54-.92-.25-1.06.58-1.32.29,0-.21-.67-.12-1.1.2-1.14.08a.8.8,0,0,0-1.2-.33,3.76,3.76,0,0,1-2.5.12c-.09-.17-.84-.25-1.28,0s-.66.5-1.06.17a1.94,1.94,0,0,0-1.32-.38c-.27,0-1,.5-1.19.08s-1.23-.33-1.23-.33a4,4,0,0,1-2.12,0A1.86,1.86,0,0,0,84.8,119c-.71.33-2.16.87-2.38.67a2.4,2.4,0,0,0-1.77-.09c-.61.21-1.1.34-1.36,0s-.13-.75-.75-.37-1.1.54-1.23.45-.62-.45-1-.25-2.21.71-2.21.5a1.7,1.7,0,0,0-2-.45c-1.06.37-2.3.7-2.38.41s-1.33-.5-1.63-.08-.27.51-.84.29a1.79,1.79,0,0,0-1.28.11c-.4.1-1.19.16-1.19,0s-1.63.1-2.38-.11-.49-.58-1.41-.12a3.54,3.54,0,0,1-2.12.33c-.61,0-.52-.14-1.05,0a1.68,1.68,0,0,1-1,0s0,.53-.57.08.53-.78-1.06-.4-1.54.41-1.89.33-1,0-1.15-.08.13-.54-.62-.29,0,.2-.75.25a2.94,2.94,0,0,1-1.41-.3c-.13,0,.18-.08-.57,0s-.22-.37-1.32,0-.4.12-1.1.41a1,1,0,0,1-1.11-.16s.1.62-.88,0-.61-.25-1.4-.25-1.69.75-1.81.62a12.85,12.85,0,0,0-2.91-.46,19.25,19.25,0,0,0-2.65.13c-.52,0-.61-.13-1-.13s0-.16-.88-.21-.83,0-1.1,0-.09-.29-.79-.08-.22.38-1.32.21a13.61,13.61,0,0,0-1.69-.25,5.25,5.25,0,0,1-1.05-.08c-.53-.09-.09-.5-.53-.09s-.53.63-1,.42-.13-.29-.75-.29h-.13a5.69,5.69,0,0,1-.62.09l-1.36.17-1.32,0-.49.33a5.2,5.2,0,0,1-.67-.13c-.57-.12-1-.29-1.18-.29h-.4s-.66.34-.74.21a8.27,8.27,0,0,0-2,0,3.9,3.9,0,0,1-1.33,0c-.61-.08-1-.37-1.54-.33a12,12,0,0,1-1.28,0c-.39,0-.24-.34-1-.25a4.53,4.53,0,0,1-1.83,0,4.92,4.92,0,0,0-1.67,0c-.34,0-1.95-.15-2.26-.15s-.71.25-1,.25a3.86,3.86,0,0,1-1.5-.33c-.13-.17-.7.33-1.23.17a9.23,9.23,0,0,0-2-.23V87.89c11-.52,28.1,2.79,36.76,8.36a42.9,42.9,0,0,0,28.91,6.67c9.87-1.34,24.33,4.33,33.14,7.33s11.13,2.32,11.13,2.32,11.09.35,20.26,0c5.38-.19,16.08,1.86,24,3.58C154.38,116.56,154.53,117.06,153.94,116.79Z" fill="url(#linear-gradient-4)"/><path d="M134.91,116.71c-2.69.29-9.88.71-11.68,0s-4.59-2.25-7.38-2.62a6.43,6.43,0,0,1-3.24-1.45c3.85.08,11.18.18,17.58,0,4.68-.17,13.36,1.35,20.73,2.88-1.67.72-4.49.68-7,.45C140.86,115.63,137.6,116.42,134.91,116.71Z" fill="#678226"/><path d="M114.27,118.73c-1.07-.19-7.59-.37-9.24-.37a112.93,112.93,0,0,1-12.8-1.16c-3.6-.66-7.5-3.28-9.15-4.53a17.57,17.57,0,0,0-6.55-3.19c-3.17-.87-7.4-4.62-11.76-5.25a13.72,13.72,0,0,1-3.76-1,40.42,40.42,0,0,0,4.66-.35c9.87-1.33,24.33,4.33,33.14,7.33l2.3.75a23.66,23.66,0,0,1,4.18,3.17c.66.94,8.53,2.69,9,2.81s7.28,1.56,6.21,1.75A33.9,33.9,0,0,1,114.27,118.73Z" fill="#678226"/><path d="M14.72,96c-3.44-1.13-7.4-2.54-8.65-3.45S.88,88.25.88,88.25l-.05-.38c9.74-.29,23.72,2.24,32.67,6.59a8.65,8.65,0,0,0,2.64,3.1c3.09,2.06,7.41,4.11,8.9,5.18a93.1,93.1,0,0,0,13.14,6.85c5.11,2.08,8.72,2.75,12.78,2.33s14.72,5.75,12.43,5.28-8.47.14-11.81,0-13.84-1.7-15-2.45a128.09,128.09,0,0,0-14.7-5.83C37.33,107.5,30.76,104,29,101.75S18.16,97.09,14.72,96Z" fill="#678226"/><path d="M37.82,116.75c-16.4-1.33-15.69-2.5-19.92-1.83s-4.58,1.83-9.17,1A54.86,54.86,0,0,0,0,115.26V103.6c2.43,1,4.87,1.62,7.45,2.65,4.63,1.83,6,1,9.21,2.67s9.35,5.17,13.22,4.83,12.27.33,14.42,1.33S54.22,118.08,37.82,116.75Z" fill="#678226"/><path d="M103.17,111.59c3.85,1,5.69,1.09,6.39,1,3.57,1.62,6.44,3.3,6.44,3.3A132.14,132.14,0,0,0,103.17,111.59Z" fill="url(#linear-gradient-5)"/><path d="M32.87,108.91c-5.46-4-17.44-6.33-22.73-7.16C7.93,101.41,3.92,98.36,0,94.92V91c3.56,3.82,10,9.22,18.08,10.94C28.33,104.1,32.61,108.63,32.87,108.91Z" fill="url(#linear-gradient-6)"/><path d="M62.85,105a62.56,62.56,0,0,1,9.25,4.42,25.55,25.55,0,0,0,5.47,2.5c-8-1.83-12.43-5.67-18.95-6.46s-13.23-4.88-13.23-4.88h0a42.7,42.7,0,0,0,9.14,2.31C57.94,104.13,61.83,104.64,62.85,105Z" fill="url(#linear-gradient-7)"/><path d="M249.78,109.32h.1v9H212.27a30.21,30.21,0,0,1,9.23-3.87c4.37-.89,9.46.15,17.39-3.12.31-.13.62-.25.94-.35a2.19,2.19,0,0,1,.33-.12l.26-.08.48-.15c.81-.24,1.68-.45,2.57-.62l.53-.1c.6-.11,1.22-.2,1.85-.28l.66-.08c.51-.06,1-.11,1.54-.15l.76-.05h.11Z" fill="url(#linear-gradient-8)"/><path d="M249.78,109.32h.1v5.16a15.45,15.45,0,0,1-3.62.64c-3.21.09-9.67.19-11.82.68s-6.88,1.51-7.12,1.56a11.71,11.71,0,0,1,4.56-2,16,16,0,0,0,6.37-3c.41-.32,1-.83,1.58-1.39h0l.32-.11.26-.08.48-.15c.81-.24,1.68-.45,2.57-.62l.53-.1c.6-.11,1.22-.2,1.85-.28l.66-.08c.51-.06,1-.11,1.54-.15l.76-.05h.11Z" fill="#678226"/><path d="M217.43,118c.68-.16,4.09-.16,5-.34a8.15,8.15,0,0,0,3.3-1.88c.62-.71,2-1.42,4.33-1.69a3.91,3.91,0,0,0,2-.66c-4.28.78-7.58.5-10.54,1.1a30,30,0,0,0-9.23,3.86h1.27l.33-.09C214.26,118.15,216.74,118.12,217.43,118Z" fill="#678226"/><path d="M238,111.72h0a33,33,0,0,1-3.56,1.14,15,15,0,0,1-3.17,1.26c-3.5,1-4.77,2.4-4.77,2.4a16.12,16.12,0,0,1,5-2A26.36,26.36,0,0,0,238,111.72Z" fill="url(#linear-gradient-9)"/><path d="M50.23,99.23s1.11,6.84-4.79,22l-2.4-.55c2.14-2,6.72-12.22,6.92-21.53C50.08,99.09,50.17,99.11,50.23,99.23Z" fill="#e38329"/><path d="M50,99.19h0a15.89,15.89,0,0,1-.14,4A53.35,53.35,0,0,1,47,114.52,33.23,33.23,0,0,1,44.07,121l-1-.24C45.18,118.77,49.76,108.5,50,99.19Z" fill="#d1d3d4" style="mix-blend-mode:multiply"/><g style="mix-blend-mode:multiply"><path d="M48.58,111.36a2.43,2.43,0,0,1-.75-.42.74.74,0,0,0,0,.14A2.13,2.13,0,0,0,48.58,111.36Z" fill="#bcbec0"/><path d="M48.8,110.08a2.3,2.3,0,0,1-.61-.31l0,.11A2,2,0,0,0,48.8,110.08Z" fill="#bcbec0"/><path d="M49,108.78a3.45,3.45,0,0,1-.43-.2l0,.08A2,2,0,0,0,49,108.78Z" fill="#bcbec0"/><path d="M48.08,112.52a2.86,2.86,0,0,1-.66-.34l0,.11A2,2,0,0,0,48.08,112.52Z" fill="#bcbec0"/><path d="M45.94,120a2.76,2.76,0,0,1-1.29-.19,2.65,2.65,0,0,0,1.18.47C45.87,120.16,45.9,120.06,45.94,120Z" fill="#bcbec0"/><path d="M47.92,113.52a2.49,2.49,0,0,1-.82-.47.78.78,0,0,1-.05.14A2.06,2.06,0,0,0,47.92,113.52Z" fill="#bcbec0"/><path d="M49.9,103.58a1.81,1.81,0,0,1-.31-.13v.06A1.58,1.58,0,0,0,49.9,103.58Z" fill="#bcbec0"/><path d="M50.21,103.1V103l-.36-.09A1.61,1.61,0,0,0,50.21,103.1Z" fill="#bcbec0"/><path d="M50.31,101.43l-.24-.06a1.41,1.41,0,0,0,.23.13Z" fill="#bcbec0"/><path d="M49.77,102.1a1.62,1.62,0,0,0,.3.06l-.3-.12Z" fill="#bcbec0"/><path d="M49.72,105a1.79,1.79,0,0,1-.37-.16V105A1.75,1.75,0,0,0,49.72,105Z" fill="#bcbec0"/><path d="M49.58,106.17a3,3,0,0,1-.44-.2v.08A1.84,1.84,0,0,0,49.58,106.17Z" fill="#bcbec0"/><path d="M44.6,118.56l-.11.19a3.26,3.26,0,0,0,1.56.27A3.85,3.85,0,0,1,44.6,118.56Z" fill="#bcbec0"/><path d="M49.3,107.59a3,3,0,0,1-.47-.22l0,.09A2,2,0,0,0,49.3,107.59Z" fill="#bcbec0"/><path d="M47.71,113a1.32,1.32,0,0,0,.48.23l0-.12A1.66,1.66,0,0,1,47.71,113Z" fill="#bcbec0"/><path d="M48.22,111.93a1.15,1.15,0,0,0,.28.15l0-.07Z" fill="#bcbec0"/><path d="M49.14,109.56l0-.09a2.38,2.38,0,0,1-.41-.1A1.18,1.18,0,0,0,49.14,109.56Z" fill="#bcbec0"/><path d="M48.53,110.6a1.24,1.24,0,0,0,.32.17v-.08A2.1,2.1,0,0,1,48.53,110.6Z" fill="#bcbec0"/><path d="M49.07,108.18a1.07,1.07,0,0,0,.33.18l0-.09A1.5,1.5,0,0,1,49.07,108.18Z" fill="#bcbec0"/><path d="M49.77,104.16a1.28,1.28,0,0,0,.31.17v-.08Z" fill="#bcbec0"/><path d="M45.64,117.91a2.32,2.32,0,0,0,.91.39c0-.06,0-.13.07-.2A3.32,3.32,0,0,1,45.64,117.91Z" fill="#bcbec0"/><path d="M49.61,105.47a1.33,1.33,0,0,0,.29.16v-.08Z" fill="#bcbec0"/><path d="M49.39,106.8a.82.82,0,0,0,.28.16l0-.07Z" fill="#bcbec0"/><path d="M46.09,116.38a2.3,2.3,0,0,0,1,.42c0-.08,0-.15.07-.23A2.83,2.83,0,0,1,46.09,116.38Z" fill="#bcbec0"/><path d="M46.42,117.26a3.67,3.67,0,0,1-1-.28l-.07.15A2.93,2.93,0,0,0,46.42,117.26Z" fill="#bcbec0"/><path d="M47,115.87a3.4,3.4,0,0,1-.86-.45l-.06.14A2.55,2.55,0,0,0,47,115.87Z" fill="#bcbec0"/><path d="M47.57,114.54a2.46,2.46,0,0,1-.85-.49s0,.09,0,.14A2,2,0,0,0,47.57,114.54Z" fill="#bcbec0"/><path d="M47.33,113.9a1.68,1.68,0,0,0,.58.26.93.93,0,0,1,0-.13A2.19,2.19,0,0,1,47.33,113.9Z" fill="#bcbec0"/><path d="M46.8,115.16a1.65,1.65,0,0,0,.7.3l.06-.16A2.05,2.05,0,0,1,46.8,115.16Z" fill="#bcbec0"/></g><path d="M50.15,99.87a8.17,8.17,0,0,0-4.33,5.5,4.85,4.85,0,0,1,.37-.78,4.51,4.51,0,0,0,.22,1.64,8.85,8.85,0,0,0,.91-1.44,3.92,3.92,0,0,0,.27-1.32,1.85,1.85,0,0,0,.14.8,2.31,2.31,0,0,1,.08-1.12,2,2,0,0,0,0,.76,6.34,6.34,0,0,0,.78-1.69s0,.28-.11.57a8.3,8.3,0,0,0,.92-1.67,1.1,1.1,0,0,1-.06.28A2.46,2.46,0,0,0,50.15,99.87Z" fill="#5c9423"/><path d="M50.21,100A5.78,5.78,0,0,0,45,99.83c-3.1,1.2-2.56,2.8-2.46,3.21a3.47,3.47,0,0,0,.58,1.25,3.6,3.6,0,0,1-.43-1.2,2.83,2.83,0,0,0,.6.93,3.89,3.89,0,0,1-.17-1.32,4.42,4.42,0,0,0,.35.8,2.75,2.75,0,0,1,.55-1.8,2.09,2.09,0,0,0,.12.84,2,2,0,0,1,0-.64,1.76,1.76,0,0,0,.34.87,4.32,4.32,0,0,1,.21-1.09,2.19,2.19,0,0,0,.18.79s.23-1.16,1-1.46c0,0-.25.11-.25.74a1.72,1.72,0,0,1,1.72-1.28s-.57.12-.55.93c0,0-.08-.63.9-.89S49.8,100.62,50.21,100Z" fill="#5c9423"/><path d="M45,99.83a6,6,0,0,1,5.05.13,7.56,7.56,0,0,0-3.66-.18c-1.63.47-4.14,1.2-3.51,3.7-.11-.21-.19-.39-.19-.39a3.6,3.6,0,0,0,.43,1.2,3.47,3.47,0,0,1-.58-1.25C42.48,102.63,41.94,101,45,99.83Z" fill="#9bd527"/><path d="M49.87,100.09a6.77,6.77,0,0,1,5.83.16,3.24,3.24,0,0,0-.7-.17s.83.65.94,1a7.49,7.49,0,0,1-1.41-.18,3.31,3.31,0,0,1-1-.54,1.45,1.45,0,0,1,.44.52,2,2,0,0,0-.75-.55,1.6,1.6,0,0,1,.45.44,5.58,5.58,0,0,1-1.5-.4s.2.12.43.23a7,7,0,0,1-1.56-.3,1,1,0,0,0,.21.11A2,2,0,0,1,49.87,100.09Z" fill="#5c9423"/><path d="M50,100.3a8,8,0,0,1,5.81-3.69,4.25,4.25,0,0,0-.8.29,4.24,4.24,0,0,1,1.58.38,8.81,8.81,0,0,1-1.49.74,3.9,3.9,0,0,1-1.33.14,1.64,1.64,0,0,1,.77.21,2.35,2.35,0,0,0-1.1,0,1.86,1.86,0,0,1,.73.14,6.35,6.35,0,0,1-1.73.59s.28,0,.57,0a7.9,7.9,0,0,1-1.72.73.91.91,0,0,0,.28,0A2.46,2.46,0,0,1,50,100.3Z" fill="#5c9423"/><path d="M45.82,105.37a8,8,0,0,1,3.91-5.28,10.39,10.39,0,0,0-2.83,3.16,13.31,13.31,0,0,0-.71,1.41v-.07A4.85,4.85,0,0,0,45.82,105.37Z" fill="#9bd527"/><path d="M50,100.15a7.07,7.07,0,0,0-2.47-1.91,2.16,2.16,0,0,1,.8.3,3.32,3.32,0,0,0-1.46-.92,1.47,1.47,0,0,1,.84.3,11.26,11.26,0,0,1-1.54-1.13c-.17-.24-.77-1-.77-1a2.65,2.65,0,0,1,1.31.3,3.46,3.46,0,0,0-1.37-.44,2,2,0,0,0-1-1.08,2.43,2.43,0,0,1,1.06.18,3.21,3.21,0,0,0-1.32-.41,2.69,2.69,0,0,1,2.89.67,12.28,12.28,0,0,1,3.11,4.62S50.43,100.68,50,100.15Z" fill="#5c9423"/><path d="M47,95.06a12.28,12.28,0,0,1,3.11,4.62,2.47,2.47,0,0,1,.1.55l-.06-.08s-1.15-2.64-2.6-3a2,2,0,0,1,1,.35,7.13,7.13,0,0,0-3.17-2.67,3.16,3.16,0,0,0-1.29-.4A2.69,2.69,0,0,1,47,95.06Z" fill="#9bd527"/><path d="M55.7,100.25a3.24,3.24,0,0,0-.7-.17l.06,0A3.76,3.76,0,0,0,54,99.85a1.72,1.72,0,0,1,.65.38,14.88,14.88,0,0,0-4.36-.29A6.61,6.61,0,0,1,55.7,100.25Z" fill="#9bd527"/><path d="M55.83,96.61a4.25,4.25,0,0,0-.8.29,4.24,4.24,0,0,1,1.58.38l0,0a3.12,3.12,0,0,0-2.15-.08.7.7,0,0,1,.44.1,6,6,0,0,0-2.33.64,15.63,15.63,0,0,0-2.41,2.16A7.91,7.91,0,0,1,55.83,96.61Z" fill="#9bd527"/><path d="M50.35,100.23s1.67-3,2.58-3.2a1.64,1.64,0,0,0-.91.36,4.56,4.56,0,0,1,2.75-2.25s-1.49-1.09-2.72-.22C49.47,96.75,50.35,100.23,50.35,100.23Z" fill="#5c9423"/><path d="M52.55,95a4.5,4.5,0,0,0-1.7,2,1.25,1.25,0,0,1,.9-.71,7.63,7.63,0,0,0-1.46,3.68c-.14-.87-.37-3.51,1.76-5,1.23-.87,2.72.22,2.72.22S53.38,94.44,52.55,95Z" fill="#9bd527"/><path d="M50.29,100.11a5.13,5.13,0,0,0-.16-4.57c-1.27-2.66-2.64-2.07-3-2a3.3,3.3,0,0,0-1.07.59,3.2,3.2,0,0,1,1-.45,2.61,2.61,0,0,0-.78.58,3.43,3.43,0,0,1,1.16-.23,4.25,4.25,0,0,0-.69.36,2.48,2.48,0,0,1,1.63.36,2.09,2.09,0,0,0-.74.16,2,2,0,0,1,.56,0,1.62,1.62,0,0,0-.74.36,3.75,3.75,0,0,1,1,.12,1.84,1.84,0,0,0-.68.21s1,.12,1.36.8c0,0-.12-.21-.67-.17a1.52,1.52,0,0,1,1.24,1.43.73.73,0,0,0-.85-.42s.54-.12.84.73S49.74,99.79,50.29,100.11Z" fill="#5c9423"/><path d="M50.13,95.54a5.13,5.13,0,0,1,.16,4.57l0,0a5.82,5.82,0,0,0-.35-4.17c-.78-1.62-1.77-2.34-2.9-2.14l.11,0a1.49,1.49,0,0,0-.54.18,2.76,2.76,0,0,0-.43.2,4.33,4.33,0,0,1,1-.52C47.49,93.47,48.86,92.88,50.13,95.54Z" fill="#9bd527"/><path d="M50.36,100s3.58,2,3.6,4a1.94,1.94,0,0,1-1.66,2.16,1.7,1.7,0,0,0,.75-.45,1.1,1.1,0,0,1-.64,0,1.35,1.35,0,0,0,1-1,1.72,1.72,0,0,1-1,.82,2.58,2.58,0,0,1,.23-1.63c.42-.7.43-1.12.09-1.42a1.31,1.31,0,0,1-.2,1.28s.35-.83.08-1.19a.8.8,0,0,1-.18.76,3.83,3.83,0,0,1-.74-1.39c-.38-1.06-.82.3-1.56-1.68L50,99.92Z" fill="#5c9423"/><path d="M50.08,99.94l.28.06s3.58,2,3.6,4a1.94,1.94,0,0,1-1.66,2.16,1.7,1.7,0,0,0,.75-.45l-.07,0a1.86,1.86,0,0,0,.66-2,1.33,1.33,0,0,1-.34.55,2.28,2.28,0,0,0,.11-1.07c-.75-1.77-3.32-3.23-3.32-3.23Z" fill="#9bd527"/><path d="M55.74,108.1s-.91,4.56-8.2,12.75l-1.38-.91c1.8-.73,7.1-6.12,9.42-11.93C55.68,108,55.73,108,55.74,108.1Z" fill="#e38329"/><path d="M55.58,108h0a10.63,10.63,0,0,1-1,2.48A35.47,35.47,0,0,1,50.1,117a21.76,21.76,0,0,1-3.35,3.37l-.59-.39C48,119.21,53.26,113.82,55.58,108Z" fill="#d1d3d4" style="mix-blend-mode:multiply"/><g style="mix-blend-mode:multiply"><path d="M51.84,115.34a1.67,1.67,0,0,1-.37-.43l-.06.07A1.38,1.38,0,0,0,51.84,115.34Z" fill="#bcbec0"/><path d="M52.28,114.59a1.87,1.87,0,0,1-.31-.34l0,.06A1.32,1.32,0,0,0,52.28,114.59Z" fill="#bcbec0"/><path d="M52.69,113.81a2.49,2.49,0,0,1-.23-.23l0,0A1.43,1.43,0,0,0,52.69,113.81Z" fill="#bcbec0"/><path d="M51.26,116a1.63,1.63,0,0,1-.34-.38l-.05.07A1.49,1.49,0,0,0,51.26,116Z" fill="#bcbec0"/><path d="M48.16,120.15a1.86,1.86,0,0,1-.77-.43,1.83,1.83,0,0,0,.64.58Z" fill="#bcbec0"/><path d="M50.92,116.55a1.59,1.59,0,0,1-.4-.49l-.07.08A1.39,1.39,0,0,0,50.92,116.55Z" fill="#bcbec0"/><path d="M54.5,110.75l-.16-.15,0,0A1,1,0,0,0,54.5,110.75Z" fill="#bcbec0"/><path d="M54.81,110.52l0,0-.2-.14A.76.76,0,0,0,54.81,110.52Z" fill="#bcbec0"/><path d="M55.27,109.5l-.14-.1a1,1,0,0,0,.12.14Z" fill="#bcbec0"/><path d="M54.77,109.79a.74.74,0,0,0,.18.11,1.17,1.17,0,0,1-.16-.15Z" fill="#bcbec0"/><path d="M54.05,111.63a1.11,1.11,0,0,1-.19-.18l0,0A.92.92,0,0,0,54.05,111.63Z" fill="#bcbec0"/><path d="M53.7,112.31a1.25,1.25,0,0,1-.23-.23l0,0A1.43,1.43,0,0,0,53.7,112.31Z" fill="#bcbec0"/><path d="M47.65,118.94l-.12.1a2.21,2.21,0,0,0,.93.53A2.49,2.49,0,0,1,47.65,118.94Z" fill="#bcbec0"/><path d="M53.19,113.14l-.25-.25,0,0A1.19,1.19,0,0,0,53.19,113.14Z" fill="#bcbec0"/><path d="M50.92,116.15a.93.93,0,0,0,.25.25l0-.06A1.51,1.51,0,0,1,50.92,116.15Z" fill="#bcbec0"/><path d="M51.49,115.62a.74.74,0,0,0,.14.16l0,0Z" fill="#bcbec0"/><path d="M52.62,114.34l0,0a1.64,1.64,0,0,1-.23-.16A.88.88,0,0,0,52.62,114.34Z" fill="#bcbec0"/><path d="M52,114.86a1,1,0,0,0,.16.18l0-.05Z" fill="#bcbec0"/><path d="M52.9,113.46a1,1,0,0,0,.17.19l0-.05Z" fill="#bcbec0"/><path d="M54.29,111.09a.7.7,0,0,0,.15.18l0,0A.89.89,0,0,1,54.29,111.09Z" fill="#bcbec0"/><path d="M48.46,118.78a1.57,1.57,0,0,0,.47.46l.1-.11A2.21,2.21,0,0,1,48.46,118.78Z" fill="#bcbec0"/><path d="M53.88,111.88A.74.74,0,0,0,54,112l0,0Z" fill="#bcbec0"/><path d="M53.42,112.66a.9.9,0,0,0,.15.17l0,0Z" fill="#bcbec0"/><path d="M49.1,117.92a1.58,1.58,0,0,0,.52.49l.1-.12A1.93,1.93,0,0,1,49.1,117.92Z" fill="#bcbec0"/><path d="M49.1,118.55a2.39,2.39,0,0,1-.56-.41l-.08.08A2,2,0,0,0,49.1,118.55Z" fill="#bcbec0"/><path d="M49.8,117.81a1.9,1.9,0,0,1-.44-.48l-.07.07A1.76,1.76,0,0,0,49.8,117.81Z" fill="#bcbec0"/><path d="M50.46,117.11a1.51,1.51,0,0,1-.41-.51l-.07.07A1.4,1.4,0,0,0,50.46,117.11Z" fill="#bcbec0"/><path d="M50.46,116.65a1.14,1.14,0,0,0,.3.3l.06-.07A2,2,0,0,1,50.46,116.65Z" fill="#bcbec0"/><path d="M49.83,117.32a1.1,1.1,0,0,0,.38.35l.07-.09A1.3,1.3,0,0,1,49.83,117.32Z" fill="#bcbec0"/></g><path d="M55.53,108.48a5.47,5.47,0,0,0-4,2.44,3,3,0,0,1,.41-.4,3,3,0,0,0-.24,1.08,5.9,5.9,0,0,0,.91-.69,2.68,2.68,0,0,0,.48-.77,1.3,1.3,0,0,0-.1.54,1.62,1.62,0,0,1,.31-.69,1.24,1.24,0,0,0-.14.49,4.48,4.48,0,0,0,.89-.88l-.21.34a5.59,5.59,0,0,0,1-.84.75.75,0,0,1-.1.16A1.62,1.62,0,0,0,55.53,108.48Z" fill="#578c21"/><path d="M55.54,108.6a3.9,3.9,0,0,0-3.21-1.35c-2.24,0-2.27,1.16-2.31,1.44a2.42,2.42,0,0,0,.07.93,2.51,2.51,0,0,1,0-.86,2,2,0,0,0,.15.72,2.62,2.62,0,0,1,.21-.87,3.58,3.58,0,0,0,0,.59s.28-.81.77-1a1.41,1.41,0,0,0-.12.56,1.25,1.25,0,0,1,.15-.4,1.18,1.18,0,0,0,0,.63,2.57,2.57,0,0,1,.39-.63,1.37,1.37,0,0,0-.08.53s.42-.67,1-.68c0,0-.18,0-.33.41a1.14,1.14,0,0,1,1.38-.4s-.38-.06-.56.45c0,0,.09-.41.77-.35S55.14,108.87,55.54,108.6Z" fill="#578c21"/><path d="M52.33,107.25a4,4,0,0,1,3.15,1.27,5.2,5.2,0,0,0-2.27-1c-1.14-.08-2.88-.21-3.08,1.51a2.61,2.61,0,0,1,0-.29,2.51,2.51,0,0,0,0,.86,2.42,2.42,0,0,1-.07-.93C50.06,108.41,50.09,107.28,52.33,107.25Z" fill="#89bb23"/><path d="M55.31,108.55A4.54,4.54,0,0,1,58.94,110a2.56,2.56,0,0,0-.4-.27,2.4,2.4,0,0,1,.35.86,4.9,4.9,0,0,1-.84-.45,2.32,2.32,0,0,1-.5-.57,1,1,0,0,1,.15.43,1.37,1.37,0,0,0-.34-.53,1.28,1.28,0,0,1,.18.39,3.63,3.63,0,0,1-.85-.61s.1.13.21.25A4.84,4.84,0,0,1,56,109a.74.74,0,0,0,.11.12A1.37,1.37,0,0,1,55.31,108.55Z" fill="#578c21"/><path d="M55.35,108.71a5.41,5.41,0,0,1,4.53-.95,2.69,2.69,0,0,0-.57,0,2.93,2.93,0,0,1,.9.61,5.91,5.91,0,0,1-1.11.12,2.64,2.64,0,0,1-.87-.23,1.12,1.12,0,0,1,.43.32,1.54,1.54,0,0,0-.68-.28,1.28,1.28,0,0,1,.43.25,4.19,4.19,0,0,1-1.23,0,3.83,3.83,0,0,0,.37.1,5.27,5.27,0,0,1-1.25.06.58.58,0,0,0,.18,0A1.61,1.61,0,0,1,55.35,108.71Z" fill="#578c21"/><path d="M51.52,110.92a5.37,5.37,0,0,1,3.7-2.4,6.76,6.76,0,0,0-2.53,1.32c-.29.25-.55.49-.77.72v0A3,3,0,0,0,51.52,110.92Z" fill="#89bb23"/><path d="M55.4,108.63a4.76,4.76,0,0,0-1.11-1.78,1.59,1.59,0,0,1,.44.37,2.29,2.29,0,0,0-.71-.92s.19,0,.46.38a7.89,7.89,0,0,1-.71-1.07c0-.19-.25-.78-.25-.78a1.8,1.8,0,0,1,.75.5,2.3,2.3,0,0,0-.76-.6,1.33,1.33,0,0,0-.36-.91,1.53,1.53,0,0,1,.63.37,2.08,2.08,0,0,0-.73-.57,1.81,1.81,0,0,1,1.66,1.1,8.27,8.27,0,0,1,.87,3.64S55.52,109.05,55.4,108.63Z" fill="#578c21"/><path d="M54.71,104.72a8.27,8.27,0,0,1,.87,3.64,1.43,1.43,0,0,1-.07.36l0-.06s-.1-1.93-.92-2.52a1.34,1.34,0,0,1,.56.46,4.79,4.79,0,0,0-1.37-2.43,2.07,2.07,0,0,0-.71-.55A1.81,1.81,0,0,1,54.71,104.72Z" fill="#89bb23"/><path d="M58.94,110a2.56,2.56,0,0,0-.4-.27l0,0a2.31,2.31,0,0,0-.64-.43,1.18,1.18,0,0,1,.33.39,9.9,9.9,0,0,0-2.68-1.21A4.5,4.5,0,0,1,58.94,110Z" fill="#89bb23"/><path d="M59.88,107.76a2.69,2.69,0,0,0-.57,0,2.93,2.93,0,0,1,.9.61h0a2.12,2.12,0,0,0-1.34-.56.57.57,0,0,1,.26.17,4,4,0,0,0-1.62-.14,10.06,10.06,0,0,0-2,.79A5.3,5.3,0,0,1,59.88,107.76Z" fill="#89bb23"/><path d="M55.57,108.75s1.77-1.51,2.38-1.41a1.07,1.07,0,0,0-.65,0,3,3,0,0,1,2.25-.78s-.68-1-1.66-.77C55.84,106.35,55.57,108.75,55.57,108.75Z" fill="#578c21"/><path d="M58.2,106a3,3,0,0,0-1.54.87.83.83,0,0,1,.73-.24,5.13,5.13,0,0,0-1.78,2,3.4,3.4,0,0,1,2.28-2.74c1-.27,1.66.77,1.66.77S58.85,105.81,58.2,106Z" fill="#89bb23"/><path d="M55.56,108.66a3.45,3.45,0,0,0,1-2.92c-.18-2-1.18-1.92-1.43-1.93a2.18,2.18,0,0,0-.81.12,2.18,2.18,0,0,1,.76-.05,1.83,1.83,0,0,0-.63.19,2.32,2.32,0,0,1,.78.13,2.68,2.68,0,0,0-.51.06s.73.19.94.61a1.24,1.24,0,0,0-.5-.07,1.29,1.29,0,0,1,.36.11,1,1,0,0,0-.55,0,2.43,2.43,0,0,1,.58.3,1.22,1.22,0,0,0-.48,0s.63.32.67.83c0,0,0-.17-.38-.27a1,1,0,0,1,.44,1.19s0-.34-.44-.46c0,0,.37,0,.36.66S55.3,108.33,55.56,108.66Z" fill="#578c21"/><path d="M56.54,105.74a3.45,3.45,0,0,1-1,2.92l0,0a3.86,3.86,0,0,0,.76-2.71c-.11-1.2-.56-1.89-1.32-2l.08,0a1.17,1.17,0,0,0-.38,0,1.73,1.73,0,0,0-.32,0,2.91,2.91,0,0,1,.75-.09C55.36,103.82,56.36,103.77,56.54,105.74Z" fill="#89bb23"/><path d="M55.64,108.61s1.78,2.1,1.32,3.37a1.3,1.3,0,0,1-1.55,1,1.2,1.2,0,0,0,.58-.11.72.72,0,0,1-.41-.16.91.91,0,0,0,.9-.39,1.2,1.2,0,0,1-.85.27,1.73,1.73,0,0,1,.53-1c.43-.35.53-.61.39-.88a.88.88,0,0,1-.43.76s.41-.44.34-.73a.56.56,0,0,1-.3.44,2.52,2.52,0,0,1-.14-1c0-.76-.58,0-.59-1.43v-.24Z" fill="#578c21"/><path d="M55.47,108.5l.17.11s1.78,2.1,1.32,3.37a1.3,1.3,0,0,1-1.55,1,1.2,1.2,0,0,0,.58-.11h-.05a1.25,1.25,0,0,0,.89-1.13.81.81,0,0,1-.35.27,1.45,1.45,0,0,0,.33-.64,6,6,0,0,0-1.33-2.82Z" fill="#89bb23"/><path d="M26.19,94.49s-.71,17.18-1.56,22.83l1.69.13s0-18.28.43-23C26.75,94.49,26.47,93.12,26.19,94.49Z" fill="#e38329"/><path d="M26.32,117.45s0-18.28.43-23a2,2,0,0,0-.13-.6c-.06,1.1-.26,4.47-.3,5.4-.05,1.11-.42,8.79-.42,8.79l-.34,6.75-.18,2.55Z" fill="#d1d3d4" style="mix-blend-mode:multiply"/><path d="M26.61,94.62a9.09,9.09,0,0,1,7.82-.06,4.38,4.38,0,0,0-.94-.2s1.13.83,1.3,1.32a10.78,10.78,0,0,1-1.89-.18,4.44,4.44,0,0,1-1.36-.67,1.9,1.9,0,0,1,.61.67,2.61,2.61,0,0,0-1-.7,2.08,2.08,0,0,1,.63.57,7.31,7.31,0,0,1-2-.47s.28.15.59.29a8.78,8.78,0,0,1-2.11-.33.89.89,0,0,0,.29.14A2.72,2.72,0,0,1,26.61,94.62Z" fill="#5c9423"/><path d="M30.42,94.69a2.77,2.77,0,0,0-1-.39,7.1,7.1,0,0,1,3.6.73,4.59,4.59,0,0,0-1.45-.86,5.56,5.56,0,0,1,1.92.21l0,0a4.38,4.38,0,0,1,.94.2,9.09,9.09,0,0,0-7.82.06A7.77,7.77,0,0,1,30.42,94.69Z" fill="#93c925"/><path d="M26.66,94.69a7.62,7.62,0,0,1,3.08-1.35,2.41,2.41,0,0,0-.91.1,3.56,3.56,0,0,1,1.77-.58,1.63,1.63,0,0,0-1,.09,13.32,13.32,0,0,0,1.91-.77c.24-.22,1.05-.81,1.05-.81a3,3,0,0,0-1.45,0,3.61,3.61,0,0,1,1.55-.1,2.17,2.17,0,0,1,1.3-.88,2.48,2.48,0,0,0-1.16-.08,3.38,3.38,0,0,1,1.49-.09,2.91,2.91,0,0,0-3.2-.06,13.36,13.36,0,0,0-4.47,4S26.11,95.14,26.66,94.69Z" fill="#5c9423"/><path d="M34.34,90.2a2.91,2.91,0,0,0-3.2-.06,13.36,13.36,0,0,0-4.47,4s-.32.56-.24.64a4.08,4.08,0,0,1,2.11-1.71,1.89,1.89,0,0,0-.66.1,8.53,8.53,0,0,1,5-2.92A3.34,3.34,0,0,1,34.34,90.2Z" fill="#93c925"/><path d="M26.83,94.48a7.3,7.3,0,0,0-2.15,2.39,2.11,2.11,0,0,1,.37-.8A3.37,3.37,0,0,0,24,97.5a1.48,1.48,0,0,1,.37-.83,11.89,11.89,0,0,1-1.28,1.49c-.26.15-1,.71-1,.71a2.76,2.76,0,0,1,.41-1.32,3.56,3.56,0,0,0-.56,1.38,2,2,0,0,0-1.18.92A2.38,2.38,0,0,1,21,98.77a3.27,3.27,0,0,0-.53,1.32,2.79,2.79,0,0,1,.92-2.92,12.92,12.92,0,0,1,5-2.85S27.41,94.11,26.83,94.48Z" fill="#5c9423"/><path d="M26.28,94.62a11.52,11.52,0,0,0-4.49,2.57A2.48,2.48,0,0,0,21,99.81a2.9,2.9,0,0,1,.47-1.19l0,.09a4.74,4.74,0,0,1,2.19-2.37,2.31,2.31,0,0,0-.33.86,6.39,6.39,0,0,1,3.58-2.56C26.94,94.49,26.28,94.62,26.28,94.62Z" fill="#93c925"/><path d="M27,94.67a6.25,6.25,0,0,0-5.28-1.89c-3.6.24-3.55,2.07-3.58,2.53a3.87,3.87,0,0,0,.19,1.48,4,4,0,0,1-.05-1.39,3.15,3.15,0,0,0,.32,1.16,4.23,4.23,0,0,1,.25-1.42,4.79,4.79,0,0,0,.1.94s.38-1.33,1.15-1.69a2.33,2.33,0,0,0-.15.91,2.33,2.33,0,0,1,.21-.65,1.91,1.91,0,0,0,.07,1,4.55,4.55,0,0,1,.57-1.05,2.34,2.34,0,0,0-.07.87s.61-1.13,1.53-1.18c0,0-.3,0-.5.68A1.87,1.87,0,0,1,24,94.2s-.62,0-.86.79c0,0,.11-.68,1.21-.63S26.42,95.14,27,94.67Z" fill="#5c9423"/><path d="M21.75,92.78c-3.6.24-3.55,2.07-3.58,2.53a3.87,3.87,0,0,0,.19,1.48,4,4,0,0,1-.05-1.39v0c.06-1.64,1.34-1.48,1.34-1.48a.9.9,0,0,0-.38.6c.93-1.3,3.92-1.25,3.56-1.22a1.69,1.69,0,0,0-.77.45,3.7,3.7,0,0,1,1.35-.35A8.1,8.1,0,0,1,27,94.59,6.35,6.35,0,0,0,21.75,92.78Z" fill="#93c925"/><path d="M26.57,94.62a5.68,5.68,0,0,1,.89-5c1.81-2.73,3.23-1.86,3.6-1.68a3.41,3.41,0,0,1,1.08.81,3.55,3.55,0,0,0-1.07-.66,2.82,2.82,0,0,1,.77.77,3.88,3.88,0,0,0-1.23-.44,4.77,4.77,0,0,1,.69.5,2.74,2.74,0,0,0-1.84.15,2.09,2.09,0,0,1,.78.29,1.91,1.91,0,0,0-.61-.13,1.73,1.73,0,0,1,.76.51,4.55,4.55,0,0,0-1.08,0A2,2,0,0,1,30,90s-1.16,0-1.61.67c0,0,.16-.21.76-.09A1.72,1.72,0,0,0,27.57,92a.82.82,0,0,1,1-.33s-.58-.21-1,.67S27.22,94.35,26.57,94.62Z" fill="#5c9423"/><path d="M28.26,90.19a1.89,1.89,0,0,0-1,.67s1.36-2.76,3.41-2.59a1.13,1.13,0,0,0-.91,0,1.47,1.47,0,0,1,1.4-.26.67.67,0,0,0-.12-.06c-.37-.18-1.79-1.05-3.6,1.68a5.68,5.68,0,0,0-.89,5S26.55,91.11,28.26,90.19Z" fill="#93c925"/><path d="M26.48,94.44a11.65,11.65,0,0,1,4.77,2.29c2.51,1.93,2.52,3.57,2.52,3.57a2.52,2.52,0,0,0-.6-1.08,1.66,1.66,0,0,1,.32.75,3.52,3.52,0,0,1-1.63-1,5.49,5.49,0,0,1-.93-1.55,3.23,3.23,0,0,0,.51,1.44,3,3,0,0,1-.57-.84,1.67,1.67,0,0,0,.11.5,2.85,2.85,0,0,1-1.54-1.8,2.78,2.78,0,0,0,.23.82,1.11,1.11,0,0,1-.31-.55C29.24,96.58,26.8,95.85,26.48,94.44Z" fill="#5c9423"/><path d="M31.25,96.73a11.65,11.65,0,0,0-4.77-2.29.57.57,0,0,0,0,.14c.89.27,2.95,1,3.4,1.69a3.44,3.44,0,0,1,.6,1.35,3.43,3.43,0,0,0-.18-1.29,11.4,11.4,0,0,1,2.84,2.9,2.49,2.49,0,0,1,.59,1.07S33.76,98.66,31.25,96.73Z" fill="#93c925"/><path d="M26.54,94.13s-1.78-4.84-4.27-5.25a2.43,2.43,0,0,0-3,1.63,2.09,2.09,0,0,1,.7-.84,1.37,1.37,0,0,0-.11.8,1.7,1.7,0,0,1,1.46-1.1A2.18,2.18,0,0,0,20.1,90.5a3.18,3.18,0,0,0,2.06,0c1-.38,1.48-.3,1.78.18a1.61,1.61,0,0,0-1.62,0s1.09-.27,1.49.13a1,1,0,0,0-1,.08,4.68,4.68,0,0,0,1.58,1.19c1.23.68-.53,1,1.77,2.26l.39.26Z" fill="#5c9423"/><path d="M22.27,88.88a2.43,2.43,0,0,0-3,1.63,2.09,2.09,0,0,1,.7-.84l0,0a2.47,2.47,0,0,1,3.25,0,1.71,1.71,0,0,0-.8,0C24,89.72,25.3,92,25.3,92a1.05,1.05,0,0,0-.37-.1c.95.59,1.64,2.7,1.64,2.7l0-.49S24.76,89.29,22.27,88.88Z" fill="#93c925"/><path d="M26.4,94.07a9,9,0,0,0-1.24-7.56,4.83,4.83,0,0,1,.35.87,4.87,4.87,0,0,0-1.49-1,9.81,9.81,0,0,0,.49,1.8,4.41,4.41,0,0,0,.87,1.2,1.9,1.9,0,0,0-.75-.48,2.48,2.48,0,0,1,.85.89,2.05,2.05,0,0,0-.65-.52,7.18,7.18,0,0,0,.78,1.88s-.19-.24-.37-.51a8.51,8.51,0,0,0,.66,2,1.09,1.09,0,0,1-.18-.25A2.7,2.7,0,0,0,26.4,94.07Z" fill="#5c9423"/><path d="M26.08,89.22a1.71,1.71,0,0,0-.47-.42c1.11,1.56.82,4.4.72,5.19a.27.27,0,0,0,.07.08,9,9,0,0,0-1.24-7.56,4.83,4.83,0,0,1,.35.87,4.87,4.87,0,0,0-1.49-1C26.07,88,26.08,89.22,26.08,89.22Z" fill="#93c925"/><path d="M31.2,102.56S29.64,114,29.54,117.83l-1.14-.11s2.19-12.08,2.43-15.23C30.83,102.49,31.18,101.62,31.2,102.56Z" fill="#e38329"/><path d="M28.4,117.72s2.19-12.08,2.43-15.23a1.48,1.48,0,0,1,.16-.38c-.09.74-.36,3-.44,3.6s-.76,5.87-.76,5.87l-.58,4.49L29,117.78Z" fill="#d1d3d4" style="mix-blend-mode:multiply"/><path d="M30.91,102.6a6.08,6.08,0,0,0-5.16-1,3,3,0,0,1,.64,0s-.85.42-1,.72a7.39,7.39,0,0,0,1.27.1,2.89,2.89,0,0,0,1-.28,1.34,1.34,0,0,0-.49.37,1.77,1.77,0,0,1,.78-.34,1.46,1.46,0,0,0-.49.3,4.92,4.92,0,0,0,1.4-.07l-.42.13a6.18,6.18,0,0,0,1.42,0,1,1,0,0,1-.2.06A1.9,1.9,0,0,0,30.91,102.6Z" fill="#5c9423"/><path d="M28.38,102.19a2.14,2.14,0,0,1,.68-.15,4.83,4.83,0,0,0-2.46.06,3.13,3.13,0,0,1,1.06-.4,3.86,3.86,0,0,0-1.29-.08h0a3,3,0,0,0-.64,0,6.08,6.08,0,0,1,5.16,1A5.2,5.2,0,0,0,28.38,102.19Z" fill="#93c925"/><path d="M30.87,102.63A5.1,5.1,0,0,0,29,101.38a1.58,1.58,0,0,1,.59.17,2.38,2.38,0,0,0-1.1-.59,1.1,1.1,0,0,1,.62.17,8.52,8.52,0,0,1-1.17-.74c-.13-.17-.6-.65-.6-.65a2.05,2.05,0,0,1,1,.15,2.6,2.6,0,0,0-1-.25,1.49,1.49,0,0,0-.76-.73,1.79,1.79,0,0,1,.78.08,2.29,2.29,0,0,0-1-.23,1.94,1.94,0,0,1,2.12.34,9,9,0,0,1,2.49,3.19S31.18,103,30.87,102.63Z" fill="#5c9423"/><path d="M26.32,98.76a1.94,1.94,0,0,1,2.12.34,9,9,0,0,1,2.49,3.19s.14.4.08.44a2.77,2.77,0,0,0-1.2-1.38,1.34,1.34,0,0,1,.43.15,5.76,5.76,0,0,0-3-2.53A2.33,2.33,0,0,0,26.32,98.76Z" fill="#93c925"/><path d="M30.78,102.47a4.87,4.87,0,0,1,1.14,1.84,1.47,1.47,0,0,0-.15-.57,2.27,2.27,0,0,1,.53,1.07,1,1,0,0,0-.14-.6,8.85,8.85,0,0,0,.66,1.14c.16.13.61.6.61.6a1.93,1.93,0,0,0-.12-.92,2.22,2.22,0,0,1,.21,1,1.37,1.37,0,0,1,.67.75,1.65,1.65,0,0,0,0-.75,2.09,2.09,0,0,1,.19.94,1.87,1.87,0,0,0-.26-2,8.41,8.41,0,0,0-3-2.47S30.44,102.17,30.78,102.47Z" fill="#5c9423"/><path d="M31.13,102.64a7.61,7.61,0,0,1,2.66,2.22,1.66,1.66,0,0,1,.23,1.83,1.85,1.85,0,0,0-.17-.84.64.64,0,0,1,0,.07,3.34,3.34,0,0,0-1.17-1.84,1.66,1.66,0,0,1,.11.61,4.28,4.28,0,0,0-2.06-2.11C30.71,102.47,31.13,102.64,31.13,102.64Z" fill="#93c925"/><path d="M30.62,102.57a4.24,4.24,0,0,1,3.72-.62c2.35.59,2.1,1.79,2.07,2.1a2.7,2.7,0,0,1-.3,1,2.67,2.67,0,0,0,.2-.91,2.24,2.24,0,0,1-.35.73,2.93,2.93,0,0,0,0-1,3.61,3.61,0,0,1-.18.61,2,2,0,0,0-.56-1.25,1.57,1.57,0,0,1,0,.62,1.47,1.47,0,0,0-.06-.46A1.35,1.35,0,0,1,35,104a3.17,3.17,0,0,0-.26-.77,1.38,1.38,0,0,1-.06.59s-.26-.82-.87-1c0,0,.2,0,.26.51a1.26,1.26,0,0,0-1.36-.77s.42,0,.47.62c0,0,0-.46-.72-.56S31,103,30.62,102.57Z" fill="#5c9423"/><path d="M34.34,102c2.35.59,2.1,1.79,2.07,2.1a2.7,2.7,0,0,1-.3,1,2.67,2.67,0,0,0,.2-.91v0c.15-1.09-.72-1.14-.72-1.14a.61.61,0,0,1,.19.45c-.46-1-2.45-1.29-2.21-1.23a1.2,1.2,0,0,1,.46.39,2.52,2.52,0,0,0-.86-.39,5.36,5.36,0,0,0-2.48.33A4.27,4.27,0,0,1,34.34,102Z" fill="#93c925"/><path d="M30.94,102.6a3.84,3.84,0,0,0,0-3.42c-.88-2-1.91-1.61-2.18-1.54a2.35,2.35,0,0,0-.81.42,2.43,2.43,0,0,1,.78-.32,1.91,1.91,0,0,0-.59.42A2.55,2.55,0,0,1,29,98a3.07,3.07,0,0,0-.52.25,1.83,1.83,0,0,1,1.2.31,1.51,1.51,0,0,0-.55.1,1.52,1.52,0,0,1,.42,0,1.21,1.21,0,0,0-.56.24,2.81,2.81,0,0,1,.72.12,1.29,1.29,0,0,0-.51.14s.76.11,1,.63c0,0-.08-.16-.49-.15a1.14,1.14,0,0,1,.89,1.1s-.1-.37-.63-.33c0,0,.41-.07.61.56S30.54,102.34,30.94,102.6Z" fill="#5c9423"/><path d="M30.34,99.47a1.31,1.31,0,0,1,.57.56s-.57-2-1.94-2.11a.75.75,0,0,1,.6.09,1,1,0,0,0-.9-.34l.09,0c.27-.07,1.3-.47,2.18,1.54a3.84,3.84,0,0,1,0,3.42S31.36,100.28,30.34,99.47Z" fill="#93c925"/><path d="M31,102.49a7.87,7.87,0,0,0-3.43,1c-1.88,1-2.09,2.06-2.09,2.06a1.81,1.81,0,0,1,.53-.64,1.17,1.17,0,0,0-.3.46,2.38,2.38,0,0,0,1.2-.48,3.77,3.77,0,0,0,.8-.92,2.2,2.2,0,0,1-.51.89,2,2,0,0,0,.47-.48,1,1,0,0,1-.13.31,1.93,1.93,0,0,0,1.24-1,1.83,1.83,0,0,1-.25.52.82.82,0,0,0,.27-.33C28.94,103.58,30.64,103.38,31,102.49Z" fill="#5c9423"/><path d="M27.59,103.44a7.87,7.87,0,0,1,3.43-1l0,.09a5.41,5.41,0,0,0-2.45.71,2.31,2.31,0,0,0-.56.83,2.39,2.39,0,0,1,.27-.84A8,8,0,0,0,26,104.86a1.73,1.73,0,0,0-.52.64S25.71,104.42,27.59,103.44Z" fill="#93c925"/><path d="M31,102.28s1.74-3,3.44-3a1.64,1.64,0,0,1,1.8,1.43,1.44,1.44,0,0,0-.37-.63.93.93,0,0,1,0,.54s-.15-.79-.84-.9a1.48,1.48,0,0,1,.67.89,2.14,2.14,0,0,1-1.37-.22c-.58-.37-.94-.38-1.19-.1a1.08,1.08,0,0,1,1.07.19s-.69-.3-1-.09a.68.68,0,0,1,.64.17,3.15,3.15,0,0,1-1.19.6c-.89.3.24.69-1.44,1.29l-.28.12Z" fill="#5c9423"/><path d="M34.46,99.31a1.64,1.64,0,0,1,1.8,1.43,1.44,1.44,0,0,0-.37-.63.08.08,0,0,0,0,0,1.67,1.67,0,0,0-2.15-.39,1.14,1.14,0,0,1,.53.09c-1.08-.18-2.19,1.19-2.19,1.19a.61.61,0,0,1,.25,0c-.7.28-1.4,1.59-1.4,1.59l.08-.32S32.76,99.29,34.46,99.31Z" fill="#93c925"/><path d="M31.12,102.26a6,6,0,0,1,1.71-4.85,3.43,3.43,0,0,0-.34.53,3.41,3.41,0,0,1,1.11-.51,6.72,6.72,0,0,1-.54,1.14,2.94,2.94,0,0,1-.71.69A1.21,1.21,0,0,1,32.9,99a1.71,1.71,0,0,0-.67.48,1.56,1.56,0,0,1,.49-.26A4.62,4.62,0,0,1,32,100.4a2.94,2.94,0,0,0,.31-.3,5.66,5.66,0,0,1-.67,1.23.7.7,0,0,0,.15-.14A1.8,1.8,0,0,1,31.12,102.26Z" fill="#5c9423"/><path d="M31.9,99.09a1.3,1.3,0,0,1,.36-.23,5.62,5.62,0,0,0-1.09,3.35l-.05.05a6,6,0,0,1,1.71-4.85,3.43,3.43,0,0,0-.34.53,3.41,3.41,0,0,1,1.11-.51C32.05,98.3,31.9,99.09,31.9,99.09Z" fill="#93c925"/><path d="M21.32,101.33s.32,13,.9,17.27l-1.28.07s.26-13.81,0-17.35C20.9,101.32,21.12,100.29,21.32,101.33Z" fill="#e38329"/><path d="M20.94,118.67s.26-13.81,0-17.35a1.77,1.77,0,0,1,.1-.45c0,.84.14,3.38.16,4.08s.21,6.65.21,6.65l.17,5.1.11,1.93Z" fill="#d1d3d4" style="mix-blend-mode:multiply"/><path d="M21,101.42a6.89,6.89,0,0,0-5.92-.14,4,4,0,0,1,.72-.14s-.87.62-1,1a8,8,0,0,0,1.43-.11,3.45,3.45,0,0,0,1-.49,1.36,1.36,0,0,0-.47.5,2,2,0,0,1,.79-.52,1.63,1.63,0,0,0-.48.42,5.31,5.31,0,0,0,1.54-.33,4.56,4.56,0,0,1-.45.22,6.79,6.79,0,0,0,1.59-.23.68.68,0,0,1-.21.11A2.07,2.07,0,0,0,21,101.42Z" fill="#5c9423"/><path d="M18.12,101.43a2.27,2.27,0,0,1,.73-.29,5.39,5.39,0,0,0-2.72.51,3.48,3.48,0,0,1,1.1-.63,4.1,4.1,0,0,0-1.45.14l0,0a4,4,0,0,0-.72.14,6.89,6.89,0,0,1,5.92.14A6,6,0,0,0,18.12,101.43Z" fill="#93c925"/><path d="M21,101.47a5.8,5.8,0,0,0-2.31-1.06,1.85,1.85,0,0,1,.69.09A2.71,2.71,0,0,0,18,100a1.24,1.24,0,0,1,.72.08,9.34,9.34,0,0,1-1.44-.61c-.17-.16-.78-.62-.78-.62a2.24,2.24,0,0,1,1.09,0,2.74,2.74,0,0,0-1.17-.09,1.64,1.64,0,0,0-1-.68,1.85,1.85,0,0,1,.88-.05A2.5,2.5,0,0,0,15.22,98a2.2,2.2,0,0,1,2.42,0,10.33,10.33,0,0,1,3.33,3.1S21.37,101.82,21,101.47Z" fill="#5c9423"/><path d="M15.22,98a2.2,2.2,0,0,1,2.42,0,10.33,10.33,0,0,1,3.33,3.1s.23.42.17.48a3.2,3.2,0,0,0-1.58-1.32,1.41,1.41,0,0,1,.5.09,6.45,6.45,0,0,0-3.76-2.27A2.6,2.6,0,0,0,15.22,98Z" fill="#93c925"/><path d="M20.84,101.31a5.49,5.49,0,0,1,1.59,1.83,1.55,1.55,0,0,0-.27-.6,2.57,2.57,0,0,1,.79,1.09,1.13,1.13,0,0,0-.27-.64,9.44,9.44,0,0,0,.95,1.15c.19.12.77.55.77.55a2.07,2.07,0,0,0-.29-1,2.61,2.61,0,0,1,.4,1,1.53,1.53,0,0,1,.88.7,1.78,1.78,0,0,0-.18-.82,2.56,2.56,0,0,1,.38,1,2.1,2.1,0,0,0-.66-2.22,9.58,9.58,0,0,0-3.73-2.21S20.41,101,20.84,101.31Z" fill="#5c9423"/><path d="M21.25,101.43a8.64,8.64,0,0,1,3.36,2,1.89,1.89,0,0,1,.59,2,2.22,2.22,0,0,0-.34-.9.64.64,0,0,1,0,.07,3.63,3.63,0,0,0-1.63-1.83,1.69,1.69,0,0,1,.24.66,4.87,4.87,0,0,0-2.67-2C20.76,101.32,21.25,101.43,21.25,101.43Z" fill="#93c925"/><path d="M20.68,101.45a4.73,4.73,0,0,1,4-1.36c2.71.23,2.65,1.61,2.67,2a2.94,2.94,0,0,1-.16,1.12,3.22,3.22,0,0,0,.06-1A2.23,2.23,0,0,1,27,103a3.15,3.15,0,0,0-.18-1.07,3.58,3.58,0,0,1-.08.71s-.27-1-.85-1.29a1.75,1.75,0,0,1,.1.69,1.8,1.8,0,0,0-.15-.5,1.53,1.53,0,0,1-.06.76,3.9,3.9,0,0,0-.42-.8,1.67,1.67,0,0,1,0,.66s-.44-.86-1.14-.92c0,0,.22,0,.37.53a1.41,1.41,0,0,0-1.65-.61s.48,0,.65.6c0,0-.08-.51-.91-.49S21.14,101.82,20.68,101.45Z" fill="#5c9423"/><path d="M24.7,100.09c2.71.23,2.65,1.61,2.67,2a2.94,2.94,0,0,1-.16,1.12,3.22,3.22,0,0,0,.06-1v0c0-1.24-1-1.14-1-1.14a.7.7,0,0,1,.28.46c-.69-1-2.95-1-2.68-1a1.27,1.27,0,0,1,.58.35,2.74,2.74,0,0,0-1-.28,6.23,6.23,0,0,0-2.7.81A4.85,4.85,0,0,1,24.7,100.09Z" fill="#93c925"/><path d="M21,101.42a4.31,4.31,0,0,0-.62-3.79c-1.33-2.09-2.42-1.45-2.7-1.32a2.53,2.53,0,0,0-.82.6,2.57,2.57,0,0,1,.81-.48,2.08,2.08,0,0,0-.59.57,3.06,3.06,0,0,1,.94-.32,3.82,3.82,0,0,0-.53.37,2.07,2.07,0,0,1,1.39.14,1.6,1.6,0,0,0-.6.21,1.9,1.9,0,0,1,.47-.1,1.36,1.36,0,0,0-.58.38,3.32,3.32,0,0,1,.82,0,1.55,1.55,0,0,0-.55.25s.88,0,1.21.53c0,0-.12-.17-.57-.08a1.29,1.29,0,0,1,1.19,1.07.61.61,0,0,0-.76-.26s.44-.16.78.52S20.55,101.21,21,101.42Z" fill="#5c9423"/><path d="M19.81,98.05a1.49,1.49,0,0,1,.73.52s-1-2.1-2.54-2a.82.82,0,0,1,.68,0,1.1,1.1,0,0,0-1.05-.21l.09,0c.28-.13,1.37-.77,2.7,1.32a4.29,4.29,0,0,1,.61,3.79S21.09,98.77,19.81,98.05Z" fill="#93c925"/><path d="M21.11,101.29A8.79,8.79,0,0,0,17.47,103c-1.92,1.42-1.95,2.67-1.95,2.67a2,2,0,0,1,.47-.82,1.39,1.39,0,0,0-.25.57,2.64,2.64,0,0,0,1.24-.75,4.39,4.39,0,0,0,.73-1.16,2.52,2.52,0,0,1-.41,1.08,2.31,2.31,0,0,0,.44-.63,1,1,0,0,1-.09.38A2.14,2.14,0,0,0,18.84,103a2.15,2.15,0,0,1-.18.61.87.87,0,0,0,.24-.41C19,102.87,20.84,102.35,21.11,101.29Z" fill="#5c9423"/><path d="M17.47,103a8.79,8.79,0,0,1,3.64-1.67.42.42,0,0,1,0,.1c-.68.2-2.24.69-2.59,1.24a2.58,2.58,0,0,0-.47,1,2.71,2.71,0,0,1,.15-1A9.16,9.16,0,0,0,16,104.82a2.07,2.07,0,0,0-.46.81S15.55,104.38,17.47,103Z" fill="#93c925"/><path d="M21.06,101.05s1.4-3.63,3.3-3.91a1.83,1.83,0,0,1,2.25,1.26,1.67,1.67,0,0,0-.53-.64,1,1,0,0,1,.08.61,1.27,1.27,0,0,0-1.09-.85,1.66,1.66,0,0,1,.9.87,2.45,2.45,0,0,1-1.56,0c-.72-.3-1.11-.25-1.34.11a1.23,1.23,0,0,1,1.22,0s-.82-.21-1.13.08a.78.78,0,0,1,.74.07,3.44,3.44,0,0,1-1.2.89c-.94.5.39.72-1.37,1.68l-.3.19Z" fill="#5c9423"/><path d="M24.36,97.14a1.83,1.83,0,0,1,2.25,1.26,1.67,1.67,0,0,0-.53-.64l0,0a1.85,1.85,0,0,0-2.45,0,1.25,1.25,0,0,1,.6,0C23,97.75,22,99.47,22,99.47a.91.91,0,0,1,.28-.07,4.8,4.8,0,0,0-1.28,2l0-.37S22.46,97.42,24.36,97.14Z" fill="#93c925"/><path d="M21.17,101a6.74,6.74,0,0,1,1-5.7,3.65,3.65,0,0,0-.28.66,3.73,3.73,0,0,1,1.14-.76,8,8,0,0,1-.39,1.35,3.42,3.42,0,0,1-.67.9,1.39,1.39,0,0,1,.57-.36,2,2,0,0,0-.65.66,1.56,1.56,0,0,1,.5-.38,5.37,5.37,0,0,1-.62,1.41s.15-.18.29-.38a6.72,6.72,0,0,1-.53,1.48.64.64,0,0,0,.14-.19A2,2,0,0,1,21.17,101Z" fill="#5c9423"/><path d="M21.47,97.35a1.58,1.58,0,0,1,.36-.32c-.86,1.18-.68,3.32-.61,3.92l0,.06a6.74,6.74,0,0,1,1-5.7,3.65,3.65,0,0,0-.28.66,3.73,3.73,0,0,1,1.14-.76C21.49,96.45,21.47,97.35,21.47,97.35Z" fill="#93c925"/><path d="M8.2,96.7s1.43,15.57,1.33,20.77l1.55-.09S8.84,100.91,8.71,96.64C8.71,96.64,8.3,95.43,8.2,96.7Z" fill="#e38329"/><path d="M11.08,117.38S8.84,100.91,8.71,96.64a1.71,1.71,0,0,0-.19-.53c.08,1,.3,4.06.38,4.9.09,1,.67,8,.67,8l.51,6.12.14,2.32Z" fill="#d1d3d4" style="mix-blend-mode:multiply"/><path d="M8.6,96.77a8.29,8.29,0,0,1,7-1,5,5,0,0,0-.87-.07,4.7,4.7,0,0,1,1.33,1,8.69,8.69,0,0,1-1.73.07,4.18,4.18,0,0,1-1.31-.44,1.89,1.89,0,0,1,.64.53,2.38,2.38,0,0,0-1-.51,2,2,0,0,1,.64.44,6.71,6.71,0,0,1-1.88-.18,4.78,4.78,0,0,0,.56.19,7.93,7.93,0,0,1-1.93,0,.93.93,0,0,0,.27.09A2.47,2.47,0,0,1,8.6,96.77Z" fill="#5c9423"/><path d="M12,96.38a2.74,2.74,0,0,0-.91-.24,6.52,6.52,0,0,1,3.33.23,4.15,4.15,0,0,0-1.41-.6,5.1,5.1,0,0,1,1.75,0l0,0a5,5,0,0,1,.87.07,8.29,8.29,0,0,0-7,1A7.09,7.09,0,0,1,12,96.38Z" fill="#93c925"/><path d="M8.65,96.83a6.92,6.92,0,0,1,2.62-1.59,2.07,2.07,0,0,0-.81.21A3.28,3.28,0,0,1,12,94.71a1.43,1.43,0,0,0-.84.19A11.77,11.77,0,0,0,12.77,94c.18-.22.85-.85.85-.85a2.6,2.6,0,0,0-1.31.15A3.32,3.32,0,0,1,13.69,93a2,2,0,0,1,1.07-.94,2.15,2.15,0,0,0-1,.06A3,3,0,0,1,15,91.86a2.66,2.66,0,0,0-2.9.34A12,12,0,0,0,8.6,96.36S8.21,97.3,8.65,96.83Z" fill="#5c9423"/><path d="M15,91.86a2.66,2.66,0,0,0-2.9.34A12,12,0,0,0,8.6,96.36s-.22.53-.14.6a3.74,3.74,0,0,1,1.7-1.8,1.68,1.68,0,0,0-.59.17,7.76,7.76,0,0,1,4.19-3.23A3.05,3.05,0,0,1,15,91.86Z" fill="#93c925"/><path d="M8.78,96.62A6.59,6.59,0,0,0,7.13,99a1.94,1.94,0,0,1,.24-.76,3.09,3.09,0,0,0-.79,1.41,1.37,1.37,0,0,1,.23-.79,11.39,11.39,0,0,1-1,1.5c-.22.17-.85.76-.85.76a2.47,2.47,0,0,1,.21-1.23,3.25,3.25,0,0,0-.34,1.3,1.89,1.89,0,0,0-1,1,2.19,2.19,0,0,1,.11-1,2.92,2.92,0,0,0-.31,1.25,2.51,2.51,0,0,1,.47-2.74,11.55,11.55,0,0,1,4.15-3.16S9.25,96.22,8.78,96.62Z" fill="#5c9423"/><path d="M8.3,96.82a10.39,10.39,0,0,0-3.73,2.84,2.29,2.29,0,0,0-.43,2.47A2.66,2.66,0,0,1,4.42,101s0,.06,0,.09a4.46,4.46,0,0,1,1.69-2.41,2.08,2.08,0,0,0-.19.82,5.84,5.84,0,0,1,2.92-2.74C8.88,96.62,8.3,96.82,8.3,96.82Z" fill="#93c925"/><path d="M9,96.76A5.72,5.72,0,0,0,4,95.7C.78,96.35,1.05,98,1.08,98.4a3.62,3.62,0,0,0,.34,1.32,3.78,3.78,0,0,1-.21-1.25,2.79,2.79,0,0,0,.43,1,3.61,3.61,0,0,1,.06-1.31,4.75,4.75,0,0,0,.2.83s.18-1.24.83-1.65a2,2,0,0,0,0,.83,2,2,0,0,1,.1-.61,1.77,1.77,0,0,0,.19.89,4.36,4.36,0,0,1,.39-1,2,2,0,0,0,0,.79S3.84,97.15,4.67,97c0,0-.27.07-.37.68a1.7,1.7,0,0,1,1.88-1s-.57,0-.68.81c0,0,0-.62,1-.71S8.49,97.26,9,96.76Z" fill="#5c9423"/><path d="M4,95.7C.78,96.35,1.05,98,1.08,98.4a3.62,3.62,0,0,0,.34,1.32,3.78,3.78,0,0,1-.21-1.25v0C1.08,97,2.25,97,2.25,97a.84.84,0,0,0-.28.59C2.66,96.33,5.36,96,5,96.08a1.54,1.54,0,0,0-.64.5,3.36,3.36,0,0,1,1.18-.48,7.31,7.31,0,0,1,3.34.6A5.79,5.79,0,0,0,4,95.7Z" fill="#93c925"/><path d="M8.56,96.78a5.17,5.17,0,0,1,.21-4.63c1.3-2.67,2.68-2.06,3-1.94a3.4,3.4,0,0,1,1.07.6,3.44,3.44,0,0,0-1-.47,2.41,2.41,0,0,1,.78.61,3.34,3.34,0,0,0-1.16-.25,4.15,4.15,0,0,1,.69.37,2.51,2.51,0,0,0-1.65.35,2,2,0,0,1,.74.17,1.82,1.82,0,0,0-.56,0,1.68,1.68,0,0,1,.74.37,4.14,4.14,0,0,0-1,.11,1.81,1.81,0,0,1,.69.22s-1.05.11-1.38.8c0,0,.12-.22.68-.17A1.54,1.54,0,0,0,9.16,94.3s.15-.49.86-.41c0,0-.55-.12-.85.73S9.11,96.45,8.56,96.78Z" fill="#5c9423"/><path d="M9.55,92.58a1.75,1.75,0,0,0-.8.72s.9-2.65,2.76-2.74a1,1,0,0,0-.81.09,1.31,1.31,0,0,1,1.22-.4l-.11,0c-.36-.12-1.74-.73-3,1.94a5.17,5.17,0,0,0-.21,4.63S8.13,93.62,9.55,92.58Z" fill="#93c925"/><path d="M8.46,96.63A10.6,10.6,0,0,1,13,98.12c2.49,1.43,2.7,2.92,2.7,2.92a2.32,2.32,0,0,0-.68-.91,1.53,1.53,0,0,1,.38.64,3.21,3.21,0,0,1-1.59-.72,5.05,5.05,0,0,1-1-1.29,3.1,3.1,0,0,0,.64,1.24,3,3,0,0,1-.62-.69,1.49,1.49,0,0,0,.16.44,2.57,2.57,0,0,1-1.6-1.44,2.42,2.42,0,0,0,.3.71,1,1,0,0,1-.34-.46C11.21,98.23,8.92,97.86,8.46,96.63Z" fill="#5c9423"/><path d="M13,98.12a10.6,10.6,0,0,0-4.58-1.49.61.61,0,0,0,0,.12c.84.14,2.78.51,3.27,1.11a3,3,0,0,1,.7,1.15,3.44,3.44,0,0,0-.31-1.15,10.79,10.79,0,0,1,2.9,2.28,2.44,2.44,0,0,1,.67.9S15.53,99.55,13,98.12Z" fill="#93c925"/><path d="M8.48,96.34S6.3,92.19,4,92.12A2.21,2.21,0,0,0,1.48,94,1.94,1.94,0,0,1,2,93.1a1.24,1.24,0,0,0,0,.74A1.57,1.57,0,0,1,3.2,92.67a2,2,0,0,0-1,1.17,2.86,2.86,0,0,0,1.86-.22c.82-.46,1.29-.45,1.63-.05a1.5,1.5,0,0,0-1.47.18s1-.37,1.36-.06a.91.91,0,0,0-.87.19,4.15,4.15,0,0,0,1.56.89c1.2.46-.36.92,1.87,1.82l.38.19Z" fill="#5c9423"/><path d="M4,92.12A2.21,2.21,0,0,0,1.48,94,1.94,1.94,0,0,1,2,93.1l0,.05a2.25,2.25,0,0,1,2.93-.4,1.46,1.46,0,0,0-.72.09c1.47-.17,2.89,1.74,2.89,1.74a1.13,1.13,0,0,0-.34,0c.93.42,1.8,2.24,1.8,2.24l-.08-.44S6.3,92.19,4,92.12Z" fill="#93c925"/><path d="M8.34,96.3a8.1,8.1,0,0,0-2-6.66,4.35,4.35,0,0,1,.42.74,4.45,4.45,0,0,0-1.46-.75,8.58,8.58,0,0,0,.65,1.56,4.07,4.07,0,0,0,.93,1,1.76,1.76,0,0,0-.73-.34,2.29,2.29,0,0,1,.87.7,2,2,0,0,0-.65-.39,6.45,6.45,0,0,0,.93,1.6s-.2-.19-.4-.42A8.1,8.1,0,0,0,7.72,95a1.1,1.1,0,0,1-.2-.2A2.43,2.43,0,0,0,8.34,96.3Z" fill="#5c9423"/><path d="M7.48,92A1.81,1.81,0,0,0,7,91.64c1.19,1.28,1.27,3.87,1.27,4.6l.07.06a8.1,8.1,0,0,0-2-6.66,4.35,4.35,0,0,1,.42.74,4.45,4.45,0,0,0-1.46-.75C7.32,90.89,7.48,92,7.48,92Z" fill="#93c925"/><path d="M91.07,120.32s-4.62.44-5.1.41-.49.79-6.88.59-5.83.76-12.7.41a63.88,63.88,0,0,0-10.47.08c-2.4.13-5.86,1.64-10.42,1.16s-9.71,1.1-12.43.55-4.44,2.14-10,1.39-7.72,1.48-9.72,1-2.8.14-6.59-.07L0,125.47V112.71s5-.21,5.39.34,1-.07,2.32.34,2,.9,3.13.49.54-1.45,3.34-.49,6.39-.72,6.39-.72,5.79-.52,6.39,0,.62-.78,4.41-.23,3.78.54,3.18,1.23-.45,1.78,2.69,1.78,6.57-.61,5.74.22,2.63.87,2.93.79,1.35-.36,1.65-.1a5.49,5.49,0,0,0,2.62.51c.67-.1.6-.56,2-.1a16.51,16.51,0,0,0,5.47.65c1.42-.16,2.32-.49,3.52-.13a12.3,12.3,0,0,0,3.29.41c1.12,0,2-.34,2.47.13s0,.62,2,.62,2.7-.28,3.45,0a3.75,3.75,0,0,0,2.62.71c1.87-.06,2.39,0,2.77.17a11.67,11.67,0,0,0,2.69.23c.9,0,2.55-.2,3.3.11s4,.12,4.12.28,3.59,0,3.22.13S93.2,120.13,91.07,120.32Z" fill="#5c9423"/><path d="M5.39,113.05c.4.55,1-.07,2.32.34s2,.9,3.13.49.54-1.45,3.34-.49,6.39-.72,6.39-.72,5.79-.52,6.39,0,.62-.78,4.41-.23,3.78.54,3.18,1.23-.45,1.78,2.69,1.78,6.57-.61,5.74.22,2.63.87,2.93.79,1.35-.36,1.65-.1a5.49,5.49,0,0,0,2.62.51c.67-.1.6-.56,2-.1a16.51,16.51,0,0,0,5.47.65c1.42-.16,2.32-.49,3.52-.13a12.3,12.3,0,0,0,3.29.41c1.12,0,2-.34,2.47.13s0,.62,2,.62,2.7-.28,3.45,0a3.75,3.75,0,0,0,2.62.71c1.87-.06,2.39,0,2.77.17a11.67,11.67,0,0,0,2.69.23c.42,0,1,0,1.57,0,.14.09.1.16-.27.19-1.47.13-5.14.38-5.63.42s.25.21-1.46,0a10.26,10.26,0,0,0-4.6.11c-1.89.49-1.52.7-4.34.19s-5-.85-6.48-.3-4.23,1-5,.59-2.35.2-2.72.15-4.77.7-6.36.28-2.74.76-4.37.46-3.6,1-5.67.42-4.56-.08-5.95-.37-4,.37-5.07-.17-4.88-.17-6.1-.43-2.57.13-4.9-.12-4,0-7.22-.42-.12.29-5.26-.39L0,120.06v-7.35S5,112.5,5.39,113.05Z" fill="#89bb23"/><path d="M5.39,113.05c.4.55,1-.07,2.32.34s2,.9,3.13.49.54-1.45,3.34-.49A4.15,4.15,0,0,0,18,112.9a4,4,0,0,1,2.18-.62c2.26,0,3.21-.58,6.76.39.85.23-.13-.26,3.61-1,2.87-.54,4,.14,4.51,1.71.26.8-1,2,2.16,2s6.57-.61,5.74.22,2.63.87,2.93.79,1.35-.36,1.65-.1a5.49,5.49,0,0,0,2.62.51c.67-.1.6-.56,2-.1a16.51,16.51,0,0,0,5.47.65c1.42-.16,2.32-.49,3.52-.13a8.65,8.65,0,0,0,1.91.34c.49.19.57.34-.46.34-2.81,0-4.16-.45-5.26,0S49,118,49,118s-.65,1-3.06.37-2.82.3-5.19-.17-4.07.1-6.64-.2-3.35.07-5-.28-4.44-.16-6.16-.45-3.39.12-4.26,0-5.28,1-6,.45-2.2-.29-2.81-.45-.5.33-3.61,0-5.08.09-5.69-.42a3.17,3.17,0,0,0-.61-.39v-3.72S5,112.5,5.39,113.05Z" fill="#9bd527"/><rect x="160.89" y="104.26" width="26.37" height="1.06" fill="#732e1c"/><polygon points="181.16 100.19 174.07 91.88 166.98 100.19 160.88 104.26 174.07 104.26 187.25 104.26 181.16 100.19" fill="#7d321f"/><polygon points="181.16 100.19 174.07 91.88 166.98 100.19 174.07 101.2 181.16 100.19" fill="#8a3722"/><rect x="162.05" y="105.33" width="0.98" height="15.47" fill="#7d321f"/><rect x="185.1" y="105.33" width="0.98" height="15.47" fill="#7d321f"/><rect x="162.05" y="120.54" width="24.04" height="1.08" fill="#9f452f"/><rect x="173.7" y="104.54" width="0.74" height="24.04" transform="translate(290.63 -57.51) rotate(90)" fill="#9f452f"/><rect x="162.05" y="116.37" width="24.04" height="4.35" fill="#9f452f"/><rect x="186.7" y="122.92" width="3.62" height="10.55" fill="#9f452f"/><rect x="181.9" y="122.18" width="3.62" height="9.75" transform="translate(367.41 254.1) rotate(180)" fill="#7d321f"/><rect x="164.04" y="122.92" width="3.62" height="10.55" fill="#9f452f"/><rect x="159.24" y="122.18" width="3.62" height="9.75" transform="translate(322.09 254.1) rotate(180)" fill="#7d321f"/><rect x="141.38" y="122.92" width="3.62" height="10.55" fill="#9f452f"/><rect x="136.57" y="122.18" width="3.62" height="9.75" transform="translate(276.77 254.1) rotate(180)" fill="#7d321f"/><rect x="118.72" y="122.92" width="3.62" height="10.55" fill="#9f452f"/><rect x="113.91" y="122.18" width="3.62" height="9.75" transform="translate(231.44 254.1) rotate(180)" fill="#7d321f"/><rect x="96.06" y="122.92" width="3.62" height="10.55" fill="#9f452f"/><rect x="91.25" y="122.18" width="3.62" height="9.75" transform="translate(186.12 254.1) rotate(180)" fill="#7d321f"/><rect x="73.4" y="122.92" width="3.62" height="10.55" fill="#9f452f"/><rect x="68.59" y="122.18" width="3.62" height="9.75" transform="translate(140.8 254.1) rotate(180)" fill="#7d321f"/><rect x="50.74" y="122.92" width="3.62" height="10.55" fill="#9f452f"/><rect x="45.93" y="122.18" width="3.62" height="9.75" transform="translate(95.48 254.1) rotate(180)" fill="#7d321f"/><rect x="28.08" y="122.92" width="3.62" height="10.55" fill="#9f452f"/><rect x="23.27" y="122.18" width="3.62" height="9.75" transform="translate(50.16 254.1) rotate(180)" fill="#7d321f"/><rect x="5.42" y="122.92" width="3.62" height="10.55" fill="#9f452f"/><rect x="0.61" y="122.18" width="3.62" height="9.75" transform="translate(4.84 254.1) rotate(180)" fill="#7d321f"/><rect y="121.62" width="190.32" height="1.62" fill="#c16222"/><rect y="117.09" width="189.86" height="0.46" fill="#c16222"/><rect x="189.4" y="117.09" width="0.92" height="4.53" fill="#c16222"/><rect x="186.25" y="117.09" width="0.92" height="4.53" fill="#c16222"/><rect x="183.09" y="117.09" width="0.92" height="4.53" fill="#c16222"/><rect x="179.93" y="117.09" width="0.92" height="4.53" fill="#c16222"/><rect x="176.77" y="117.09" width="0.92" height="4.53" fill="#c16222"/><rect x="173.61" y="117.09" width="0.92" height="4.53" fill="#c16222"/><rect x="170.45" y="117.09" width="0.92" height="4.53" fill="#c16222"/><rect x="167.29" y="117.09" width="0.92" height="4.53" fill="#c16222"/><rect x="164.13" y="117.09" width="0.92" height="4.53" fill="#c16222"/><rect x="160.97" y="117.09" width="0.92" height="4.53" fill="#c16222"/><rect x="157.82" y="117.09" width="0.92" height="4.53" fill="#c16222"/><rect x="154.66" y="117.09" width="0.92" height="4.53" fill="#c16222"/><rect x="151.5" y="117.09" width="0.92" height="4.53" fill="#c16222"/><rect x="148.34" y="117.09" width="0.92" height="4.53" fill="#c16222"/><rect x="145.18" y="117.09" width="0.92" height="4.53" fill="#c16222"/><rect x="142.02" y="117.09" width="0.92" height="4.53" fill="#c16222"/><rect x="138.86" y="117.09" width="0.92" height="4.53" fill="#c16222"/><rect x="135.7" y="117.09" width="0.92" height="4.53" fill="#c16222"/><rect x="132.55" y="117.09" width="0.92" height="4.53" fill="#c16222"/><rect x="129.39" y="117.09" width="0.92" height="4.53" fill="#c16222"/><rect x="126.23" y="117.09" width="0.92" height="4.53" fill="#c16222"/><rect x="123.07" y="117.09" width="0.92" height="4.53" fill="#c16222"/><rect x="119.91" y="117.09" width="0.92" height="4.53" fill="#c16222"/><rect x="116.75" y="117.09" width="0.92" height="4.53" fill="#c16222"/><rect x="113.59" y="117.09" width="0.92" height="4.53" fill="#c16222"/><rect x="110.43" y="117.09" width="0.92" height="4.53" fill="#c16222"/><rect x="107.28" y="117.09" width="0.92" height="4.53" fill="#c16222"/><rect x="104.12" y="117.09" width="0.92" height="4.53" fill="#c16222"/><rect x="100.96" y="117.09" width="0.92" height="4.53" fill="#c16222"/><rect x="97.8" y="117.09" width="0.92" height="4.53" fill="#c16222"/><rect x="94.64" y="117.09" width="0.92" height="4.53" fill="#c16222"/><rect x="91.48" y="117.09" width="0.92" height="4.53" fill="#c16222"/><rect x="88.32" y="117.09" width="0.92" height="4.53" fill="#c16222"/><rect x="85.16" y="117.09" width="0.92" height="4.53" fill="#c16222"/><rect x="82.01" y="117.09" width="0.92" height="4.53" fill="#c16222"/><rect x="78.85" y="117.09" width="0.92" height="4.53" fill="#c16222"/><rect x="75.69" y="117.09" width="0.92" height="4.53" fill="#c16222"/><rect x="72.53" y="117.09" width="0.92" height="4.53" fill="#c16222"/><rect x="69.37" y="117.09" width="0.92" height="4.53" fill="#c16222"/><rect x="66.21" y="117.09" width="0.92" height="4.53" fill="#c16222"/><rect x="63.05" y="117.09" width="0.92" height="4.53" fill="#c16222"/><rect x="59.89" y="117.09" width="0.92" height="4.53" fill="#c16222"/><rect x="56.73" y="117.09" width="0.92" height="4.53" fill="#c16222"/><rect x="53.58" y="117.09" width="0.92" height="4.53" fill="#c16222"/><rect x="50.42" y="117.09" width="0.92" height="4.53" fill="#c16222"/><rect x="47.26" y="117.09" width="0.92" height="4.53" fill="#c16222"/><rect x="44.1" y="117.09" width="0.92" height="4.53" fill="#c16222"/><rect x="40.94" y="117.09" width="0.92" height="4.53" fill="#c16222"/><rect x="37.78" y="117.09" width="0.92" height="4.53" fill="#c16222"/><rect x="34.62" y="117.09" width="0.92" height="4.53" fill="#c16222"/><rect x="31.46" y="117.09" width="0.92" height="4.53" fill="#c16222"/><rect x="28.31" y="117.09" width="0.92" height="4.53" fill="#c16222"/><rect x="25.15" y="117.09" width="0.92" height="4.53" fill="#c16222"/><rect x="21.99" y="117.09" width="0.92" height="4.53" fill="#c16222"/><rect x="18.83" y="117.09" width="0.92" height="4.53" fill="#c16222"/><rect x="15.67" y="117.09" width="0.92" height="4.53" fill="#c16222"/><rect x="12.51" y="117.09" width="0.92" height="4.53" fill="#c16222"/><rect x="9.35" y="117.09" width="0.92" height="4.53" fill="#c16222"/><rect x="6.19" y="117.09" width="0.92" height="4.53" fill="#c16222"/><rect x="3.04" y="117.09" width="0.92" height="4.53" fill="#c16222"/><rect y="117.09" width="0.79" height="4.53" fill="#c16222"/><path d="M181.22,81.17a2.21,2.21,0,0,1,2.75.15.32.32,0,0,0,.45,0c.38-.48,1.28-1.26,2.52,0,0,0-1.4-1.91-2.8-.51C184.14,80.76,183,79.61,181.22,81.17Z" fill="#7d321f"/><path d="M185.65,79.3a1.64,1.64,0,0,1,2,.11.22.22,0,0,0,.33,0c.28-.35,1-.93,1.86,0,0,0-1-1.42-2.07-.38C187.8,79,187,78.15,185.65,79.3Z" fill="#7d321f"/><path d="M178.94,78.74a1.05,1.05,0,0,1,1.29.07.14.14,0,0,0,.21,0c.18-.22.6-.59,1.18,0,0,0-.65-.9-1.31-.24C180.31,78.55,179.78,78,178.94,78.74Z" fill="#7d321f"/><path d="M196.6,82a3.42,3.42,0,0,1,2.74,3.24.49.49,0,0,0,.53.47c.93-.08,2.77.1,2.67,2.82,0,0,.67-3.6-2.39-3.69C200.15,84.85,200.23,82.37,196.6,82Z" fill="#7d321f"/><path d="M203.39,85a2.51,2.51,0,0,1,2,2.39.38.38,0,0,0,.39.35c.69-.06,2,.07,2,2.08,0,0,.5-2.66-1.76-2.73C206,87.1,206.07,85.27,203.39,85Z" fill="#7d321f"/><path d="M196.08,76.24a1.6,1.6,0,0,1,1.71,1,.24.24,0,0,0,.31.13c.4-.18,1.24-.38,1.61.84,0,0-.25-1.7-1.62-1.27C198.09,77,197.74,75.84,196.08,76.24Z" fill="#7d321f"/><path d="M190.31,69a1.35,1.35,0,0,1,1.65.26.19.19,0,0,0,.28,0c.26-.26.86-.68,1.53.16,0,0-.73-1.26-1.67-.5C192.1,68.88,191.49,68.12,190.31,69Z" fill="#7d321f"/><path d="M52.48,68.55h71.69a6.39,6.39,0,0,0-9.71-3,4,4,0,0,0-6.72-2.49c-.6-.69-6.87-7.6-16.43-6.6a19.58,19.58,0,0,0-13,7.22,3.93,3.93,0,0,0-7.09.25,16.71,16.71,0,0,0-10.7-.62A16.54,16.54,0,0,0,52.48,68.55Z" fill="#414042" style="mix-blend-mode:screen"/><path d="M73.59,63.07a4,4,0,0,1,3.48,2.12A19.58,19.58,0,0,1,90,58c9.56-1,15.83,5.91,16.43,6.6a4,4,0,0,1,4.1-.87,4,4,0,0,1,2.62,3.36,6.65,6.65,0,0,1,5.72-.87,6.29,6.29,0,0,1,3.16,2.36h2.12a6.39,6.39,0,0,0-9.71-3,4,4,0,0,0-6.72-2.49c-.6-.69-6.87-7.6-16.43-6.6a19.58,19.58,0,0,0-13,7.22,3.92,3.92,0,0,0-7,.1A4,4,0,0,1,73.59,63.07Z" fill="#414042" style="mix-blend-mode:screen"/><path d="M59.27,64.82A16.67,16.67,0,0,1,70,65.44a4,4,0,0,1,1.21-1.53,16.37,16.37,0,0,0-18.71,4.64h.15A16.38,16.38,0,0,1,59.27,64.82Z" fill="#414042" style="mix-blend-mode:screen"/><path d="M55.1,29.87H0V24.21c1.18-1.28,7.27-7.36,16.27-6.42a19.62,19.62,0,0,1,13,7.22A4,4,0,0,1,32.7,22.9a3.69,3.69,0,0,1,.58,0,2.8,2.8,0,0,1,.5.12l.32.1a3.8,3.8,0,0,1,1.11.66,3.85,3.85,0,0,1,1.1,1.44l.08,0a16.09,16.09,0,0,1,1.87-.62c.25-.07.52-.14.81-.2a16.32,16.32,0,0,1,16,5.46Z" fill="#414042" style="mix-blend-mode:screen"/><path d="M36.22,25.11a3.9,3.9,0,0,0-5.71,1.4,19.58,19.58,0,0,0-13-7.22C8,18.29,1.74,25.2,1.13,25.89A3.84,3.84,0,0,0,0,25.14v-.93c1.18-1.28,7.27-7.36,16.27-6.42a19.62,19.62,0,0,1,13,7.22A4,4,0,0,1,32.7,22.9a3.69,3.69,0,0,1,.58,0,4.05,4.05,0,0,1,.5.12l.32.1a4.18,4.18,0,0,1,1.11.66A4.29,4.29,0,0,1,36.22,25.11Z" fill="#414042" style="mix-blend-mode:screen"/><path d="M48.31,26.14a16.74,16.74,0,0,0-10.71.62,4,4,0,0,0-1.21-1.53A16.37,16.37,0,0,1,55.1,29.87h-.16A16.33,16.33,0,0,0,48.31,26.14Z" fill="#414042" style="mix-blend-mode:screen"/><path d="M250,.05V12.18H217.69a6.37,6.37,0,0,1,9.7-3,4,4,0,0,1,6.73-2.49C234.71,6,240.74-.64,250,.05Z" fill="#414042" style="mix-blend-mode:screen"/><path d="M250,.05V1.5c-8.53,0-14,6.06-14.59,6.7a4,4,0,0,0-6.72,2.49A6.69,6.69,0,0,0,223,9.82a6.29,6.29,0,0,0-3.16,2.36h-2.11a6.37,6.37,0,0,1,9.7-3,4,4,0,0,1,6.73-2.49C234.71,6,240.74-.64,250,.05Z" fill="#414042" style="mix-blend-mode:screen"/><path d="M169.8,41.05h28.56a2.54,2.54,0,0,0-3.87-1.19,1.59,1.59,0,0,0-2.67-1,8.05,8.05,0,0,0-6.55-2.63,7.77,7.77,0,0,0-5.16,2.88,1.56,1.56,0,0,0-2.82.1A6.67,6.67,0,0,0,173,39,6.54,6.54,0,0,0,169.8,41.05Z" fill="#414042" style="mix-blend-mode:screen"/><path d="M178.21,38.86a1.59,1.59,0,0,1,1.39.85,7.77,7.77,0,0,1,5.15-2.88,8,8,0,0,1,6.55,2.63,1.59,1.59,0,0,1,2.68,1,2.68,2.68,0,0,1,2.28-.35,2.52,2.52,0,0,1,1.26.95h.84a2.54,2.54,0,0,0-3.87-1.19,1.59,1.59,0,0,0-2.67-1,8.05,8.05,0,0,0-6.55-2.63,7.77,7.77,0,0,0-5.16,2.88,1.56,1.56,0,0,0-2.79,0A1.55,1.55,0,0,1,178.21,38.86Z" fill="#414042" style="mix-blend-mode:screen"/><path d="M172.51,39.56a6.56,6.56,0,0,1,4.26.25,1.61,1.61,0,0,1,.48-.61,6.49,6.49,0,0,0-7.45,1.85h.06A6.41,6.41,0,0,1,172.51,39.56Z" fill="#414042" style="mix-blend-mode:screen"/></g></g></svg>