<svg xmlns="http://www.w3.org/2000/svg" xmlns:xlink="http://www.w3.org/1999/xlink" width="250" height="160" viewBox="0 0 250 160"><defs><linearGradient id="linear-gradient" x1="124.98" y1="155" x2="124.98" y2="-0.05" gradientUnits="userSpaceOnUse"><stop offset="0" stop-color="#feed91"/><stop offset="0.48" stop-color="#fecf3d"/><stop offset="1" stop-color="#e5682a"/></linearGradient><linearGradient id="linear-gradient-2" x1="124.98" y1="112.04" x2="124.98" y2="86.22" gradientUnits="userSpaceOnUse"><stop offset="0" stop-color="#f0a933"/><stop offset="1" stop-color="#e38321"/></linearGradient><mask id="mask" x="0.01" y="114.15" width="249.98" height="45.85" maskUnits="userSpaceOnUse"><rect x="0.01" y="114.15" width="249.98" height="44.52" fill="#d1d3d4"/></mask><linearGradient id="linear-gradient-3" x1="125" y1="114.85" x2="125" y2="156.56" gradientUnits="userSpaceOnUse"><stop offset="0" stop-color="#f0a933"/><stop offset="1" stop-color="#0063bb"/></linearGradient><linearGradient id="linear-gradient-4" x1="120.9" y1="93.08" x2="120.9" y2="139.55" gradientUnits="userSpaceOnUse"><stop offset="0" stop-color="#58595b"/><stop offset="1"/></linearGradient><linearGradient id="linear-gradient-5" x1="162.44" y1="93.08" x2="162.44" y2="139.55" xlink:href="#linear-gradient-4"/><linearGradient id="linear-gradient-6" x1="197.19" y1="93.08" x2="197.19" y2="139.55" xlink:href="#linear-gradient-4"/><linearGradient id="linear-gradient-7" x1="128.96" y1="93.08" x2="128.96" y2="139.55" xlink:href="#linear-gradient-4"/><linearGradient id="linear-gradient-8" x1="140.03" y1="93.08" x2="140.03" y2="139.55" xlink:href="#linear-gradient-4"/><linearGradient id="linear-gradient-9" x1="171.38" y1="93.08" x2="171.38" y2="139.55" xlink:href="#linear-gradient-4"/><linearGradient id="linear-gradient-10" x1="175.46" y1="93.08" x2="175.46" y2="139.55" xlink:href="#linear-gradient-4"/><linearGradient id="linear-gradient-11" x1="113.48" y1="93.08" x2="113.48" y2="139.55" xlink:href="#linear-gradient-4"/><linearGradient id="linear-gradient-12" x1="151.62" y1="93.08" x2="151.62" y2="139.55" xlink:href="#linear-gradient-4"/><linearGradient id="linear-gradient-13" x1="187.87" y1="93.08" x2="187.87" y2="139.55" xlink:href="#linear-gradient-4"/><linearGradient id="linear-gradient-14" x1="204.07" y1="93.08" x2="204.07" y2="139.55" xlink:href="#linear-gradient-4"/><linearGradient id="linear-gradient-15" x1="178.79" y1="93.08" x2="178.79" y2="139.55" xlink:href="#linear-gradient-4"/><linearGradient id="linear-gradient-16" x1="111.37" y1="93.08" x2="111.37" y2="139.55" xlink:href="#linear-gradient-4"/><linearGradient id="linear-gradient-17" x1="145.88" y1="93.08" x2="145.88" y2="139.55" xlink:href="#linear-gradient-4"/><linearGradient id="linear-gradient-18" x1="183.19" y1="93.08" x2="183.19" y2="139.55" xlink:href="#linear-gradient-4"/><linearGradient id="linear-gradient-19" x1="208.02" y1="93.08" x2="208.02" y2="139.55" xlink:href="#linear-gradient-4"/><linearGradient id="linear-gradient-20" x1="14.24" y1="93.08" x2="14.24" y2="139.55" xlink:href="#linear-gradient-4"/><linearGradient id="linear-gradient-21" x1="55.79" y1="93.08" x2="55.79" y2="139.55" xlink:href="#linear-gradient-4"/><linearGradient id="linear-gradient-22" x1="90.54" y1="93.08" x2="90.54" y2="139.55" xlink:href="#linear-gradient-4"/><linearGradient id="linear-gradient-23" x1="22.3" y1="93.08" x2="22.3" y2="139.55" xlink:href="#linear-gradient-4"/><linearGradient id="linear-gradient-24" x1="33.37" y1="93.08" x2="33.37" y2="139.55" xlink:href="#linear-gradient-4"/><linearGradient id="linear-gradient-25" x1="64.72" y1="93.08" x2="64.72" y2="139.55" xlink:href="#linear-gradient-4"/><linearGradient id="linear-gradient-26" x1="68.81" y1="93.08" x2="68.81" y2="139.55" xlink:href="#linear-gradient-4"/><linearGradient id="linear-gradient-27" x1="6.82" y1="93.08" x2="6.82" y2="139.55" xlink:href="#linear-gradient-4"/><linearGradient id="linear-gradient-28" x1="44.96" y1="93.08" x2="44.96" y2="139.55" xlink:href="#linear-gradient-4"/><linearGradient id="linear-gradient-29" x1="81.21" y1="93.08" x2="81.21" y2="139.55" xlink:href="#linear-gradient-4"/><linearGradient id="linear-gradient-30" x1="97.41" y1="93.08" x2="97.41" y2="139.55" xlink:href="#linear-gradient-4"/><linearGradient id="linear-gradient-31" x1="72.13" y1="93.08" x2="72.13" y2="139.55" xlink:href="#linear-gradient-4"/><linearGradient id="linear-gradient-32" x1="4.71" y1="93.08" x2="4.71" y2="139.55" xlink:href="#linear-gradient-4"/><linearGradient id="linear-gradient-33" x1="39.23" y1="93.08" x2="39.23" y2="139.55" xlink:href="#linear-gradient-4"/><linearGradient id="linear-gradient-34" x1="76.53" y1="93.08" x2="76.53" y2="139.55" xlink:href="#linear-gradient-4"/><linearGradient id="linear-gradient-35" x1="101.36" y1="93.08" x2="101.36" y2="139.55" xlink:href="#linear-gradient-4"/><linearGradient id="linear-gradient-36" x1="227.39" y1="93.08" x2="227.39" y2="139.55" xlink:href="#linear-gradient-4"/><linearGradient id="linear-gradient-37" x1="235.45" y1="93.08" x2="235.45" y2="139.55" xlink:href="#linear-gradient-4"/><linearGradient id="linear-gradient-38" x1="246.52" y1="93.08" x2="246.52" y2="139.55" xlink:href="#linear-gradient-4"/><linearGradient id="linear-gradient-39" x1="219.97" y1="93.08" x2="219.97" y2="139.55" xlink:href="#linear-gradient-4"/><linearGradient id="linear-gradient-40" x1="217.86" y1="93.08" x2="217.86" y2="139.55" xlink:href="#linear-gradient-4"/></defs><title>1754 [Converted]</title><g style="isolation:isolate"><g id="Layer_1" data-name="Layer 1"><rect width="249.97" height="160" fill="url(#linear-gradient)"/><path d="M249.9,105.54v1.76c-13.89.1-30.26.15-47.79.15-50.36,0-91.19-.46-91.19-1s40.83-1,91.19-1C219.64,105.39,236,105.45,249.9,105.54Z" fill="#fed855"/><path d="M154.33,102.37c0,.44-40.83.79-91.18.79-24.49,0-46.7-.08-63.08-.22v-1.13c16.38-.14,38.59-.22,63.08-.22C113.5,101.59,154.33,101.94,154.33,102.37Z" fill="#fed03f"/><path d="M249.9,97.49V99c-8.7,0-18,0-27.58,0-50.36,0-91.18-.36-91.18-.79s40.82-.78,91.18-.78C231.93,97.46,241.2,97.47,249.9,97.49Z" fill="#fed246"/><path d="M249.9,117v.75H217.82c-58.56,0-106-.17-106-.39s47.48-.39,106-.39C229,117,239.78,117,249.9,117Z" fill="#fed754"/><path d="M234.39,94.73c0,.21-54.32.39-121.34.39-51.35,0-95.27-.1-113-.25v-.29c17.71-.14,61.63-.25,113-.25C180.07,94.33,234.39,94.51,234.39,94.73Z" fill="#fed348"/><path d="M220.17,108c0,.22-54.32.39-121.34.39-40.72,0-76.76-.06-98.76-.16v-.46c22-.1,58-.16,98.76-.16C165.85,107.63,220.17,107.8,220.17,108Z" fill="#fed959"/><path d="M220.17,113.47c0,.14-54.32.25-121.34.25-40.72,0-76.76,0-98.76-.1v-.29c22-.06,58-.1,98.76-.1C165.85,113.23,220.17,113.34,220.17,113.47Z" fill="#fed754"/><path d="M249.9,82.64v2.24c-13.89.13-30.26.2-47.79.2-50.36,0-91.19-.59-91.19-1.32s40.83-1.31,91.19-1.31C219.64,82.45,236,82.52,249.9,82.64Z" fill="#fcc63b"/><path d="M154.33,78.6c0,.55-40.83,1-91.18,1-24.49,0-46.7-.1-63.08-.28V77.88c16.38-.18,38.59-.28,63.08-.28C113.5,77.6,154.33,78,154.33,78.6Z" fill="#fbc53b"/><path d="M249.9,72.36v1.92c-8.7,0-18,0-27.58,0-50.36,0-91.18-.45-91.18-1s40.82-1,91.18-1C231.93,72.32,241.2,72.34,249.9,72.36Z" fill="#fabd3a"/><path d="M249.9,97.26v1l-32.08,0c-58.56,0-106-.22-106-.5s47.48-.5,106-.5Z" fill="#fed246"/><path d="M234.39,68.83c0,.28-54.32.51-121.34.51-51.35,0-95.27-.13-113-.32v-.37c17.71-.19,61.63-.32,113-.32C180.07,68.33,234.39,68.56,234.39,68.83Z" fill="#f6ad37"/><path d="M220.17,85.8c0,.28-54.32.51-121.34.51-40.72,0-76.76-.08-98.76-.21v-.59c22-.12,58-.21,98.76-.21C165.85,85.3,220.17,85.53,220.17,85.8Z" fill="#fdca3c"/><path d="M220.17,92.77c0,.17-54.32.31-121.34.31-40.72,0-76.76,0-98.76-.13v-.37c22-.07,58-.13,98.76-.13C165.85,92.45,220.17,92.59,220.17,92.77Z" fill="#fed040"/><path d="M249.9,51.29V48.54c-13.89-.15-30.26-.23-47.79-.23-50.36,0-91.19.72-91.19,1.6s40.83,1.61,91.19,1.61C219.64,51.52,236,51.44,249.9,51.29Z" fill="#f3a135"/><path d="M154.33,56.24c0-.68-40.83-1.22-91.18-1.22-24.49,0-46.7.12-63.08.33v1.78c16.38.21,38.59.34,63.08.34C113.5,57.47,154.33,56.92,154.33,56.24Z" fill="#f6ad37"/><path d="M249.9,63.87V61.53c-8.7,0-18-.06-27.58-.06-50.36,0-91.18.55-91.18,1.23s40.82,1.23,91.18,1.23C231.93,63.93,241.2,63.91,249.9,63.87Z" fill="#f3a135"/><path d="M249.9,33.39V32.21l-32.08,0c-58.56,0-106,.27-106,.61s47.48.61,106,.61Z" fill="#ef9132"/><path d="M220.17,47.42c0-.35-54.32-.62-121.34-.62-40.72,0-76.76.1-98.76.26v.72c22,.15,58,.25,98.76.25C165.85,48,220.17,47.76,220.17,47.42Z" fill="#f29d34"/><path d="M220.17,38.89c0-.21-54.32-.39-121.34-.39-40.72,0-76.76.07-98.76.16v.45c22,.1,58,.17,98.76.17C165.85,39.28,220.17,39.1,220.17,38.89Z" fill="#ef9132"/><path d="M250,141.21V47.59a9.76,9.76,0,0,0-11.74,6.26,6.9,6.9,0,0,0-8,1,6.73,6.73,0,0,0-1.75,5,4,4,0,0,0-7.74-.75,14.43,14.43,0,0,0-9-6.25,14.79,14.79,0,0,0-12.23,3.25,6.38,6.38,0,0,0-7.25-.25,6.7,6.7,0,0,0-2.74,5.5,6.56,6.56,0,0,0-7,2.75,6.64,6.64,0,0,0-.5,5.5,25.69,25.69,0,0,0-11.49-.75,25.34,25.34,0,0,0-8.49,3,6.1,6.1,0,0,0-4-6.25,5.69,5.69,0,0,0-4.49.75,8.83,8.83,0,0,0-5.5-3,8.94,8.94,0,0,0-6.74,2,5.2,5.2,0,0,0-4.74-5.5,5.08,5.08,0,0,0-4.75,3.5c-.64-.7-6.06-6.43-14.48-5.75-9.14.73-13.62,8.35-14,9-1.43-3.66-4.93-5.38-7.49-4.5-2.28.77-3.13,3.37-3.24,3.75a7,7,0,0,0-7.49-4,7.1,7.1,0,0,0-4.75,4A7.11,7.11,0,0,0,66.71,64.6,6.55,6.55,0,0,0,64,59.35a6.29,6.29,0,0,0-5-.75,7,7,0,0,0-9.73-9.5,5.34,5.34,0,0,0-8.49-5,5.68,5.68,0,0,0-4-4.5,5.74,5.74,0,0,0-6.49,3c-.68-4.19-4-7.16-7.49-7.25s-6,2.9-6.25,3.25A5.75,5.75,0,0,0,11,35.85a5.56,5.56,0,0,0-3.5,2A5.48,5.48,0,0,0,5.77,32.1,5.44,5.44,0,0,0,0,31.35V135.74Z" fill="#231f20" style="mix-blend-mode:screen"/><g style="mix-blend-mode:screen"><path d="M191.46,79.52a66.23,66.23,0,0,1-18,45.48H76.55A66.46,66.46,0,1,1,191.46,79.52Z" fill="#231f20"/></g><g style="mix-blend-mode:screen"><path d="M125,110a30.48,30.48,0,1,1,30.48-30.48A30.52,30.52,0,0,1,125,110Z" fill="#231f20"/></g><circle cx="124.98" cy="79.52" r="12.48" fill="#fff"/><rect y="87.28" width="249.95" height="26.39" fill="url(#linear-gradient-2)"/><path d="M4.48,101.61s44.43.42,46.44.14,41,0,48,.1,36.18.2,40.6-.12c0,0-6.58.47-24.57.28s-22.51,0-27.54-.15-32.86-.24-33.37,0-15.48.12-17.54.09S6.24,101.73,4.48,101.61Z" fill="#6d6e71" style="mix-blend-mode:screen"/><polygon points="0.06 108.64 0.06 103.61 249.95 103.61 249.95 105.54 0.06 108.64" fill="#414042" style="mix-blend-mode:screen"/><path d="M250,109.52s-37-.65-43.16-.44-41.82.44-54.82.44-51.17,0-65.41-.24,23.42,0,32.09,0,23.87-.29,31.6-.2,13.11.53,24.08,0,25.45-.36,31.54-.35,17.76-.28,22.75,0S250,109,250,109Z" fill="#58595b" style="mix-blend-mode:screen"/><path d="M249,91.15s-37-.64-43.17-.44-41.82.44-54.81.44-51.18,0-65.42-.24,23.42,0,32.09,0,23.88-.29,31.6-.2,13.11.53,24.08,0,25.45-.36,31.54-.35,17.76-.28,22.76,0,21.33.34,21.33.34Z" fill="#58595b" style="mix-blend-mode:screen"/><polygon points="249.95 104.49 14.66 103.61 249.95 102.74 249.95 104.49" fill="#231f20" style="mix-blend-mode:screen"/><polygon points="249.95 100.76 249.95 95.97 4.67 96.51 249.95 100.76" fill="#414042" style="mix-blend-mode:screen"/><path d="M21.4,100.74s61.44.2,80.72.08,65.46.06,76.7,0c0,0-53.41-.14-68.47-.13Z" fill="#231f20" style="mix-blend-mode:screen"/><path d="M108.68,110s-53.41-.13-68.48-.12l-40.14,0v.15c12.87,0,25.06,0,31.91,0C51.25,109.94,97.43,110.11,108.68,110Z" fill="#231f20" style="mix-blend-mode:screen"/><path d="M223,101.45s-19,.3-25,.13-20.25.08-23.73,0c0,0,16.52-.2,21.18-.18Z" fill="#bcbec0" style="mix-blend-mode:screen"/><path d="M108.68,93.44s6.37.19,8.37.08,6.79.06,8,0c0,0-5.54-.14-7.1-.13Z" fill="#6d6e71" style="mix-blend-mode:screen"/><path d="M65.32,101.61s14,.19,18.42.08,14.93.06,17.49,0c0,0-12.18-.13-15.62-.12Z" fill="#6d6e71" style="mix-blend-mode:screen"/><path d="M80.45,100.23s8.34.2,11,.08,8.89.06,10.41,0c0,0-7.25-.13-9.29-.12S80.45,100.23,80.45,100.23Z" fill="#6d6e71" style="mix-blend-mode:screen"/><path d="M66.56,108.61s8.34.2,11,.08,8.88.06,10.41,0c0,0-7.25-.13-9.29-.12Z" fill="#6d6e71" style="mix-blend-mode:screen"/><path d="M82.42,88.89s8.34.19,11,.08,8.88,0,10.41,0c0,0-7.25-.13-9.3-.12Z" fill="#6d6e71" style="mix-blend-mode:screen"/><path d="M4.3,89s21.42.2,28.14.08,22.83.06,26.75,0c0,0-18.62-.13-23.88-.13Z" fill="#58595b" style="mix-blend-mode:screen"/><path d="M92.43,102.71s24.51.2,32.2.08,26.11.06,30.59,0c0,0-21.3-.13-27.31-.12S92.43,102.71,92.43,102.71Z" fill="#6d6e71" style="mix-blend-mode:screen"/><path d="M3,93.33s31.39.42,32.81.15,29,0,33.95.09,25.57.21,28.69-.12c0,0-4.65.47-17.36.29s-15.91,0-19.46-.16-23.23-.23-23.58,0-10.94.12-12.4.1S4.19,93.45,3,93.33Z" fill="#bcbec0" style="mix-blend-mode:screen"/><path d="M135.73,88.53s13.81.36,14.44.13,12.75,0,14.93.08,11.25.17,12.63-.11a41.09,41.09,0,0,1-7.64.25c-5.59-.16-7,0-8.56-.13s-10.22-.21-10.38,0a47.63,47.63,0,0,1-5.45.08C145.06,88.78,136.28,88.64,135.73,88.53Z" fill="#bcbec0" style="mix-blend-mode:screen"/><path d="M137.79,93.55s16.31.43,17,.15,15,0,17.63.09,13.28.21,14.9-.12a48.43,48.43,0,0,1-9,.29c-6.61-.18-8.26,0-10.11-.15s-12.06-.24-12.24,0a55.57,55.57,0,0,1-6.44.09C148.8,93.85,138.44,93.68,137.79,93.55Z" fill="#6d6e71" style="mix-blend-mode:screen"/><path d="M81.83,90.22v-.08c-2.65-.07-12.22-.34-12.73-.08s-12.69-.15-12.69-.15c.49.12,8.2.29,8.76.32A32,32,0,0,0,70,90.14a83.72,83.72,0,0,1,9.11,0C79.82,90.23,80.54,90.22,81.83,90.22Z" fill="#bcbec0" style="mix-blend-mode:screen"/><path d="M67.08,92.11V92C64.42,92,54.86,91.69,54.35,92s-12.69-.15-12.69-.15c.48.12,8.19.29,8.76.32A32.08,32.08,0,0,0,55.21,92a83.71,83.71,0,0,1,9.11,0C65.07,92.12,65.79,92.11,67.08,92.11Z" fill="#58595b" style="mix-blend-mode:screen"/><path d="M141.57,111.91v-.08c-2.66-.07-12.22-.35-12.74-.08s-12.68-.15-12.68-.15c.48.12,8.19.29,8.75.32s4.66.12,4.8-.1a86.72,86.72,0,0,1,9.11,0C139.56,111.92,140.27,111.91,141.57,111.91Z" fill="#bcbec0" style="mix-blend-mode:screen"/><path d="M193.76,92.26v-.07c4.41-.07,20.28-.35,21.14-.09S236,92,236,92c-.81.13-13.6.29-14.54.32s-7.72.12-8-.09-12.84-.1-15.12,0C197.1,92.28,195.91,92.26,193.76,92.26Z" fill="#bcbec0" style="mix-blend-mode:screen"/><path d="M219.92,89.13v-.07c2.66-.07,12.22-.35,12.74-.09s12.68-.15,12.68-.15c-.48.13-8.19.29-8.75.32a30.89,30.89,0,0,1-4.8-.09,81.56,81.56,0,0,0-9.11,0C221.93,89.15,221.22,89.13,219.92,89.13Z" fill="#58595b" style="mix-blend-mode:screen"/><path d="M63.49,98.44c-8.69.28-50.31.13-60.61.09H0v.08c6,0,14.3,0,27.11.09C50.06,98.85,60.73,98.54,63.49,98.44Z" fill="#6d6e71" style="mix-blend-mode:screen"/><polygon points="249.97 18.25 249.97 31.75 18.88 26.64 249.97 18.25" fill="#231f20" style="mix-blend-mode:screen"/><polygon points="0 0 221.64 0 82.42 4.75 167.48 9.5 0.03 6.75 0 0" fill="#231f20" style="mix-blend-mode:screen"/><path d="M77.8,35.79a3.83,3.83,0,0,1,4.74.39.57.57,0,0,0,.8,0c.67-.8,2.27-2.12,4.34.11,0,0-2.33-3.38-4.81-1C82.87,35.21,81,33.18,77.8,35.79Z" fill="#643117"/><path d="M85.55,32.77a2.82,2.82,0,0,1,3.5.29.41.41,0,0,0,.59,0c.49-.59,1.67-1.57,3.2.09,0,0-1.72-2.5-3.55-.76C89.29,32.35,87.88,30.85,85.55,32.77Z" fill="#643117"/><path d="M180,56.22a2.83,2.83,0,0,1,3.5.28.41.41,0,0,0,.58,0c.5-.59,1.68-1.57,3.21.08,0,0-1.72-2.5-3.55-.76C183.71,55.79,182.3,54.29,180,56.22Z" fill="#643117"/><path d="M133,75.24a1.87,1.87,0,0,1,2.32.19.27.27,0,0,0,.39,0c.32-.39,1.11-1,2.12,0,0,0-1.14-1.65-2.35-.5C135.43,75,134.49,74,133,75.24Z" fill="#643117"/><rect x="0.01" y="108" width="249.98" height="4.36" fill="#643117"/><rect x="0.01" y="108" width="249.98" height="1.29" fill="#643117"/><rect x="0.01" y="111.54" width="106.66" height="48.46" fill="#f37e42"/><polygon points="106.67 119.8 91.58 119.8 91.58 111.54 91.15 111.54 91.15 119.8 76.37 119.8 76.37 111.54 75.94 111.54 75.94 119.8 61.16 119.8 61.16 111.54 60.73 111.54 60.73 119.8 45.95 119.8 45.95 111.54 45.52 111.54 45.52 119.8 30.74 119.8 30.74 111.54 30.31 111.54 30.31 119.8 15.53 119.8 15.53 111.54 15.1 111.54 15.1 119.8 0.01 119.8 0.01 120.22 15.1 120.22 15.1 160 15.53 160 15.53 120.22 30.31 120.22 30.31 160 30.74 160 30.74 120.22 45.52 120.22 45.52 160 45.95 160 45.95 120.22 60.73 120.22 60.73 160 61.16 160 61.16 120.22 75.94 120.22 75.94 160 76.37 160 76.37 120.22 91.15 120.22 91.15 160 91.58 160 91.58 120.22 106.67 120.22 106.67 119.8" fill="#eb6723"/><rect x="0.01" y="111.54" width="106.66" height="0.99" fill="#f3915f"/><rect x="0.01" y="112.54" width="106.66" height="0.46" fill="#ccc" style="mix-blend-mode:multiply"/><rect x="106.67" y="111.54" width="106.66" height="48.46" fill="#f37e42"/><polygon points="213.33 119.8 198.23 119.8 198.23 111.54 197.81 111.54 197.81 119.8 183.02 119.8 183.02 111.54 182.6 111.54 182.6 119.8 167.81 119.8 167.81 111.54 167.39 111.54 167.39 119.8 152.61 119.8 152.61 111.54 152.18 111.54 152.18 119.8 137.4 119.8 137.4 111.54 136.97 111.54 136.97 119.8 122.19 119.8 122.19 111.54 121.76 111.54 121.76 119.8 106.67 119.8 106.67 120.22 121.76 120.22 121.76 160 122.19 160 122.19 120.22 136.97 120.22 136.97 160 137.4 160 137.4 120.22 152.18 120.22 152.18 160 152.61 160 152.61 120.22 167.39 120.22 167.39 160 167.81 160 167.81 120.22 182.6 120.22 182.6 160 183.02 160 183.02 120.22 197.81 120.22 197.81 160 198.23 160 198.23 120.22 213.33 120.22 213.33 119.8" fill="#eb6723"/><rect x="106.67" y="111.54" width="106.66" height="0.99" fill="#f3915f"/><rect x="106.67" y="112.54" width="106.66" height="0.65" fill="#ccc" style="mix-blend-mode:multiply"/><polygon points="249.99 119.8 249.99 119.8 249.99 120.22 249.99 120.22 249.99 160 213.16 160 213.16 111.54 249.99 111.54 249.99 119.8" fill="#f37e42"/><polygon points="249.99 119.8 249.99 120.22 243.89 120.22 243.89 160 243.46 160 243.46 120.22 228.68 120.22 228.68 160 228.25 160 228.25 120.22 213.16 120.22 213.16 119.8 228.25 119.8 228.25 111.54 228.68 111.54 228.68 119.8 243.46 119.8 243.46 111.54 243.89 111.54 243.89 119.8 249.99 119.8" fill="#eb6723"/><rect x="213.16" y="111.54" width="36.83" height="0.99" fill="#f3915f"/><rect x="213.16" y="112.53" width="36.83" height="0.47" fill="#ccc" style="mix-blend-mode:multiply"/><rect x="106.45" y="112.53" width="0.42" height="1.59" fill="#eb6723"/><rect x="212.93" y="112.53" width="0.42" height="1.59" fill="#eb6723"/><g mask="url(#mask)"><rect x="0.01" y="114.15" width="249.98" height="45.85" fill="url(#linear-gradient-3)"/></g><rect x="115.5" y="114.15" width="10.79" height="40.34" fill="url(#linear-gradient-4)" style="mix-blend-mode:screen"/><rect x="157.05" y="114.15" width="10.79" height="40.34" fill="url(#linear-gradient-5)" style="mix-blend-mode:screen"/><rect x="191.8" y="114.15" width="10.79" height="40.34" fill="url(#linear-gradient-6)" style="mix-blend-mode:screen"/><rect x="127.95" y="114.15" width="2.02" height="40.34" fill="url(#linear-gradient-7)" style="mix-blend-mode:screen"/><rect x="139.35" y="114.15" width="1.35" height="40.34" fill="url(#linear-gradient-8)" style="mix-blend-mode:screen"/><rect x="170.7" y="114.15" width="1.35" height="40.34" fill="url(#linear-gradient-9)" style="mix-blend-mode:screen"/><rect x="174.17" y="114.15" width="2.59" height="40.34" fill="url(#linear-gradient-10)" style="mix-blend-mode:screen"/><rect x="112.81" y="114.15" width="1.35" height="40.34" fill="url(#linear-gradient-11)" style="mix-blend-mode:screen"/><rect x="151.24" y="114.15" width="0.76" height="40.34" fill="url(#linear-gradient-12)" style="mix-blend-mode:screen"/><rect x="187.49" y="114.15" width="0.76" height="40.34" fill="url(#linear-gradient-13)" style="mix-blend-mode:screen"/><rect x="203.89" y="114.15" width="0.35" height="40.34" fill="url(#linear-gradient-14)" style="mix-blend-mode:screen"/><rect x="178.61" y="114.15" width="0.35" height="40.34" fill="url(#linear-gradient-15)" style="mix-blend-mode:screen"/><rect x="111.19" y="114.15" width="0.35" height="40.34" fill="url(#linear-gradient-16)" style="mix-blend-mode:screen"/><rect x="143.57" y="114.15" width="4.64" height="40.34" fill="url(#linear-gradient-17)" style="mix-blend-mode:screen"/><rect x="180.87" y="114.15" width="4.64" height="40.34" fill="url(#linear-gradient-18)" style="mix-blend-mode:screen"/><rect x="205.7" y="114.15" width="4.63" height="40.34" fill="url(#linear-gradient-19)" style="mix-blend-mode:screen"/><rect x="8.85" y="114.15" width="10.79" height="40.34" fill="url(#linear-gradient-20)" style="mix-blend-mode:screen"/><rect x="50.39" y="114.15" width="10.79" height="40.34" fill="url(#linear-gradient-21)" style="mix-blend-mode:screen"/><rect x="85.14" y="114.15" width="10.79" height="40.34" fill="url(#linear-gradient-22)" style="mix-blend-mode:screen"/><rect x="21.29" y="114.15" width="2.02" height="40.34" fill="url(#linear-gradient-23)" style="mix-blend-mode:screen"/><rect x="32.7" y="114.15" width="1.35" height="40.34" fill="url(#linear-gradient-24)" style="mix-blend-mode:screen"/><rect x="64.05" y="114.15" width="1.35" height="40.34" fill="url(#linear-gradient-25)" style="mix-blend-mode:screen"/><rect x="67.51" y="114.15" width="2.59" height="40.34" fill="url(#linear-gradient-26)" style="mix-blend-mode:screen"/><rect x="6.15" y="114.15" width="1.35" height="40.34" fill="url(#linear-gradient-27)" style="mix-blend-mode:screen"/><rect x="44.58" y="114.15" width="0.76" height="40.34" fill="url(#linear-gradient-28)" style="mix-blend-mode:screen"/><rect x="80.83" y="114.15" width="0.76" height="40.34" fill="url(#linear-gradient-29)" style="mix-blend-mode:screen"/><rect x="97.23" y="114.15" width="0.35" height="40.34" fill="url(#linear-gradient-30)" style="mix-blend-mode:screen"/><rect x="71.95" y="114.15" width="0.35" height="40.34" fill="url(#linear-gradient-31)" style="mix-blend-mode:screen"/><rect x="4.53" y="114.15" width="0.35" height="40.34" fill="url(#linear-gradient-32)" style="mix-blend-mode:screen"/><rect x="36.91" y="114.15" width="4.64" height="40.34" fill="url(#linear-gradient-33)" style="mix-blend-mode:screen"/><rect x="74.21" y="114.15" width="4.64" height="40.34" fill="url(#linear-gradient-34)" style="mix-blend-mode:screen"/><rect x="99.05" y="114.15" width="4.64" height="40.34" fill="url(#linear-gradient-35)" style="mix-blend-mode:screen"/><rect x="222" y="114.15" width="10.79" height="40.34" fill="url(#linear-gradient-36)" style="mix-blend-mode:screen"/><rect x="234.44" y="114.15" width="2.02" height="40.34" fill="url(#linear-gradient-37)" style="mix-blend-mode:screen"/><rect x="245.84" y="114.15" width="1.35" height="40.34" fill="url(#linear-gradient-38)" style="mix-blend-mode:screen"/><rect x="219.3" y="114.15" width="1.35" height="40.34" fill="url(#linear-gradient-39)" style="mix-blend-mode:screen"/><rect x="217.68" y="114.15" width="0.35" height="40.34" fill="url(#linear-gradient-40)" style="mix-blend-mode:screen"/><rect x="0.01" y="159.01" width="249.98" height="0.99" fill="#f3915f"/><path d="M0,122.06c5.93.12,12.75.2,20.4.22,48.59.13,70.28-1.56,95.93-.66s78.82,1,53-.85-4.06-2.32,21.3-2,23.79-.94,49.31-1.18q5.26,0,10,0V117c-6.51,0-15.27,0-25.8.31-21.81.54-11.19-.64-2.48-1.24,6.19-.43,20.51-.25,28.28-.11v-.36c-11.31-.24-28.86-.46-37.55.27-13.44,1.14-13.5,1.59-47.71,1.24s-50.82-1.7-67-.81c-14.73.81-66.92-.07-97.68-.74v.33c8.67.17,23.7.58,23.87,1.28.14.54-12.39.2-23.87-.22v.58c3.49.14,7.3.28,11.49.41,40.5,1.25,69.83-.09,76.16.58s1,1.91-25.09,2.08c-23.48.15-35.55,0-62.56-.35v.4c7,.08,16.17.25,16.54.62s-7.7.38-16.54.31Zm159.72-4.24c0-.82,23.37-.23,33.57-.42s13.94-.61,13.94-.61c3.76-.27.48.21-1.58.68s10.81.18,4.68.67-17.62.27-26.85.27S159.73,118.64,159.73,117.82Zm-100.56.25c-17.32.2-30.17-.29-29.5-.81s10.67-.67,17.89-.51S77,117,77,117C87.09,117,76.49,117.87,59.17,118.07Zm74.19,1.33c-7.63.06-12.54-1.13-24.87-1.33s-24.66-.31-24.66-.67,14.49-.85,27.49-1,37.33,1,37.33,1c11.83,1,1.5.51,6,1.34S141,119.34,133.36,119.4Zm16.45.57L164.7,121c4.44.3,2.94.68-11,.68s-22.17-.06-24.67-.44S131.82,118.9,149.81,120Zm-68,.58c9-.21,12.22-.79,17.72-1.29s24.79.65,24.79.65c8.47-.15,0,.38.7.9s-5.83.37-14,.09-35.61.56-36.62.26S72.83,120.75,81.77,120.55Zm-51.6.37c5.17.06,36.24,0,36.24,0,13.41.22-2.91.82-26.93.83S25,120.86,30.17,120.92Z" fill="#4d4d4d" style="mix-blend-mode:screen"/><path d="M250,123.56c-5.93-.11-12.75-.19-20.4-.21-48.59-.13-70.28,1.56-95.93.65s-78.82-1-53,.85,4.06,2.32-21.3,2-23.79.93-49.31,1.17c-3.51,0-6.85.05-10,.06v.55c6.51,0,15.27,0,25.8-.3,21.81-.55,11.19.63,2.48,1.24-6.19.43-20.51.25-28.28.11v.36c11.31.24,28.86.46,37.55-.28,13.44-1.13,13.5-1.58,47.71-1.23s50.82,1.7,67,.81c14.73-.81,66.92.07,97.68.74v-.33c-8.67-.18-23.7-.59-23.87-1.29-.14-.53,12.39-.2,23.87.22v-.57c-3.49-.15-7.3-.28-11.49-.41-40.5-1.25-69.83.08-76.16-.58s-1-1.91,25.09-2.08c23.48-.15,35.55,0,62.56.35V125c-7-.07-16.17-.24-16.54-.62s7.7-.37,16.54-.3ZM90.27,127.81c0,.81-23.37.22-33.57.42s-13.94.61-13.94.61c-3.76.26-.48-.22,1.58-.69s-10.81-.18-4.68-.66,17.62-.27,26.85-.27S90.27,127,90.27,127.81Zm100.56-.25c17.32-.2,30.17.28,29.5.81s-10.67.66-17.89.5-29.48-.22-29.48-.22C162.91,128.61,173.51,127.76,190.83,127.56Zm-74.19-1.33c7.63-.06,12.54,1.13,24.87,1.33s24.66.3,24.66.67-14.49.84-27.49,1-37.33-1-37.33-1c-11.83-1-1.5-.51-6-1.34S109,126.29,116.64,126.23Zm-16.45-.57s-10.44-.77-14.89-1.07-2.94-.69,11-.69,22.17.06,24.67.45S118.18,126.73,100.19,125.66Zm68-.58c-8.95.21-12.22.78-17.72,1.29s-24.79-.65-24.79-.65c-8.47.14,0-.38-.7-.91s5.83-.36,14-.08,35.61-.56,36.62-.26S177.17,124.87,168.23,125.08Zm51.6-.37c-5.17-.06-36.24,0-36.24,0-13.41-.22,2.91-.83,26.93-.83S225,124.77,219.83,124.71Z" fill="#4d4d4d" style="mix-blend-mode:screen"/><path d="M250,132.21v-.33c-30.77.67-83,1.55-97.68.74-16.19-.89-32.79.47-67,.82S51,133.33,37.6,132.2c-8.7-.73-26.25-.52-37.56-.28v.36c7.77-.14,22.09-.32,28.28.11,8.72.61,19.33,1.79-2.47,1.25-10.54-.27-19.3-.34-25.81-.31v.55c3.18,0,6.52,0,10,.06,25.53.24,24,1.45,49.32,1.17,25-.28,46.57.15,22.27,2H90.1l10.08-.73c13.1-.78,19.49.07,21,.73H125c-.46-.48-7.18-.92.69-.79,0,0,19.29-1.15,24.79-.65s8.77,1.09,17.72,1.29l5.45.15H243.4c2.19,0,4.49-.07,6.59-.09v-.41c-27,.33-39.08.5-62.57.35-26.06-.17-31.41-1.41-25.08-2.07s35.66.66,76.16-.59c4.18-.13,8-.26,11.49-.41v-.57c-11.48.41-24,.75-23.87.22C226.29,132.8,241.32,132.39,250,132.21ZM66.51,134.79c-9.23,0-20.73.21-26.85-.28s6.74-.19,4.68-.66-5.34-.95-1.58-.68c0,0,3.74.41,13.94.6s33.57-.39,33.57.43S75.74,134.79,66.51,134.79Zm75-.35c-12.33.2-17.24,1.39-24.87,1.34s-25.79.16-21.29-.67-5.83-.34,6-1.34c0,0,24.33-1.05,37.33-.94s27.5.58,27.5.94S153.84,134.24,141.51,134.44Zm49.31,0c-17.31-.2-27.91-1.05-17.86-1.09,0,0,22.25-.06,29.48-.22s17.22,0,17.89.51S208.14,134.64,190.82,134.44Z" fill="#4d4d4d" style="mix-blend-mode:screen"/><path d="M250,143.2c-8.84.07-16.87,0-16.54-.31s9.52-.54,16.54-.62v-.4c-27,.32-39.08.49-62.56.34-26.08-.16-31.42-1.41-25.09-2.07s35.66.66,76.16-.59c4.19-.12,8-.26,11.49-.4v-.58c-11.48.42-24,.75-23.87.22.17-.7,15.2-1.11,23.87-1.29v-.32c-30.76.66-83,1.54-97.68.73-16.19-.89-32.79.47-67,.82s-34.27-.11-47.71-1.24c-8.69-.73-26.24-.52-37.55-.27v.36c7.77-.15,22.09-.33,28.28.1,8.71.61,19.33,1.79-2.48,1.25-10.53-.27-19.29-.33-25.8-.31v.55l10,.06c25.52.24,24,1.45,49.31,1.17s47.14.16,21.3,2,27.34,1.76,53,.85,47.34.79,95.93.65c7.65,0,14.47-.1,20.4-.21ZM66.51,140.08c-9.23,0-20.73.21-26.85-.28s6.74-.19,4.68-.66-5.34-.95-1.58-.68c0,0,3.73.41,13.94.61s33.57-.4,33.57.42S75.75,140.08,66.51,140.08ZM173,138.64s22.25-.06,29.48-.22,17.22,0,17.89.51-12.18,1-29.5.8S162.91,138.68,173,138.64ZM95.35,140.4c4.5-.83-5.83-.34,6-1.33,0,0,24.33-1,37.33-.95s27.49.58,27.49.95-12.33.46-24.66.66-17.24,1.4-24.87,1.34S90.86,141.23,95.35,140.4ZM121,143c-2.5.38-10.67.44-24.67.44s-15.49-.38-11-.69,14.89-1.07,14.89-1.07C118.18,140.56,123.52,142.56,121,143Zm54.66-.13c-1,.31-28.42-.54-36.62-.26s-14.71.45-14-.08-7.77-1,.7-.91c0,0,19.29-1.15,24.79-.64s8.77,1.08,17.72,1.28S176.69,142.52,175.68,142.82Zm34.84.6c-24,0-40.34-.62-26.93-.84,0,0,31.07.06,36.24,0S234.54,143.42,210.52,143.42Z" fill="#4d4d4d" style="mix-blend-mode:screen"/><path d="M0,145.76c8.84-.07,16.87,0,16.54.31S7,146.61,0,146.69v.4c27-.33,39.08-.49,62.56-.34,26.08.16,31.42,1.4,25.09,2.07s-35.66-.67-76.16.58c-4.19.13-8,.27-11.49.41v.58c11.48-.42,24-.75,23.87-.22-.17.7-15.2,1.11-23.87,1.29v.32c30.76-.66,82.95-1.54,97.68-.73,16.19.89,32.79-.47,67-.82s34.27.11,47.71,1.24c8.69.73,26.24.52,37.55.27v-.36c-7.77.15-22.09.33-28.28-.1-8.71-.61-19.33-1.79,2.48-1.25,10.53.27,19.29.33,25.8.31v-.55l-10-.06c-25.52-.24-24-1.45-49.31-1.17s-47.14-.16-21.3-2-27.34-1.76-53-.85S69,144.88,20.41,145c-7.65,0-14.47.09-20.4.21Zm183.48,3.12c9.23,0,20.73-.21,26.85.27s-6.74.2-4.68.67,5.34,1,1.58.68c0,0-3.73-.41-13.94-.61s-33.57.4-33.57-.42S174.25,148.88,183.49,148.88ZM77,150.32s-22.25.06-29.48.22-17.22,0-17.89-.51,12.18-1,29.5-.8S87.09,150.28,77,150.32Zm77.61-1.76c-4.5.83,5.83.34-6,1.33,0,0-24.33,1.05-37.33,1s-27.49-.58-27.49-1,12.33-.46,24.66-.66,17.24-1.4,24.87-1.34S159.14,147.73,154.65,148.56ZM129,146c2.5-.38,10.67-.44,24.67-.44s15.49.38,11,.69-14.89,1.07-14.89,1.07C131.82,148.4,126.48,146.4,129,146Zm-54.66.12c1-.3,28.41.55,36.62.27s14.71-.45,14,.08,7.77,1.05-.7.91c0,0-19.29,1.15-24.79.64s-8.77-1.08-17.72-1.28S73.31,146.44,74.32,146.13Zm-34.84-.59c24,0,40.34.62,26.93.84,0,0-31.07-.06-36.24,0S15.46,145.54,39.48,145.54Z" fill="#4d4d4d" style="mix-blend-mode:screen"/><path d="M23.88,155.17c.14.53-12.39.19-23.87-.23v.58c3.49.14,7.31.28,11.49.41,40.5,1.25,69.83-.08,76.16.58s1,1.91-25.09,2.08c-23.48.15-35.55,0-62.56-.35v.41c2.1,0,4.4,0,6.59.09H76.32c1.22-.05,3-.09,5.45-.15,9-.21,12.22-.78,17.72-1.29s24.79.65,24.79.65c7.87-.13,1.15.31.69.79h3.81c1.55-.66,7.94-1.51,21-.73l10.08.73h8.44c-24.3-1.82-2.74-2.24,22.27-2,25.35.28,23.79-.93,49.32-1.18q5.26,0,10,0V155c-6.51,0-15.27,0-25.81.3-21.8.55-11.19-.64-2.47-1.24,6.19-.43,20.51-.25,28.28-.11v-.36c-11.31-.24-28.86-.46-37.56.28-13.43,1.13-13.49,1.58-47.7,1.23s-50.82-1.7-67-.81c-14.73.81-66.91-.07-97.68-.74v.33C8.68,154.06,23.71,154.46,23.88,155.17Zm135.85.69c0-.82,23.37-.22,33.57-.42s13.94-.61,13.94-.61c3.76-.27.48.21-1.58.68s10.8.18,4.68.67-17.62.27-26.85.27S159.73,156.68,159.73,155.86Zm-75.91-.42c0-.36,14.5-.85,27.5-.95s37.33.95,37.33.95c11.83,1,1.5.51,6,1.34s-13.67.6-21.29.66-12.54-1.13-24.87-1.33S83.82,155.8,83.82,155.44Zm-54.15-.14c.67-.53,10.67-.67,17.89-.5S77,155,77,155c10,0-.55.88-17.86,1.09S29,155.83,29.67,155.3Z" fill="#4d4d4d" style="mix-blend-mode:screen"/><path d="M89.85,25.44s7.24,24.92-7.77,84.1l-9.2-1c7.08-8.23,19.41-48.49,16-83.17C89.23,25,89.56,25,89.85,25.44Z" fill="#643117"/><path d="M89.82,27.86s-12.74,7.8-13.58,22.39a16.09,16.09,0,0,1,1-3s.46,4.68,1.56,6a33.53,33.53,0,0,0,2.73-5.75A14.9,14.9,0,0,0,82,42.38a6.65,6.65,0,0,0,.87,2.92,8.82,8.82,0,0,1-.23-4.2,7.39,7.39,0,0,0,.56,2.79,24.25,24.25,0,0,0,2.13-6.63s0,1.05-.16,2.18a29.86,29.86,0,0,0,2.65-6.61,3.6,3.6,0,0,1-.08,1.06A9.28,9.28,0,0,0,89.82,27.86Z" fill="#643117"/><path d="M90.14,28.44S81.81,24.14,70.81,30s-8.23,11.58-7.68,13,2.26,4.33,2.71,4.4c0,0-2-2.78-2.14-4.29,0,0,1.45,2.54,2.65,3.18a14.51,14.51,0,0,1-1.21-4.83,16.72,16.72,0,0,0,1.65,2.82s-.71-4.72,1.21-6.94a8,8,0,0,0,.83,3.07,8.2,8.2,0,0,1-.28-2.36s.61,2.31,1.65,3.06a16.73,16.73,0,0,1,.3-4.12,7.73,7.73,0,0,0,1,2.83s.31-4.4,3.14-5.89c0,0-.89.54-.62,2.87a6.48,6.48,0,0,1,5.82-5.56s-2.05.73-1.61,3.7c0,0-.59-2.28,2.93-3.7S88.87,30.81,90.14,28.44Z" fill="#643117"/><path d="M70.81,30c9.44-5.06,16.91-2.61,18.84-1.81-2.89-.41-9.15-1-13.7,1-5.85,2.5-14.83,6.35-11.36,15.36-.52-.73-.89-1.37-.89-1.37.17,1.51,2.14,4.29,2.14,4.29-.45-.07-2.15-2.93-2.71-4.4S59.82,35.92,70.81,30Z" fill="#643117"/><path d="M88.88,28.79s10.5-6.73,21.76-2.05A14.1,14.1,0,0,0,108,26.4s3.35,2.06,3.92,3.36a28.43,28.43,0,0,1-5.31,0,12.64,12.64,0,0,1-4-1.54,5.4,5.4,0,0,1,1.87,1.72,7.34,7.34,0,0,0-3.06-1.7,6.16,6.16,0,0,1,1.89,1.43,20.52,20.52,0,0,1-5.76-.81s.8.36,1.7.67a25,25,0,0,1-5.93-.42,2.94,2.94,0,0,0,.82.33A7.7,7.7,0,0,1,88.88,28.79Z" fill="#643117"/><path d="M89.53,29.5S95.36,16,109.45,13.14a16.53,16.53,0,0,0-2.82,1.43s4.63-.2,6.05.69a33.82,33.82,0,0,1-5.23,3.47,14.59,14.59,0,0,1-4.86,1.09,6.51,6.51,0,0,1,3,.45,8.69,8.69,0,0,0-4.12.36,7.1,7.1,0,0,1,2.79.16,24.16,24.16,0,0,1-6.16,3s1-.18,2.1-.47a29.58,29.58,0,0,1-6.07,3.51,3.7,3.7,0,0,0,1-.22A9.05,9.05,0,0,1,89.53,29.5Z" fill="#643117"/><path d="M76.24,50.25C76.9,38.7,85,31.41,88.38,28.87a38.27,38.27,0,0,0-9.09,13,47.39,47.39,0,0,0-2,5.55c0-.15,0-.24,0-.24A16.09,16.09,0,0,0,76.24,50.25Z" fill="#643117"/><path d="M89.54,29s-5.15-4.91-10-6a8.05,8.05,0,0,1,3.1.75S79.74,21.25,76.77,21c0,0,1-.28,3.23.71,0,0-5.51-2.64-6.23-3.48S70.5,15,70.5,15a10.2,10.2,0,0,1,5,.53,12.92,12.92,0,0,0-5.29-1A7.47,7.47,0,0,0,66.09,11a8.65,8.65,0,0,1,4,.19A11.7,11.7,0,0,0,65,10.23s4.49-3.07,11,1.17S88.16,23.87,89.75,27.14C89.75,27.14,91.24,30.73,89.54,29Z" fill="#643117"/><path d="M76.07,11.4c6.55,4.25,12.09,12.47,13.68,15.74a9.16,9.16,0,0,1,.6,2l-.25-.26s-5.48-9.28-11-10.12a7.45,7.45,0,0,1,4,.86s-5.39-6.76-13-8.5a11.86,11.86,0,0,0-5-.88S69.53,7.16,76.07,11.4Z" fill="#643117"/><path d="M110.64,26.74A14.1,14.1,0,0,0,108,26.4l.22.15a13.16,13.16,0,0,0-4.26-.5,6.41,6.41,0,0,1,2.61,1.1s-11.14-.9-16.35.9C93.35,26.45,101.76,23.05,110.64,26.74Z" fill="#643117"/><path d="M109.45,13.14a16.53,16.53,0,0,0-2.82,1.43s4.63-.2,6.05.69l-.12.1a11.81,11.81,0,0,0-8,.68,2.81,2.81,0,0,1,1.71.18s-5.31,1-8.39,3.46c-2.36,1.9-6,6.41-8,9.09C91.31,25.94,97.32,15.59,109.45,13.14Z" fill="#643117"/><path d="M90.72,29.09s4.87-12,8.16-13.06a6.18,6.18,0,0,0-3.22,1.75s2.75-7.53,9.19-9.62c0,0-6-3.38-10.22.43C85.89,16.57,90.72,29.09,90.72,29.09Z" fill="#643117"/><path d="M96.5,8.5c-2.87,2.31-5.11,6.37-5.38,8.26a4.68,4.68,0,0,1,3-3.05S89.83,21,90.38,28c-.93-3.16-3-12.86,4.25-19.45,4.17-3.81,10.22-.43,10.22-.43S99.37,6.19,96.5,8.5Z" fill="#643117"/><path d="M90.45,28.69s3.24-7.63-2.68-16.93S77,5.27,75.76,5.86s-3.67,2.27-3.7,2.67c0,0,2.31-1.92,3.64-2.16a9.46,9.46,0,0,0-2.63,2.54,12.94,12.94,0,0,1,4.17-1.39,15.41,15.41,0,0,0-2.37,1.64s4.11-.94,6.2.61a7,7,0,0,0-2.65.94,7,7,0,0,1,2.06-.41A6,6,0,0,0,77.89,12a14.71,14.71,0,0,1,3.65,0,7,7,0,0,0-2.43,1.1s3.9,0,5.41,2.37c0,0-.54-.75-2.57-.35a5.72,5.72,0,0,1,5.28,4.76s-.78-1.76-3.37-1.17c0,0,2-.68,3.46,2.33S88.28,27.73,90.45,28.69Z" fill="#643117"/><path d="M87.77,11.76c5.92,9.3,2.68,16.93,2.68,16.93l-.2-.11A21.77,21.77,0,0,0,87,13.24c-3.6-5.64-7.62-7.88-11.72-6.6.22-.17.38-.27.38-.27a6.29,6.29,0,0,0-2,.92,11.92,11.92,0,0,0-1.49,1,15.87,15.87,0,0,1,3.5-2.38C77,5.27,81.84,2.46,87.77,11.76Z" fill="#643117"/><path d="M90.68,28.25s14.21,5.78,15.2,13.27-5.16,8.8-5.16,8.8a6.37,6.37,0,0,0,2.57-2,4.21,4.21,0,0,1-2.41.25s3.36-1.13,3.44-4.24a6.6,6.6,0,0,1-3.5,3.51,9.62,9.62,0,0,1,.11-6.15c1.25-2.82,1.06-4.38-.33-5.33a4.84,4.84,0,0,1-.14,4.83s.9-3.21-.24-4.45a3,3,0,0,1-.33,2.91s-1.52-1.08-3.41-4.83-2.89,1.49-6.54-5.52l-.72-1.18Z" fill="#643117"/><path d="M89.59,28.14l1.09.11s14.21,5.78,15.2,13.27-5.16,8.8-5.16,8.8a6.37,6.37,0,0,0,2.57-2l-.25.1c3.66-3,1.5-7.88,1.5-7.88a5,5,0,0,1-1,2.23,8.26,8.26,0,0,0-.07-4c-3.58-6.26-13.81-10.49-13.81-10.49Z" fill="#643117"/><rect x="90.02" y="100.14" width="1.89" height="9.9" fill="#643117"/><rect x="128.79" y="100.14" width="1.89" height="9.9" transform="translate(259.47 210.18) rotate(180)" fill="#643117"/><rect x="88.06" y="70.94" width="44.59" height="1.8" fill="#643117"/><polygon points="122.34 64.06 110.35 50.01 98.36 64.06 88.06 70.94 110.35 70.94 132.65 70.94 122.34 64.06" fill="#643117"/><polygon points="122.34 64.06 110.35 50.01 98.36 64.06 110.35 65.77 122.34 64.06" fill="#643117"/><rect x="90.02" y="72.74" width="1.66" height="26.14" fill="#643117"/><rect x="129.02" y="72.74" width="1.66" height="26.14" fill="#643117"/><rect x="90.02" y="98.46" width="40.66" height="1.82" fill="#643117"/><rect x="109.73" y="71.4" width="1.25" height="40.66" transform="translate(202.08 -18.62) rotate(90)" fill="#643117"/><rect x="90.02" y="91.42" width="40.66" height="7.36" fill="#643117"/><rect x="184.02" y="100.14" width="1.89" height="9.9" fill="#643117"/><rect x="222.79" y="100.14" width="1.89" height="9.9" transform="translate(447.47 210.18) rotate(180)" fill="#643117"/><rect x="182.06" y="70.94" width="44.59" height="1.8" fill="#643117"/><polygon points="216.34 64.06 204.35 50.01 192.36 64.06 182.06 70.94 204.35 70.94 226.65 70.94 216.34 64.06" fill="#643117"/><polygon points="216.34 64.06 204.35 50.01 192.36 64.06 204.35 65.77 216.34 64.06" fill="#643117"/><rect x="184.02" y="72.74" width="1.66" height="26.14" fill="#643117"/><rect x="223.02" y="72.74" width="1.66" height="26.14" fill="#643117"/><rect x="184.02" y="98.46" width="40.66" height="1.82" fill="#643117"/><rect x="203.73" y="71.4" width="1.25" height="40.66" transform="translate(296.08 -112.62) rotate(90)" fill="#643117"/><rect x="184.02" y="91.42" width="40.66" height="7.36" fill="#643117"/><path d="M171.61,31.51s-2.73,57.53-1.54,76.66l-5.71-.09s5.58-61,5.38-76.74C169.74,31.34,171.07,26.85,171.61,31.51Z" fill="#643117"/><path d="M164.36,108.08s5.58-61,5.38-76.74a6.88,6.88,0,0,1,.61-2c-.11,3.71-.47,15-.6,18.1-.16,3.73-1.2,29.47-1.2,29.47l-.87,22.61-.14,8.57Z" fill="#643117"/><path d="M170.18,31.83s-12.58-8.11-26.12-2.53a17.41,17.41,0,0,1,3.2-.39s-4,2.46-4.72,4a34.3,34.3,0,0,0,6.38,0,15.19,15.19,0,0,0,4.74-1.83,6.45,6.45,0,0,0-2.25,2.05,8.86,8.86,0,0,1,3.68-2,7.2,7.2,0,0,0-2.27,1.72,24.46,24.46,0,0,0,6.91-1s-1,.43-2,.8a30,30,0,0,0,7.12-.48,3.71,3.71,0,0,1-1,.39A9.29,9.29,0,0,0,170.18,31.83Z" fill="#643117"/><path d="M157.42,30.93a9.74,9.74,0,0,1,3.32-1,23.92,23.92,0,0,0-12.22,1.38s2.92-2.12,5.08-2.44a18.91,18.91,0,0,0-6.46.14l.12-.07a17.41,17.41,0,0,0-3.2.39c13.54-5.58,26.12,2.53,26.12,2.53S162.89,29.41,157.42,30.93Z" fill="#643117"/><path d="M170,32s-5.14-4.56-9.89-5.42a7.69,7.69,0,0,1,3,.62s-2.86-2.31-5.73-2.46c0,0,1-.31,3.14.57,0,0-5.41-2.36-6.14-3.15s-3.27-3-3.27-3a10,10,0,0,1,4.83.34,12.55,12.55,0,0,0-5.14-.79,7.22,7.22,0,0,0-4.09-3.29,8.25,8.25,0,0,1,3.9,0,11.3,11.3,0,0,0-4.94-.73s4.24-3.11,10.71.77,12.09,11.63,13.74,14.74C170.11,30.29,171.68,33.71,170,32Z" fill="#643117"/><path d="M145.66,14.78s4.24-3.11,10.71.77,12.09,11.63,13.74,14.74c0,0,.89,1.94.6,2.18,0,0-1.48-3.72-6.54-6.33a6.31,6.31,0,0,1,2.2.54s-6.15-9.22-16-11.24A11.43,11.43,0,0,0,145.66,14.78Z" fill="#643117"/><path d="M169.47,31.28s5,4.24,6.48,8.61a7.6,7.6,0,0,0-1-2.77,11.42,11.42,0,0,1,3.11,5.09,5,5,0,0,0-1-2.89s3,4.79,3.81,5.37,3.27,2.68,3.27,2.68a9.41,9.41,0,0,0-1-4.52,11.9,11.9,0,0,1,1.46,4.75A6.91,6.91,0,0,1,188.32,51a7.91,7.91,0,0,0-.58-3.68,10.75,10.75,0,0,1,1.36,4.57s2.37-4.43-2.18-10-12.65-9.84-15.81-11C171.11,30.91,167.66,29.9,169.47,31.28Z" fill="#643117"/><path d="M171.27,31.94c2.84,1,10.13,4.85,14.22,9.87s2,9,2,9a9.68,9.68,0,0,0-1.23-4.11c0,.11.06.21.1.32-2.18-5.91-7.17-9.35-6.63-8.59a7.75,7.75,0,0,1,.85,3c-2.89-6-9.22-8.82-11.2-9.6C169.1,31.3,171.27,31.94,171.27,31.94Z" fill="#643117"/><path d="M168.73,31.85s6.26-6.61,18.21-4.73,11.24,8,11.2,9.49-.68,4.69-1.06,4.9c0,0,.91-3.17.58-4.61,0,0-.51,2.78-1.41,3.76a13.89,13.89,0,0,0-.44-4.81,17.09,17.09,0,0,1-.6,3.11s-.86-4.55-3.34-6a7.75,7.75,0,0,1,.23,3.07,7.84,7.84,0,0,0-.5-2.25s.19,2.31-.53,3.33a16.22,16.22,0,0,0-1.6-3.68,7.55,7.55,0,0,1,0,2.93s-1.69-3.93-4.76-4.39c0,0,1,.21,1.49,2.43a6.3,6.3,0,0,0-7.11-3.23s2.1,0,2.66,2.88c0,0-.19-2.28-3.87-2.46S170.65,33.61,168.73,31.85Z" fill="#643117"/><path d="M186.94,27.12c11.95,1.88,11.24,8,11.2,9.49s-.68,4.69-1.06,4.9c0,0,.91-3.17.58-4.61l0,.14c.28-5.48-4-5.34-4-5.34a3.05,3.05,0,0,1,1.13,2.12C192,29.22,182,28.5,183.16,28.71a5.6,5.6,0,0,1,2.45,1.71,12.69,12.69,0,0,0-4.42-1.56c-5.24-.33-10.54,1.95-12.21,2.75C170.23,30.45,176.35,25.46,186.94,27.12Z" fill="#643117"/><path d="M170.31,31.83s3.73-7.35-1.51-17-10.22-7.17-11.51-6.68-3.8,2-3.85,2.41c0,0,2.42-1.75,3.76-1.9,0,0-2.23,1.28-2.78,2.34a12.64,12.64,0,0,1,4.23-1.09,15.71,15.71,0,0,0-2.47,1.46s4.15-.65,6.11,1a7.08,7.08,0,0,0-2.69.75,6.9,6.9,0,0,1,2.07-.26A5.91,5.91,0,0,0,159,14.38a14.85,14.85,0,0,1,3.63.24,6.84,6.84,0,0,0-2.49.92s3.87.25,5.2,2.72c0,0-.48-.78-2.53-.52a5.71,5.71,0,0,1,4.92,5.08s-.65-1.79-3.27-1.39c0,0,2-.54,3.27,2.55S168.22,30.73,170.31,31.83Z" fill="#643117"/><path d="M166,16.55A6.43,6.43,0,0,1,169,19.08s-3.73-9.62-10.6-9.65a3.75,3.75,0,0,1,3,.21s-1.4-1.75-4.58-1.29l.41-.18c1.29-.49,6.27-2.95,11.51,6.68s1.51,17,1.51,17S171.39,20.14,166,16.55Z" fill="#643117"/><path d="M170.67,31.27S163,31.8,154,37.49s-9.48,11.18-9.48,11.18a8.67,8.67,0,0,1,2.34-3.45,5.77,5.77,0,0,0-1.28,2.43,11.92,11.92,0,0,0,5.74-2.92,18.85,18.85,0,0,0,3.57-4.92,11.06,11.06,0,0,1-2.14,4.67,10.58,10.58,0,0,0,2.15-2.63,5.41,5.41,0,0,1-.52,1.63,9.52,9.52,0,0,0,5.69-5.56,9,9,0,0,1-1,2.66,3.83,3.83,0,0,0,1.2-1.73C160.8,37.6,169.16,35.86,170.67,31.27Z" fill="#643117"/><path d="M154,37.49c8.94-5.69,16.63-6.22,16.63-6.22,0,.15-.11.3-.18.46-3.07.63-10.15,2.32-11.87,4.62-2.21,3-2.39,4.33-2.39,4.33s.18-3.11,1-4.27c.65-1-6.7,4.33-10.34,8.85a8.59,8.59,0,0,0-2.3,3.41S145.09,43.18,154,37.49Z" fill="#643117"/><path d="M170.55,30.2s7.36-15.6,15.82-16.26,9.57,6.34,9.57,6.34a7.17,7.17,0,0,0-2.12-3A4.6,4.6,0,0,1,194,20s-1.06-3.84-4.55-4.11A7.37,7.37,0,0,1,193.13,20s-3.81,1.06-6.9-.5-4.84-1.46-6,0a5.46,5.46,0,0,1,5.42.46s-3.55-1.21-5,0a3.41,3.41,0,0,1,3.26.54s-1.31,1.64-5.63,3.53,1.5,3.34-6.59,7l-1.37.73Z" fill="#643117"/><path d="M186.37,13.94c8.47-.66,9.57,6.34,9.57,6.34a7.17,7.17,0,0,0-2.12-3,1.76,1.76,0,0,1,.06.17c-5.09-5.23-10.84-1-10.84-1a5.55,5.55,0,0,1,2.67.22c-5.46-.41-10.39,6.87-10.39,6.87a4.31,4.31,0,0,1,1.26-.22c-3.36,1.71-6.28,8.53-6.28,8.53l.25-1.63S177.91,14.6,186.37,13.94Z" fill="#643117"/><path d="M171,30.06s-3.27-14.27,6.37-24.86A16.69,16.69,0,0,0,176,8s3.6-2.89,5.27-3a32.78,32.78,0,0,1-2.16,5.86,14.51,14.51,0,0,1-3.26,3.74,6.44,6.44,0,0,1,2.64-1.38,8.59,8.59,0,0,0-3.09,2.71,7.11,7.11,0,0,1,2.33-1.52,23.9,23.9,0,0,1-3.18,6s.71-.74,1.41-1.61a29.24,29.24,0,0,1-2.81,6.39,3.62,3.62,0,0,0,.69-.77A9.06,9.06,0,0,1,171,30.06Z" fill="#643117"/><path d="M173.53,14a6.24,6.24,0,0,1,1.71-1.29c-4.17,4.91-4.06,14.45-3.94,17.13a3.07,3.07,0,0,1-.26.25s-3.27-14.27,6.37-24.86A16.69,16.69,0,0,0,176,8s3.6-2.89,5.27-3C173.92,10,173.53,14,173.53,14Z" fill="#643117"/><path d="M152.48,57s1.83,38.62,1,51.47l3.83-.06s-3.74-40.95-3.61-51.52C153.73,56.84,152.84,53.82,152.48,57Z" fill="#643117"/><path d="M157.34,108.36s-3.74-40.95-3.61-51.52a4.36,4.36,0,0,0-.41-1.32c.08,2.49.32,10.07.41,12.15.11,2.5.8,19.79.8,19.79l.59,15.18.09,5.75Z" fill="#643117"/><path d="M153.44,57.16s8.45-5.44,17.53-1.69a10.83,10.83,0,0,0-2.14-.27s2.7,1.65,3.17,2.7a22.74,22.74,0,0,1-4.29,0,9.86,9.86,0,0,1-3.18-1.23A4.41,4.41,0,0,1,166,58a5.9,5.9,0,0,0-2.47-1.36,4.91,4.91,0,0,1,1.52,1.15,16.41,16.41,0,0,1-4.64-.64s.65.29,1.37.53a20,20,0,0,1-4.77-.32,2.51,2.51,0,0,0,.66.27A6.22,6.22,0,0,1,153.44,57.16Z" fill="#643117"/><path d="M162,56.56a6.48,6.48,0,0,0-2.23-.69,16,16,0,0,1,8.2.92,10.33,10.33,0,0,0-3.41-1.64,12.8,12.8,0,0,1,4.34.1l-.08,0a10.83,10.83,0,0,1,2.14.27c-9.08-3.75-17.53,1.69-17.53,1.69S158.33,55.54,162,56.56Z" fill="#643117"/><path d="M153.58,57.31s3.45-3.07,6.64-3.65a5.28,5.28,0,0,0-2,.42A8,8,0,0,1,162,52.43a3.48,3.48,0,0,0-2.11.38,28.49,28.49,0,0,0,4.13-2.11c.49-.53,2.19-2,2.19-2a6.55,6.55,0,0,0-3.24.23,8.36,8.36,0,0,1,3.45-.53,4.87,4.87,0,0,1,2.74-2.22,5.66,5.66,0,0,0-2.62,0,7.53,7.53,0,0,1,3.32-.49s-2.84-2.1-7.19.51-8.12,7.81-9.22,9.9C153.49,56.13,152.43,58.43,153.58,57.31Z" fill="#643117"/><path d="M169.9,45.72s-2.84-2.1-7.19.51-8.12,7.81-9.22,9.9c0,0-.6,1.3-.41,1.47a9.29,9.29,0,0,1,4.39-4.26,4.22,4.22,0,0,0-1.47.36s4.12-6.19,10.71-7.54A7.59,7.59,0,0,1,169.9,45.72Z" fill="#643117"/><path d="M153.92,56.79s-3.37,2.85-4.36,5.79a5.06,5.06,0,0,1,.68-1.86,7.61,7.61,0,0,0-2.09,3.41,3.3,3.3,0,0,1,.65-1.94,28,28,0,0,1-2.56,3.61c-.56.39-2.2,1.8-2.2,1.8a6.33,6.33,0,0,1,.66-3,8,8,0,0,0-1,3.19A4.63,4.63,0,0,0,141.26,70a5.27,5.27,0,0,1,.39-2.47,7.35,7.35,0,0,0-.92,3.07s-1.59-3,1.47-6.72,8.49-6.61,10.61-7.37C152.81,56.55,155.13,55.87,153.92,56.79Z" fill="#643117"/><path d="M152.71,57.23a26,26,0,0,0-9.55,6.63c-2.75,3.38-1.32,6-1.32,6a6.53,6.53,0,0,1,.82-2.76l-.06.22c1.46-4,4.81-6.28,4.44-5.77a5.33,5.33,0,0,0-.56,2c1.94-4,6.18-5.92,7.52-6.44C154.16,56.81,152.71,57.23,152.71,57.23Z" fill="#643117"/><path d="M154.41,57.18s-4.2-4.44-12.22-3.18-7.55,5.35-7.53,6.37a8.89,8.89,0,0,0,.72,3.29,8.92,8.92,0,0,1-.39-3.1,7,7,0,0,0,.94,2.53,9.28,9.28,0,0,1,.3-3.23,11.25,11.25,0,0,0,.4,2.09s.58-3.06,2.24-4a5.29,5.29,0,0,0-.15,2.07,5.31,5.31,0,0,1,.33-1.52,4.49,4.49,0,0,0,.36,2.24,11.19,11.19,0,0,1,1.07-2.47,5.12,5.12,0,0,0,0,2s1.13-2.65,3.19-3c0,0-.66.15-1,1.64a4.24,4.24,0,0,1,4.78-2.17s-1.42,0-1.79,1.93c0,0,.13-1.53,2.6-1.65S153.12,58.36,154.41,57.18Z" fill="#643117"/><path d="M142.19,54c-8,1.26-7.55,5.35-7.53,6.37a8.89,8.89,0,0,0,.72,3.29,8.92,8.92,0,0,1-.39-3.1l0,.1c-.19-3.68,2.71-3.58,2.71-3.58A2.08,2.08,0,0,0,137,58.5c1.83-3.09,8.55-3.57,7.75-3.43a3.74,3.74,0,0,0-1.64,1.15,8.42,8.42,0,0,1,3-1,18.07,18.07,0,0,1,8.2,1.85C153.4,56.24,149.3,52.88,142.19,54Z" fill="#643117"/><path d="M153.35,57.16s-2.5-4.93,1-11.4,6.87-4.82,7.73-4.48a8,8,0,0,1,2.59,1.61,8.17,8.17,0,0,0-2.52-1.27A6.22,6.22,0,0,1,164,43.19a8.57,8.57,0,0,0-2.84-.73,9.84,9.84,0,0,1,1.66,1s-2.78-.44-4.11.69a4.78,4.78,0,0,1,1.81.5,4.58,4.58,0,0,0-1.39-.17,4,4,0,0,1,1.8,1,9.63,9.63,0,0,0-2.43.17,4.49,4.49,0,0,1,1.67.62s-2.6.16-3.49,1.82c0,0,.32-.52,1.69-.35a3.83,3.83,0,0,0-3.3,3.41s.44-1.2,2.19-.93c0,0-1.34-.36-2.19,1.71S154.75,56.42,153.35,57.16Z" fill="#643117"/><path d="M156.26,46.91a4.25,4.25,0,0,0-2.06,1.69s2.51-6.46,7.12-6.48a2.53,2.53,0,0,0-2,.14,3.28,3.28,0,0,1,3.07-.86l-.28-.12c-.86-.34-4.21-2-7.73,4.48s-1,11.4-1,11.4S152.62,49.31,156.26,46.91Z" fill="#643117"/><path d="M153.11,56.78A26.56,26.56,0,0,1,164.28,61c6,3.82,6.36,7.5,6.36,7.5a5.81,5.81,0,0,0-1.57-2.32,4,4,0,0,1,.86,1.63,8,8,0,0,1-3.85-2,12.63,12.63,0,0,1-2.4-3.31,7.5,7.5,0,0,0,1.43,3.14,7.22,7.22,0,0,1-1.44-1.77A3.62,3.62,0,0,0,164,65a6.4,6.4,0,0,1-3.82-3.74,6,6,0,0,0,.68,1.79,2.64,2.64,0,0,1-.81-1.16C159.74,61,154.12,59.87,153.11,56.78Z" fill="#643117"/><path d="M164.28,61a26.56,26.56,0,0,0-11.17-4.19l.12.31c2.06.43,6.82,1.57,8,3.11a7.82,7.82,0,0,1,1.61,2.91,8.11,8.11,0,0,0-.66-2.87c-.44-.65,4.5,2.91,6.95,5.94a5.81,5.81,0,0,1,1.54,2.29S170.29,64.79,164.28,61Z" fill="#643117"/><path d="M153.19,56.07s-4.94-10.48-10.62-10.92-6.43,4.25-6.43,4.25a4.88,4.88,0,0,1,1.42-2,3.1,3.1,0,0,0-.08,1.83s.71-2.58,3.05-2.77a5,5,0,0,0-2.5,2.78,7.24,7.24,0,0,0,4.63-.33c2.07-1.06,3.25-1,4,0a3.67,3.67,0,0,0-3.64.3s2.39-.8,3.37,0a2.31,2.31,0,0,0-2.19.37A10.48,10.48,0,0,0,148,52c2.91,1.27-1,2.24,4.43,4.71l.92.49Z" fill="#643117"/><path d="M142.57,45.15c-5.69-.44-6.43,4.25-6.43,4.25a4.88,4.88,0,0,1,1.42-2,.82.82,0,0,1,0,.11,5.56,5.56,0,0,1,7.28-.67A3.72,3.72,0,0,0,143,47c3.67-.27,7,4.61,7,4.61a2.7,2.7,0,0,0-.85-.14c2.25,1.14,4.22,5.72,4.22,5.72l-.17-1.09S148.25,45.59,142.57,45.15Z" fill="#643117"/><path d="M152.86,56s2.2-9.58-4.28-16.69a10.58,10.58,0,0,1,1,1.89s-2.42-1.94-3.53-2a22.31,22.31,0,0,0,1.44,3.93,10,10,0,0,0,2.19,2.52,4.3,4.3,0,0,0-1.77-.93A5.74,5.74,0,0,1,150,46.49a4.89,4.89,0,0,0-1.57-1,15.8,15.8,0,0,0,2.14,4.05s-.48-.5-1-1.08a19.55,19.55,0,0,0,1.89,4.29,2.35,2.35,0,0,1-.47-.52A6.1,6.1,0,0,0,152.86,56Z" fill="#643117"/><path d="M151.19,45.17a4.13,4.13,0,0,0-1.15-.86c2.8,3.29,2.73,9.7,2.65,11.5l.17.16s2.2-9.58-4.28-16.69a10.58,10.58,0,0,1,1,1.89s-2.42-1.94-3.53-2C150.93,42.49,151.19,45.17,151.19,45.17Z" fill="#643117"/><path d="M33.78,48.09s.94,47.58,3,63.28l-4.71.25s1.22-50.58.19-63.56C32.23,48.06,33.08,44.28,33.78,48.09Z" fill="#643117"/><path d="M32,111.62s1.22-50.58.19-63.56a5.67,5.67,0,0,1,.39-1.65c.11,3.06.45,12.39.51,15,.07,3.08.65,24.37.65,24.37l.52,18.68.37,7.07Z" fill="#643117"/><path d="M32.61,48.44s-10.82-6-21.66-.64a13.76,13.76,0,0,1,2.61-.5s-3.18,2.25-3.67,3.57a27.8,27.8,0,0,0,5.26-.38A12.24,12.24,0,0,0,19,48.71a5.55,5.55,0,0,0-1.74,1.82,7.35,7.35,0,0,1,2.93-1.88,6.24,6.24,0,0,0-1.78,1.54A19.86,19.86,0,0,0,24,49s-.77.41-1.63.77A24.72,24.72,0,0,0,28.21,49a3,3,0,0,1-.79.38A7.61,7.61,0,0,0,32.61,48.44Z" fill="#643117"/><path d="M22.05,48.4a8.15,8.15,0,0,1,2.68-1,19.78,19.78,0,0,0-10,1.81,12.56,12.56,0,0,1,4.05-2.29,15.67,15.67,0,0,0-5.31.47l.09-.06a13.76,13.76,0,0,0-2.61.5c10.84-5.35,21.66.64,21.66.64S26.48,46.84,22.05,48.4Z" fill="#643117"/><path d="M32.46,48.62S28,45.14,24,44.7a6.44,6.44,0,0,1,2.53.34,9.91,9.91,0,0,0-4.86-1.71,4.28,4.28,0,0,1,2.62.3s-4.6-1.65-5.24-2.25-2.86-2.29-2.86-2.29a8.18,8.18,0,0,1,4,0,10.28,10.28,0,0,0-4.28-.37,6,6,0,0,0-3.55-2.49,6.87,6.87,0,0,1,3.21-.17,9.31,9.31,0,0,0-4.11-.33s3.32-2.81,8.87,0S31,44.7,32.48,47.17C32.48,47.17,34,49.9,32.46,48.62Z" fill="#643117"/><path d="M11.46,35.74s3.32-2.81,8.87,0S31,44.7,32.48,47.17c0,0,.84,1.55.61,1.77a11.37,11.37,0,0,0-5.74-4.86,5.12,5.12,0,0,1,1.84.32S23.62,37.14,15.42,36A9.47,9.47,0,0,0,11.46,35.74Z" fill="#643117"/><path d="M32,48s4.37,3.22,5.82,6.74a6.05,6.05,0,0,0-1-2.23,9.5,9.5,0,0,1,2.85,4,4.2,4.2,0,0,0-1-2.33s2.71,3.79,3.44,4.22,2.85,2,2.85,2A7.85,7.85,0,0,0,44,56.8a9.93,9.93,0,0,1,1.46,3.84,5.65,5.65,0,0,1,3.21,2.6,6.5,6.5,0,0,0-.68-3,8.89,8.89,0,0,1,1.38,3.7S51,60.15,47,55.8s-11-7.41-13.64-8.17C33.33,47.63,30.43,47,32,48Z" fill="#643117"/><path d="M33.52,48.46c2.4.68,8.62,3.44,12.27,7.36s2.12,7.31,2.12,7.31a8,8,0,0,0-1.24-3.32,2.77,2.77,0,0,1,.1.26c-2.12-4.75-6.43-7.31-5.93-6.71a6.43,6.43,0,0,1,.86,2.41C39,51,33.61,49,31.93,48.47,31.7,48.06,33.52,48.46,33.52,48.46Z" fill="#643117"/><path d="M31.43,48.53s4.79-5.79,14.74-4.91,9.72,6,9.77,7.21-.3,3.9-.61,4.09a11,11,0,0,0,.22-3.83,8.46,8.46,0,0,1-.95,3.18A11.57,11.57,0,0,0,54,50.33a14.39,14.39,0,0,1-.32,2.6s-1-3.71-3.08-4.74a6.34,6.34,0,0,1,.35,2.52,6.36,6.36,0,0,0-.53-1.83,5.45,5.45,0,0,1-.26,2.78,13.29,13.29,0,0,0-1.52-2.95,6.32,6.32,0,0,1,.14,2.42S47.14,48,44.58,47.77c0,0,.83.12,1.36,1.92a5.19,5.19,0,0,0-6-2.26s1.74-.11,2.35,2.22c0,0-.28-1.87-3.32-1.81S33.11,49.88,31.43,48.53Z" fill="#643117"/><path d="M46.17,43.62c10,.89,9.72,6,9.77,7.21s-.3,3.9-.61,4.09a11,11,0,0,0,.22-3.83.94.94,0,0,1,0,.12C55.46,46.68,51.9,47,51.9,47A2.55,2.55,0,0,1,53,48.72c-2.5-3.64-10.79-3.68-9.8-3.57a4.58,4.58,0,0,1,2.11,1.27,10.29,10.29,0,0,0-3.73-1,22.34,22.34,0,0,0-9.91,2.94C32.59,47.3,37.35,42.84,46.17,43.62Z" fill="#643117"/><path d="M32.73,48.43s2.66-6.27-2.19-13.92-8.82-5.34-9.86-4.86-3,1.86-3,2.19a10.05,10.05,0,0,1,3-1.77,7.74,7.74,0,0,0-2.16,2.08A10.48,10.48,0,0,1,21.9,31,12.94,12.94,0,0,0,20,32.36s3.38-.76,5.09.51a5.78,5.78,0,0,0-2.18.77,5.91,5.91,0,0,1,1.69-.33,4.88,4.88,0,0,0-2.12,1.36,11.74,11.74,0,0,1,3,0,5.66,5.66,0,0,0-2,.89s3.21,0,4.44,2c0,0-.44-.62-2.12-.3a4.72,4.72,0,0,1,4.34,3.92s-.63-1.44-2.77-1c0,0,1.62-.55,2.84,1.92S30.94,47.64,32.73,48.43Z" fill="#643117"/><path d="M28.3,36.07A5.29,5.29,0,0,1,31,38s-3.61-7.73-9.27-7.37a3.12,3.12,0,0,1,2.5,0,4.08,4.08,0,0,0-3.85-.81l.33-.16c1-.48,5-2.79,9.86,4.86s2.18,13.92,2.18,13.92S33,38.73,28.3,36.07Z" fill="#643117"/><path d="M33,47.94A32.52,32.52,0,0,0,19.62,54c-7.06,5.18-7.19,9.74-7.19,9.74a7.21,7.21,0,0,1,1.74-3,4.84,4.84,0,0,0-.93,2.08,9.91,9.91,0,0,0,4.58-2.72,15.56,15.56,0,0,0,2.67-4.26,9.13,9.13,0,0,1-1.51,4,8.87,8.87,0,0,0,1.63-2.29,4.24,4.24,0,0,1-.34,1.37A7.88,7.88,0,0,0,24.66,54,7.77,7.77,0,0,1,24,56.27a3.26,3.26,0,0,0,.89-1.5C25.2,53.71,32,51.82,33,47.94Z" fill="#643117"/><path d="M19.62,54A32.52,32.52,0,0,1,33,47.94c0,.13-.08.26-.12.39-2.5.7-8.24,2.48-9.53,4.47-1.66,2.56-1.73,3.71-1.73,3.71a10,10,0,0,1,.56-3.58c.49-.83-5.28,3.94-8,7.87a7.19,7.19,0,0,0-1.7,2.94S12.56,59.18,19.62,54Z" fill="#643117"/><path d="M32.83,47.07S38,33.8,45,32.79s8.23,4.69,8.23,4.69a5.81,5.81,0,0,0-1.91-2.36,3.84,3.84,0,0,1,.26,2.23s-1.09-3.11-4-3.14a6.09,6.09,0,0,1,3.3,3.21,8.91,8.91,0,0,1-5.71,0c-2.63-1.13-4.07-.94-4.94.37a4.5,4.5,0,0,1,4.49.07s-3-.79-4.14.28a2.82,2.82,0,0,1,2.71.27s-1,1.42-4.44,3.22,1.42,2.67-5.05,6.15l-1.09.68Z" fill="#643117"/><path d="M45,32.79c6.94-1,8.23,4.69,8.23,4.69a5.81,5.81,0,0,0-1.91-2.36.87.87,0,0,1,.06.13c-4.49-4-9-.22-9-.22a4.55,4.55,0,0,1,2.21,0c-4.52,0-8.18,6.24-8.18,6.24a3.4,3.4,0,0,1,1-.25c-2.67,1.59-4.71,7.38-4.71,7.38l.12-1.36S38,33.8,45,32.79Z" fill="#643117"/><path d="M33.23,46.93s-3.49-11.59,3.88-20.85a13.32,13.32,0,0,0-1,2.39s2.81-2.58,4.18-2.77a27.1,27.1,0,0,1-1.46,4.95,12,12,0,0,1-2.48,3.27,5.52,5.52,0,0,1,2.1-1.29A7.14,7.14,0,0,0,36,35a6.05,6.05,0,0,1,1.84-1.38,19.68,19.68,0,0,1-2.29,5.16s.55-.66,1.08-1.41a24.58,24.58,0,0,1-2,5.42,3,3,0,0,0,.52-.68A7.47,7.47,0,0,1,33.23,46.93Z" fill="#643117"/><path d="M34.39,33.52a5.22,5.22,0,0,1,1.34-1.15c-3.17,4.28-2.55,12.13-2.3,14.34l-.2.22s-3.49-11.59,3.88-20.85a13.32,13.32,0,0,0-1,2.39s2.81-2.58,4.18-2.77C34.49,30.21,34.39,33.52,34.39,33.52Z" fill="#643117"/><path d="M15.63,55.28s-4.89,41.8-5,55.81l-4.15-.36s7.14-44.17,7.8-55.66C14.28,55.07,15.48,51.86,15.63,55.28Z" fill="#643117"/><path d="M6.48,110.73s7.14-44.17,7.8-55.66a5,5,0,0,1,.54-1.4c-.27,2.7-1.09,10.91-1.35,13.16-.31,2.71-2.36,21.43-2.36,21.43L9.32,104.69l-.53,6.24Z" fill="#643117"/><path d="M14.57,55.44l0,0-.17.07-.06,0-.06,0-.33.12h0a6.53,6.53,0,0,1-2.4.25,7.28,7.28,0,0,1-1.23-.2h0a2.81,2.81,0,0,1-.35-.1,2.77,2.77,0,0,0,.73-.24,21.9,21.9,0,0,1-5.21,0,15.32,15.32,0,0,0,1.5-.47,17.93,17.93,0,0,1-5.06.34,5.41,5.41,0,0,1,1.74-1.13A6.36,6.36,0,0,0,.83,55.43a5.21,5.21,0,0,1,1.53-1.29A12.09,12.09,0,0,1,0,55v-3.6a23.14,23.14,0,0,1,13.5,3.35l0,0L14,55h0l.08.06,0,0,.18.12.08.05,0,0,.16.12h0Z" fill="#643117"/><path d="M14.53,55.42l-.06,0-.21-.08-.16-.06h0l-.23-.08,0,0h-.05c-1.62-.56-5.34-1.63-8.43-1a7.27,7.27,0,0,1,2.47-.58A17.52,17.52,0,0,0,0,53.62V53.3a8,8,0,0,1,2.64-.88A13.35,13.35,0,0,0,0,52.1v-.72a23.14,23.14,0,0,1,13.5,3.35l0,0L14,55h0l.08.06,0,0,.18.12.08.05,0,0Z" fill="#643117"/><path d="M15,55.88a0,0,0,0,0,0,0s0,0,0,0l0,0c0,.05-.15,0-.33-.16l0,0-.11-.11-.05-.06-.06-.06-.11-.11-.16-.15h0l-.13-.12h0l0,0h0l-.37-.33,0,0a16.58,16.58,0,0,0-6-3.6,5.76,5.76,0,0,1,2.17.61,8.74,8.74,0,0,0-4.06-2.09,3.77,3.77,0,0,1,2.22.56,29.77,29.77,0,0,1-4.27-2.58C3,47,1.3,45.28,1.3,45.28a7.25,7.25,0,0,1,3.49.48,9.23,9.23,0,0,0-3.69-.83A5.26,5.26,0,0,0,0,43.42V42.33c.32.05.69.12,1.11.22L1,42.5a8.19,8.19,0,0,0-1-.37v-1a8.48,8.48,0,0,1,5.33,1.75c3.58,2.49,6.65,6.74,8.29,9.56.4.69.72,1.3.93,1.77l0,.11h0a1.18,1.18,0,0,0,.07.21h0l0,.07s0,0,0,0,0,.08,0,.13a.07.07,0,0,1,0,.05c0,.07.05.14.08.22v0s0,.08,0,.13a1.55,1.55,0,0,1,0,.21A1,1,0,0,1,15,55.88Z" fill="#643117"/><path d="M15,55.88l0,0h0v0a.32.32,0,0,1,0-.06c0-.07-.08-.2-.16-.39l-.05-.09h0a0,0,0,0,1,0,0h0l0-.06a2.12,2.12,0,0,0-.11-.21L14.46,55l-.07-.13,0,0h0a2.63,2.63,0,0,0-.16-.26c-.12-.19-.26-.39-.41-.6h0A11.86,11.86,0,0,0,10.48,51a4.78,4.78,0,0,1,1.58.5s-4-7-11.06-9a8.19,8.19,0,0,0-1-.37v-1a8.48,8.48,0,0,1,5.33,1.75c3.58,2.49,6.65,6.74,8.29,9.56.4.69.72,1.3.93,1.77l0,.11h0a1.18,1.18,0,0,0,.07.21h0l0,.07s0,0,0,0,0,.08,0,.13a.07.07,0,0,1,0,.05c0,.07.05.14.08.22v0s0,.08,0,.13a1.55,1.55,0,0,1,0,.21A1,1,0,0,1,15,55.88Z" fill="#643117"/><path d="M14.09,55s3.44,3.34,4.29,6.61a5.65,5.65,0,0,0-.6-2.08,8.32,8.32,0,0,1,2,3.87,3.59,3.59,0,0,0-.56-2.16,30.6,30.6,0,0,0,2.51,4.11c.58.47,2.25,2.12,2.25,2.12a6.88,6.88,0,0,0-.49-3.34,8.58,8.58,0,0,1,.82,3.53,5.09,5.09,0,0,1,2.51,2.68,5.84,5.84,0,0,0-.24-2.71A7.88,7.88,0,0,1,27.35,71s1.95-3.1-1.08-7.4-8.72-7.82-11-8.81C15.3,54.82,12.84,53.91,14.09,55Z" fill="#643117"/><path d="M15.36,55.58c2,.88,7.14,4.05,9.87,7.92s1,6.66,1,6.66a7.08,7.08,0,0,0-.69-3.06c0,.09,0,.16.06.24-1.29-4.42-4.76-7.18-4.4-6.59A5.67,5.67,0,0,1,21.65,63c-1.81-4.49-6.27-6.9-7.68-7.56C13.82,55,15.36,55.58,15.36,55.58Z" fill="#643117"/><path d="M13.52,55.39s4.89-4.5,13.51-2.53,7.79,6.38,7.69,7.49-.73,3.38-1,3.51a9.81,9.81,0,0,0,.66-3.33,7.48,7.48,0,0,1-1.22,2.67,10.09,10.09,0,0,0-.07-3.53,12.5,12.5,0,0,1-.6,2.24s-.4-3.36-2.13-4.52a5.58,5.58,0,0,1,0,2.25A5.68,5.68,0,0,0,30.09,58a4.82,4.82,0,0,1-.56,2.41,12.13,12.13,0,0,0-1-2.77,5.56,5.56,0,0,1-.18,2.14s-1-3-3.24-3.45c0,0,.71.2,1,1.85a4.6,4.6,0,0,0-5-2.71s1.53.11,1.79,2.23c0,0,0-1.67-2.69-2S14.83,56.77,13.52,55.39Z" fill="#643117"/><path d="M27,52.86c8.62,2,7.79,6.38,7.69,7.49s-.73,3.38-1,3.51a9.81,9.81,0,0,0,.66-3.33l0,.1c.48-4-2.68-4.09-2.68-4.09a2.25,2.25,0,0,1,.71,1.6c-1.75-3.49-9-4.53-8.15-4.31a4.08,4.08,0,0,1,1.69,1.37,9.24,9.24,0,0,0-3.14-1.36,19.84,19.84,0,0,0-9,1.38C14.68,54.44,19.39,51.11,27,52.86Z" fill="#643117"/><path d="M14.67,55.45s3.09-5.17-.24-12.45-7.09-5.75-8-5.45A8.58,8.58,0,0,0,3.45,39.1a8.77,8.77,0,0,1,2.83-1.19,6.76,6.76,0,0,0-2.14,1.57,9.18,9.18,0,0,1,3.14-.58,10.78,10.78,0,0,0-1.87.94s3.05-.27,4.4,1.06a5,5,0,0,0-2,.41,4.91,4.91,0,0,1,1.52-.09,4.33,4.33,0,0,0-2,.94,10.5,10.5,0,0,1,2.63.36,4.84,4.84,0,0,0-1.86.54s2.81.38,3.66,2.25c0,0-.32-.59-1.82-.51a4.16,4.16,0,0,1,3.33,4s-.39-1.34-2.31-1.18c0,0,1.48-.29,2.25,2S13.2,54.54,14.67,55.45Z" fill="#643117"/><path d="M12.28,44.1a4.64,4.64,0,0,1,2.11,2s-2.23-7.2-7.24-7.57a2.75,2.75,0,0,1,2.19.3,3.6,3.6,0,0,0-3.27-1.17l.31-.1c1-.3,4.72-1.84,8.05,5.45s.24,12.45.24,12.45S16.05,47,12.28,44.1Z" fill="#643117"/><path d="M15,55.06c0,.06-.05.11-.07.16l-.08.16h0l-.05.1-.07.13a.61.61,0,0,0-.07.1l0,0-.11.16a2.69,2.69,0,0,1-.27.32C12.09,58.56,7.38,59.3,7,60.06a2.9,2.9,0,0,1-.95,1.18,6.6,6.6,0,0,0,.85-1.84A7,7,0,0,1,2.5,63.14,3.77,3.77,0,0,0,3,62a7.92,7.92,0,0,1-1.7,1.81A8,8,0,0,0,3,60.51,14,14,0,0,1,.2,63.9a1.56,1.56,0,0,1-.2.16V60.32a24.15,24.15,0,0,1,2.52-1.56,32.41,32.41,0,0,1,7.74-3h0a26.81,26.81,0,0,1,3.48-.61H15Z" fill="#643117"/><path d="M15,55.06c0,.06-.05.11-.07.16l-.08.16H14.5l-.21,0h0l-.11,0-.44.07h0c-.66.1-1.41.23-2.19.4-2.25.47-4.71,1.2-5.58,2.21a9,9,0,0,0-1.95,3,8.3,8.3,0,0,1,.91-3c.37-.47-2.27,1.09-4.88,3.14v-1a24.15,24.15,0,0,1,2.52-1.56,32.41,32.41,0,0,1,7.74-3h0a26.81,26.81,0,0,1,3.48-.61H15Z" fill="#643117"/><path d="M14.93,54.27s6.15-11,12.36-11,6.65,5.1,6.65,5.1A5.26,5.26,0,0,0,32.55,46a3.4,3.4,0,0,1,0,2s-.59-2.86-3.11-3.23A5.37,5.37,0,0,1,31.9,48a7.89,7.89,0,0,1-5-.72C24.73,46,23.44,46,22.52,47a4,4,0,0,1,3.93.61s-2.53-1.06-3.65-.26a2.48,2.48,0,0,1,2.34.57,11.59,11.59,0,0,1-4.28,2.29c-3.25,1.16.92,2.5-5.16,4.78l-1,.46Z" fill="#643117"/><path d="M27.29,43.23c6.2-.06,6.65,5.1,6.65,5.1A5.26,5.26,0,0,0,32.55,46l0,.13c-3.45-4.07-7.85-1.28-7.85-1.28a4,4,0,0,1,1.94.3c-4-.58-7.93,4.48-7.93,4.48a3.18,3.18,0,0,1,.93-.1c-2.53,1.07-5,5.9-5,5.9l.27-1.18S21.08,43.28,27.29,43.23Z" fill="#643117"/><path d="M15.3,54.2s-1.67-10.57,5.9-17.8a11.77,11.77,0,0,0-1.19,2s2.77-1.92,4-1.92a23.87,23.87,0,0,1-1.87,4.16,10.72,10.72,0,0,1-2.56,2.56,4.71,4.71,0,0,1,2-.87,6.25,6.25,0,0,0-2.39,1.82,5.26,5.26,0,0,1,1.78-1,17.48,17.48,0,0,1-2.63,4.24s.56-.5,1.11-1.1a21.23,21.23,0,0,1-2.37,4.51,2.47,2.47,0,0,0,.54-.53A6.6,6.6,0,0,1,15.3,54.2Z" fill="#643117"/><path d="M17.92,42.59a4.67,4.67,0,0,1,1.31-.85C15.94,45.11,15.54,52.07,15.49,54l-.19.17s-1.67-10.57,5.9-17.8a11.77,11.77,0,0,0-1.19,2s2.77-1.92,4-1.92C18.41,39.7,17.92,42.59,17.92,42.59Z" fill="#643117"/></g></g></svg>