<svg id="Layer_1" data-name="Layer 1" xmlns="http://www.w3.org/2000/svg" width="231.37" height="146.66" viewBox="0 0 231.37 146.66"><title>holidaze-logo</title><path d="M34.44,105.34H46.92V78.06c0-5.68,1.92-8.56,4.16-8.56s4.24,3.12,4.24,4.24-2.16-.72-2.16,6V129.9c0,1.36-1,1.84-2.24,1.84-1.84,0-4-1.12-4-2.32V110.94H34.44v19c0,1.36-1,1.84-2.24,1.84-1.84,0-4-1.12-4-2.32V110.94H22.52c-1.68,0-2.88-2.32-2.88-4,0-.88.4-1.6,1.2-1.6H28.2V79.5c-9.84,0-17,6.8-17,17.52,0,6.72,3.2,11,4.24,11,.48,0,.56-.4,1-.4s.48.72.48,1.28c0,3.36-3,6.24-5.28,4.56-2.8-2-6.72-7.44-6.72-16.24,0-17,14.16-23.76,26.32-23.76a3.3,3.3,0,0,1,3.2,3.36Z" transform="translate(-4.92 -15.8)" fill="#212f38"/><path d="M94.36,118.62c-1,4.32-4.24,7.92-9.68,7.92a12.18,12.18,0,0,1-3.92-.56c-2,3.44-5.05,5.76-9.6,5.76-8.08,0-11.69-6.88-11.69-14.88,0-11.76,6.4-18.88,8.16-18.88,2.08,0,3.69,4.24,1.61,5.6-1.29,1.92-3.69,4.88-3.69,12.8,0,6.72,2.65,10.08,5.77,10.08a5.21,5.21,0,0,0,4.72-3c-3.76-3.2-5.76-8.48-5.76-14.24,0-5,2.16-9.36,6.47-9.36,3.77,0,6.81,5.68,6.81,13.44a30.85,30.85,0,0,1-1.12,8.64,5.41,5.41,0,0,0,1.6.16c3.44,0,5.28-2.64,5.76-5.76C90.12,114.46,95.4,114.14,94.36,118.62Zm-16.8-.4a31.33,31.33,0,0,0,.23-3.68c0-5.44-.23-9.44-1.92-9.44-.88,0-1.35,1.28-1.35,3.76A15.53,15.53,0,0,0,77.56,118.22Z" transform="translate(-4.92 -15.8)" fill="#212f38"/><path d="M111.87,119.34c-1.44,4.32-5.36,12.4-12.64,12.4-6.16,0-9.44-4.24-9.44-10.56V84.78c0-6,3.28-10.24,7.28-10.24,7,0,7.12,8.4,7.12,12.88,0,11.76-7.28,27.92-8.32,28.88v4.64c0,3.2,1.28,5.52,4.24,5.52,3.68,0,6.4-5,7.12-8.56C108.19,113.18,112.51,116.78,111.87,119.34Zm-16-13.52c1.68-3.36,3.36-13.92,3.36-18.32,0-5.28-.88-7.68-2.16-7.68-.88,0-1.2,1.92-1.2,3.2Z" transform="translate(-4.92 -15.8)" fill="#212f38"/><path d="M106.83,86.14a4.84,4.84,0,1,1,9.68,0,4.84,4.84,0,1,1-9.68,0Zm6.64,36.64c0,.72,0,3.68,2.08,3.68,3.2,0,4.64-5.12,5.36-8.64,1-4.88,5.28-1.12,4.64,1.44-1.44,5.28-4.56,12.48-11.44,12.48-4.24,0-6.72-3.44-6.72-7.52V102.86a17.23,17.23,0,0,0-.32-2.56c0-.8,1-1.36,2.08-1.36,2.64,0,4.32,1.6,4.32,3.52Z" transform="translate(-4.92 -15.8)" fill="#212f38"/><path d="M119.87,118.86c0-12.24,7.44-19.36,16.16-20.56V80.22c0-2.32-.8-2.48-.8-3s1.44-.88,2.56-.88c2.64,0,4.32,1.6,4.32,3.52v43c0,1.76.8,3.68,2.72,3.68,3.2,0,4.64-5.12,5.36-8.64.32-1.68,1.12-2.4,1.92-2.4,1.28,0,2.8,1.76,2.8,3.28a2.11,2.11,0,0,1-.08.56c-1.36,5.28-4.56,12.48-11.44,12.48a7.1,7.1,0,0,1-6.08-3.12,9.86,9.86,0,0,1-7.12,3.12C124,131.74,119.87,127.26,119.87,118.86ZM136,123.34V103.58c-5.2,1-10,4.72-10,14.72,0,5.76,2.56,8.16,5.36,8.16C133.47,126.46,135,125.1,136,123.34Z" transform="translate(-4.92 -15.8)" fill="#212f38"/><path d="M178.51,117.82c.32-1.68,1.12-2.4,1.92-2.4,1.28,0,2.8,1.76,2.8,3.28a2.11,2.11,0,0,1-.08.56c-1.36,5.28-4.56,12.48-11.44,12.48a7.08,7.08,0,0,1-6.16-3.28,8.9,8.9,0,0,1-6.88,3.28c-6.24,0-9.52-5.28-9.52-12.08,0-13.36,9.28-21.52,19-21.52,2.16,0,3.68,1.28,3.68,3.36,0,1.36-.24,1.84-1,1.84s-1.52-.16-2.32-.16c-6.08,0-13.2,5.2-13.2,16.72,0,4.16,1.76,6.56,4.56,6.56,2.16,0,3.6-1.92,4.48-4.16V110a17.23,17.23,0,0,0-.32-2.56c0-.8,1-1.36,2.08-1.36,2.64,0,4.32,1.6,4.32,3.52v13.2c0,1.76.8,3.68,2.72,3.68C176.35,126.46,177.79,121.34,178.51,117.82Z" transform="translate(-4.92 -15.8)" fill="#212f38"/><path d="M194.67,136c-.88-4.48-3-8.48-7.92-8.48l-1.12-4.4c5.6-1.6,11.6-6.56,11.6-14.56,0-2.72-1.44-5.12-4.56-5.12-4,0-6.48,3-9.44,15.44-1.12,4.56-4.88-.08-4.48-2.08,2-10.48,4.64-18.64,13.92-18.64,6.72,0,10.64,4.88,10.64,11,0,6.72-4.56,12.08-10.24,14.64a13.53,13.53,0,0,1,6.56,7.36,31.18,31.18,0,0,0,7.68-13.36c.48-1.68,1.12-2.4,1.92-2.4,1.28,0,2.8,1.76,2.8,3.28a3.67,3.67,0,0,1-.08.8,34,34,0,0,1-11,17.12,53.21,53.21,0,0,1,.48,7.68c0,8.4-2.16,18.16-9.44,18.16-4.48,0-7.68-4.08-7.68-9.2C184.27,144.94,189.23,140.86,194.67,136Zm.56,5.52c-3.12,2.88-5.36,6.08-5.36,11.52,0,2.48.8,4.4,2.08,4.4,3,0,3.36-7.68,3.36-12C195.31,144.3,195.31,142.94,195.23,141.5Z" transform="translate(-4.92 -15.8)" fill="#212f38"/><path d="M214.19,121.5a7.45,7.45,0,0,0,7.44,5c6.24,0,8.8-5.2,9.76-10.08.72-3.6,5.2-2,4.88.8-.56,4.88-3.76,14.56-15.52,14.56-7.28,0-14.16-5.84-14.16-15.84,0-10.16,6.08-17.76,12.24-17.76,4.48,0,7.2,3.28,7.2,8.08A16.43,16.43,0,0,1,214.19,121.5Zm-1-4.4a11.66,11.66,0,0,0,6.56-10.8c0-1.76-.64-2.8-1.68-2.8-3.92,0-5.12,8.8-5,12.16C213.15,116.14,213.23,116.62,213.23,117.1Z" transform="translate(-4.92 -15.8)" fill="#212f38"/><path d="M135.8,61.31V35.71a3.67,3.67,0,0,0-.76-2.38l-13.84-17a1.2,1.2,0,0,0-1.94,0l-13.85,17a3.72,3.72,0,0,0-.76,2.38v25.6c0,1.58.78,2,1.73,2h27.69C135,63.28,135.8,62.89,135.8,61.31Z" transform="translate(-4.92 -15.8)" fill="#ea9b5e"/><path d="M175.19,61.31V35.71a3.72,3.72,0,0,0-.76-2.38l-13.85-17a1.2,1.2,0,0,0-1.94,0l-13.84,17a3.67,3.67,0,0,0-.76,2.38v25.6c0,1.58.77,2,1.73,2h27.69C174.41,63.28,175.19,62.89,175.19,61.31Z" transform="translate(-4.92 -15.8)" fill="#f0c241"/><path d="M96.42,61.31V35.71a3.72,3.72,0,0,0-.76-2.38l-13.85-17a1.2,1.2,0,0,0-1.94,0L66,33.33a3.67,3.67,0,0,0-.76,2.38v25.6c0,1.58.77,2,1.73,2H94.69C95.64,63.28,96.42,62.89,96.42,61.31Z" transform="translate(-4.92 -15.8)" fill="#df694e"/></svg>