<svg id="Layer_1" data-name="Layer 1" xmlns="http://www.w3.org/2000/svg" width="231.37" height="92.96" viewBox="0 0 231.37 92.96"><title>logo-wordmark</title><path d="M29.52,35.84H42V8.56C42,2.88,43.92,0,46.16,0S50.4,3.12,50.4,4.24s-2.16-.72-2.16,6V60.4c0,1.36-1,1.84-2.24,1.84-1.84,0-4-1.12-4-2.32V41.44H29.52v19c0,1.36-1,1.84-2.24,1.84-1.84,0-4-1.12-4-2.32V41.44H17.6c-1.68,0-2.88-2.32-2.88-4,0-.88.4-1.6,1.2-1.6h7.36V10c-9.84,0-17,6.8-17,17.52,0,6.72,3.2,11,4.24,11,.48,0,.56-.4,1-.4s.48.72.48,1.28C12,42.8,9,45.68,6.72,44,3.92,42,0,36.56,0,27.76,0,10.8,14.16,4,26.32,4a3.3,3.3,0,0,1,3.2,3.36Z" fill="#df694e"/><path d="M89.44,49.12c-1,4.32-4.24,7.92-9.68,7.92a12.22,12.22,0,0,1-3.92-.56c-2,3.44-5,5.76-9.6,5.76-8.08,0-11.68-6.88-11.68-14.88,0-11.76,6.4-18.88,8.16-18.88,2.08,0,3.68,4.24,1.6,5.6C63,36,60.64,39,60.64,46.88,60.64,53.6,63.28,57,66.4,57a5.19,5.19,0,0,0,4.72-3c-3.76-3.2-5.76-8.48-5.76-14.24,0-5,2.16-9.36,6.48-9.36,3.76,0,6.8,5.68,6.8,13.44a30.85,30.85,0,0,1-1.12,8.64,5.44,5.44,0,0,0,1.6.16c3.44,0,5.28-2.64,5.76-5.76C85.2,45,90.48,44.64,89.44,49.12Zm-16.8-.4A29.37,29.37,0,0,0,72.88,45c0-5.44-.24-9.44-1.92-9.44-.88,0-1.36,1.28-1.36,3.76A15.59,15.59,0,0,0,72.64,48.72Z" fill="#df694e"/><path d="M107,49.84c-1.44,4.32-5.36,12.4-12.64,12.4-6.16,0-9.44-4.24-9.44-10.56V15.28c0-6,3.28-10.24,7.28-10.24,7,0,7.12,8.4,7.12,12.88C99.28,29.68,92,45.84,91,46.8v4.64C91,54.64,92.24,57,95.2,57c3.68,0,6.4-5,7.12-8.56C103.28,43.68,107.6,47.28,107,49.84ZM91,36.32C92.64,33,94.32,22.4,94.32,18c0-5.28-.88-7.68-2.16-7.68-.88,0-1.2,1.92-1.2,3.2Z" fill="#df694e"/><path d="M101.92,16.64a4.84,4.84,0,1,1,9.68,0,4.84,4.84,0,1,1-9.68,0Zm6.64,36.64c0,.72,0,3.68,2.08,3.68,3.2,0,4.64-5.12,5.36-8.64,1-4.88,5.28-1.12,4.64,1.44C119.2,55,116.08,62.24,109.2,62.24c-4.24,0-6.72-3.44-6.72-7.52V33.36a17.23,17.23,0,0,0-.32-2.56c0-.8,1-1.36,2.08-1.36,2.64,0,4.32,1.6,4.32,3.52Z" fill="#df694e"/><path d="M115,49.36C115,37.12,122.4,30,131.12,28.8V10.72c0-2.32-.8-2.48-.8-3s1.44-.88,2.56-.88c2.64,0,4.32,1.6,4.32,3.52v43c0,1.76.8,3.68,2.72,3.68,3.2,0,4.64-5.12,5.36-8.64.32-1.68,1.12-2.4,1.92-2.4,1.28,0,2.8,1.76,2.8,3.28a2.11,2.11,0,0,1-.08.56c-1.36,5.28-4.56,12.48-11.44,12.48a7.1,7.1,0,0,1-6.08-3.12,9.86,9.86,0,0,1-7.12,3.12C119,62.24,115,57.76,115,49.36Zm16.16,4.48V34.08c-5.2,1-10,4.72-10,14.72,0,5.76,2.56,8.16,5.36,8.16C128.56,57,130.08,55.6,131.12,53.84Z" fill="#df694e"/><path d="M173.6,48.32c.32-1.68,1.12-2.4,1.92-2.4,1.28,0,2.8,1.76,2.8,3.28a2.11,2.11,0,0,1-.08.56c-1.36,5.28-4.56,12.48-11.44,12.48A7.06,7.06,0,0,1,160.64,59a8.92,8.92,0,0,1-6.89,3.28c-6.24,0-9.51-5.28-9.51-12.08,0-13.36,9.28-21.52,19-21.52,2.16,0,3.68,1.28,3.68,3.36,0,1.36-.24,1.84-1,1.84s-1.52-.16-2.32-.16c-6.08,0-13.2,5.2-13.2,16.72,0,4.16,1.76,6.56,4.56,6.56,2.16,0,3.6-1.92,4.48-4.16V40.48a17.23,17.23,0,0,0-.32-2.56c0-.8,1-1.36,2.08-1.36,2.63,0,4.32,1.6,4.32,3.52v13.2c0,1.76.8,3.68,2.72,3.68C171.44,57,172.88,51.84,173.6,48.32Z" fill="#df694e"/><path d="M189.75,66.48c-.87-4.48-3-8.48-7.92-8.48l-1.12-4.4c5.6-1.6,11.6-6.56,11.6-14.56,0-2.72-1.43-5.12-4.56-5.12-4,0-6.48,3-9.44,15.44-1.12,4.56-4.88-.08-4.48-2.08,2-10.48,4.64-18.64,13.92-18.64,6.72,0,10.64,4.88,10.64,11,0,6.72-4.56,12.08-10.24,14.64a13.53,13.53,0,0,1,6.56,7.36,31.18,31.18,0,0,0,7.68-13.36c.49-1.68,1.12-2.4,1.93-2.4,1.27,0,2.8,1.76,2.8,3.28a3.67,3.67,0,0,1-.08.8,34.06,34.06,0,0,1-11,17.12,54.83,54.83,0,0,1,.47,7.68c0,8.4-2.16,18.16-9.44,18.16-4.48,0-7.68-4.08-7.68-9.2C179.35,75.44,184.31,71.36,189.75,66.48Zm.56,5.52c-3.12,2.88-5.36,6.08-5.36,11.52,0,2.48.8,4.4,2.08,4.4,3,0,3.36-7.68,3.36-12C190.39,74.8,190.39,73.44,190.31,72Z" fill="#df694e"/><path d="M209.27,52a7.45,7.45,0,0,0,7.44,5c6.24,0,8.8-5.2,9.76-10.08.72-3.6,5.2-2,4.88.8-.56,4.88-3.76,14.56-15.52,14.56-7.28,0-14.16-5.84-14.16-15.84,0-10.16,6.08-17.76,12.24-17.76,4.48,0,7.2,3.28,7.2,8.08A16.43,16.43,0,0,1,209.27,52Zm-1-4.4a11.66,11.66,0,0,0,6.56-10.8c0-1.76-.64-2.8-1.68-2.8-3.92,0-5.12,8.8-5,12.16C208.23,46.64,208.31,47.12,208.31,47.6Z" fill="#df694e"/></svg>